<?xml version="1.0" standalone="no"?>
<!DOCTYPE svg PUBLIC "-//W3C//DTD SVG 1.1//EN" "http://www.w3.org/Graphics/SVG/1.1/DTD/svg11.dtd" >
<svg xmlns="http://www.w3.org/2000/svg">
<metadata></metadata>
<defs>
<font id="sofadi_oneregular" horiz-adv-x="0" >
<font-face units-per-em="2048" ascent="1638" descent="-410" />
<missing-glyph horiz-adv-x="614" />
<glyph horiz-adv-x="2048" />
<glyph horiz-adv-x="2048" />
<glyph unicode="&#xd;" horiz-adv-x="614" />
<glyph />
<glyph />
<glyph />
<glyph />
<glyph />
<glyph />
<glyph />
<glyph />
<glyph unicode="&#x9;" />
<glyph />
<glyph />
<glyph />
<glyph />
<glyph />
<glyph />
<glyph />
<glyph />
<glyph />
<glyph />
<glyph unicode=" "  horiz-adv-x="614" />
<glyph unicode="&#x09;" horiz-adv-x="614" />
<glyph unicode="&#xa0;" horiz-adv-x="614" />
<glyph unicode="!" horiz-adv-x="493" d="M143 68v65q0 33 26 54.5t79 21.5t77.5 -21.5t24.5 -54.5v-65q0 -33 -24.5 -54.5t-77.5 -21.5t-79 21.5t-26 54.5zM150 1452q0 29 23.5 51.5t74.5 22.5t74.5 -22.5t23.5 -51.5l-12 -1022q0 -29 -17.5 -48.5t-68.5 -19.5t-68.5 19.5t-17.5 48.5z" />
<glyph unicode="&#x22;" horiz-adv-x="677" d="M102 950v412q0 76 82 76q39 0 61.5 -20.5t22.5 -55.5v-412q0 -35 -22.5 -55.5t-61.5 -20.5q-82 0 -82 76zM410 950v412q0 76 82 76q39 0 61 -20.5t22 -55.5v-412q0 -35 -22.5 -55.5t-60.5 -20.5q-82 0 -82 76z" />
<glyph unicode="#" horiz-adv-x="1228" d="M61 272q0 47 19.5 67.5t48.5 20.5h133v533h-133q-29 0 -48.5 19.5t-19.5 66.5t19.5 68.5t48.5 21.5h133v137q0 29 20.5 48.5t67.5 19.5t67.5 -19.5t20.5 -48.5v-137h355v137q0 29 19 48.5t65 19.5q49 0 69.5 -19.5t20.5 -48.5v-137h131q31 0 50 -21.5t19 -68.5 t-19.5 -66.5t-49.5 -19.5h-131v-533h131q31 0 50 -20.5t19 -67.5q0 -45 -19.5 -66.5t-49.5 -21.5h-131v-137q0 -29 -20.5 -48t-69.5 -19q-45 0 -64.5 19t-19.5 48v137h-355v-137q0 -29 -20.5 -48t-67.5 -19t-67.5 19t-20.5 48v137h-133q-29 0 -48.5 21.5t-19.5 66.5z M438 360h355v533h-355v-533z" />
<glyph unicode="$" horiz-adv-x="1402" d="M125 340q0 47 28.5 86t82.5 39q47 0 73.5 -21.5t48.5 -89.5q39 -115 130.5 -174t197.5 -59q76 0 135.5 20.5t101.5 54t63.5 76.5t21.5 86q0 29 -7.5 51.5t-29 41t-60.5 36t-102 35.5l-272 78q-129 37 -200 112.5t-71 196.5q0 57 28 112.5t79 101.5t122.5 80t157.5 50v144 q0 35 24.5 58.5t78.5 23.5q55 0 79.5 -23.5t24.5 -58.5v-131q70 -6 144.5 -24.5t135 -47.5t99.5 -68t39 -86q0 -41 -34 -72.5t-95 -31.5q-39 0 -68.5 14.5t-46.5 32.5q-41 45 -72.5 73.5t-63.5 46t-65.5 25t-76.5 7.5q-57 0 -105.5 -17.5t-84.5 -45.5t-55 -63.5t-19 -72.5 q0 -53 29.5 -100.5t113.5 -69.5l346 -98q145 -41 199.5 -113t54.5 -166q0 -51 -28.5 -108.5t-82 -109.5t-127 -95t-163.5 -68v-131q0 -35 -25 -58.5t-80 -23.5q-53 0 -77.5 23.5t-24.5 58.5v109q-100 4 -189.5 30.5t-157 72.5t-108.5 109.5t-47 141.5z" />
<glyph unicode="%" horiz-adv-x="2056" d="M61 745q0 84 46.5 171.5t125 158t182 115.5t218.5 45q152 0 218.5 -55.5t66.5 -147.5q0 -84 -46.5 -171t-124 -158.5t-181 -117.5t-220.5 -46q-152 0 -218.5 57t-66.5 149zM250 815q0 -76 44 -119t122 -43q63 0 120.5 26t100.5 69t68.5 98t25.5 115q0 74 -46 116.5 t-128 42.5q-66 0 -122 -25.5t-97 -67.5t-64.5 -97.5t-23.5 -114.5zM559 -8q0 12 6 25.5t17 29.5l757 1249q12 20 24.5 33.5t33.5 13.5q23 0 55 -20q27 -16 37 -30.5t10 -30.5q0 -20 -20 -56l-758 -1249q-12 -20 -25.5 -33.5t-33.5 -13.5q-23 0 -56 20q-27 16 -37 30.5 t-10 31.5zM1139 225q0 84 46 171t125 158t182 116t218 45q152 0 218.5 -55.5t66.5 -147.5q0 -84 -46 -171t-124 -158.5t-181.5 -118t-220.5 -46.5q-152 0 -218 57.5t-66 149.5zM1327 295q0 -76 44 -119t122 -43q63 0 120.5 25.5t100.5 68.5t68.5 98.5t25.5 114.5 q0 74 -46 117t-128 43q-66 0 -122 -25.5t-97 -67.5t-64.5 -97.5t-23.5 -114.5z" />
<glyph unicode="&#x26;" horiz-adv-x="1200" d="M82 223q0 55 22.5 111.5t65.5 108t102.5 92t133.5 65.5q-137 31 -196.5 100.5t-59.5 143.5q0 80 47 158.5t124.5 141t178 100.5t207.5 38q123 0 172 -34t49 -93q0 -72 -31 -111.5t-78 -39.5q-43 0 -67.5 19t-24.5 52q0 70 -102 70q-55 0 -105.5 -22.5t-88.5 -60.5 t-61.5 -89t-23.5 -109q0 -100 86 -155.5t301 -55.5h125v80q0 35 22.5 58.5t75.5 23.5q55 0 78 -23.5t23 -58.5v-82h86q59 0 59 -57q0 -59 -59 -59h-86v-173q0 -188 -121 -289.5t-399 -101.5q-121 0 -207 20.5t-141.5 55.5t-81 81t-25.5 95zM303 297q0 -104 69.5 -156.5 t227.5 -52.5q76 0 126 12.5t79 45t41 88t12 141.5v162h-240q-150 0 -232.5 -67t-82.5 -173z" />
<glyph unicode="'" horiz-adv-x="370" d="M102 950v412q0 76 82 76q39 0 61.5 -20.5t22.5 -55.5v-412q0 -35 -22.5 -55.5t-61.5 -20.5q-82 0 -82 76z" />
<glyph unicode="(" horiz-adv-x="714" d="M143 141v807q0 96 18.5 191.5t55.5 183.5t90 166t121 139q23 23 40 29t38 6q27 0 46 -19.5t19 -39.5q0 -10 -4 -21.5t-20 -28.5q-98 -109 -144.5 -265t-46.5 -331v-829q0 -174 46.5 -329.5t144.5 -264.5q16 -16 20 -27.5t4 -21.5q0 -20 -19.5 -39.5t-45.5 -19.5 q-20 0 -37.5 6t-40.5 28q-68 61 -121 139t-90 166.5t-55.5 183.5t-18.5 191z" />
<glyph unicode=")" horiz-adv-x="714" d="M143 -514q0 10 4.5 21.5t20.5 27.5q98 109 144 264.5t46 329.5v829q0 174 -46 331t-144 265q-16 16 -20.5 27.5t-4.5 22.5q0 20 19.5 39.5t46.5 19.5q20 0 37.5 -6t40.5 -29q68 -61 121 -139t90 -166t55 -183.5t18 -191.5v-807q0 -96 -18 -191t-55 -183.5t-90.5 -166 t-120.5 -139.5q-23 -23 -40.5 -28.5t-37.5 -5.5q-27 0 -46.5 19t-19.5 40z" />
<glyph unicode="*" horiz-adv-x="845" d="M123 1196q0 29 18.5 54.5t42.5 25.5q4 0 17 -4l172 -74l-17 186q-4 27 18.5 40.5t49.5 13.5t47.5 -13.5t17.5 -40.5l-16 -188l172 74q12 4 19 4q25 0 42 -24.5t17 -53.5q0 -16 -8 -31.5t-27 -19.5l-184 -45l125 -142q10 -14 10 -28q0 -27 -24.5 -49.5t-53.5 -22.5 q-25 0 -39 21l-100 161l-100 -161q-14 -20 -39 -21q-29 0 -53.5 23.5t-24.5 50.5q0 12 10 26l127 144l-184 45q-18 4 -26.5 18.5t-8.5 30.5z" />
<glyph unicode="+" horiz-adv-x="710" d="M61 524q0 29 15.5 48.5t44.5 19.5h166v164q0 29 19.5 44t49.5 15q29 0 48.5 -15.5t19.5 -43.5v-164h166q29 0 44 -19.5t15 -48.5q0 -31 -15.5 -50t-43.5 -19h-166v-168q0 -29 -19.5 -44.5t-48.5 -15.5q-31 0 -50 15.5t-19 44.5v168h-166q-29 0 -44.5 19.5t-15.5 49.5z " />
<glyph unicode="," horiz-adv-x="452" d="M88 -186q0 6 4 18l74 170q-43 20 -43 66v65q0 33 25.5 54.5t78.5 21.5t78 -21.5t25 -54.5v-57q0 -25 -10.5 -52.5t-38.5 -91.5l-68 -149q-12 -29 -43 -29q-16 0 -35 8q-47 18 -47 52z" />
<glyph unicode="-" horiz-adv-x="710" d="M61 524q0 29 15.5 48.5t44.5 19.5h469q29 0 44 -19.5t15 -48.5q0 -31 -15.5 -50t-43.5 -19h-469q-29 0 -44.5 19.5t-15.5 49.5z" />
<glyph unicode="." horiz-adv-x="452" d="M123 68v65q0 33 25.5 54.5t78.5 21.5t78 -21.5t25 -54.5v-65q0 -33 -25 -54.5t-78 -21.5t-78.5 21.5t-25.5 54.5z" />
<glyph unicode="/" horiz-adv-x="782" d="M2 12q0 18 8 35l572 1389q16 49 67 49q29 0 58 -15q74 -29 73 -79q0 -18 -8 -35l-571 -1389q-16 -49 -68 -49q-29 0 -59 14q-72 31 -72 80z" />
<glyph unicode="0" horiz-adv-x="1165" d="M102 471q0 182 40 331.5t118 257t192.5 166t264.5 58.5q94 0 169 -27.5t128 -88t81.5 -154.5t28.5 -228q0 -180 -40 -330.5t-117.5 -258t-193.5 -167t-267 -59.5q-92 0 -167 29t-127 90.5t-81 155.5t-29 225zM319 555q0 -125 17.5 -212t47.5 -140t71 -78t90 -25 q168 0 264 147.5t96 457.5q0 123 -16.5 208.5t-47 139t-73.5 78t-94 24.5q-172 0 -263.5 -146.5t-91.5 -453.5z" />
<glyph unicode="1" horiz-adv-x="768" d="M41 1012q0 43 53 69l348 172q39 18 78 19q55 0 80 -26.5t25 -76.5v-1108q0 -35 -25 -58t-80 -23q-53 0 -77.5 23.5t-24.5 57.5v1016l-252 -149q-23 -12 -43 -13q-49 0 -72 54q-10 27 -10 43z" />
<glyph unicode="2" horiz-adv-x="1091" d="M61 74q0 23 10.5 34t45.5 35q184 129 305 245t193.5 217.5t102.5 185t30 151.5q0 96 -44.5 146.5t-136.5 50.5q-90 0 -151.5 -42t-89.5 -116q-12 -31 -36 -49.5t-71 -18.5q-39 0 -65.5 19.5t-26.5 58.5q0 49 43 100.5t114.5 93.5t164 69.5t192.5 27.5q147 0 235.5 -80 t88.5 -213q0 -86 -48.5 -195.5t-132.5 -223t-198.5 -223t-245.5 -197.5h334q66 0 100.5 8t53 21.5t25.5 27.5t15.5 27.5t24.5 21.5t51 8q39 0 62.5 -25.5t23.5 -70.5q0 -78 -60.5 -123t-215.5 -45h-637q-33 0 -44.5 21.5t-11.5 52.5z" />
<glyph unicode="3" horiz-adv-x="1181" d="M41 193q0 55 29.5 88.5t72.5 33.5q37 0 56.5 -15t32 -37.5t24.5 -48.5t34.5 -48.5t60.5 -37.5t102 -15q94 0 170.5 24.5t131 69.5t84 105.5t29.5 131.5q0 49 -15 84t-40 56.5t-56.5 31t-66.5 9.5q-23 0 -53.5 -7.5t-60 -16.5t-56 -16t-43.5 -7q-57 0 -57 59 q0 45 16.5 61.5t69.5 22.5l88 10q109 12 169 81t60 157q0 76 -41 123t-125 47q-90 0 -161.5 -42t-100.5 -116q-12 -31 -35.5 -49.5t-70.5 -18.5q-39 0 -65.5 19.5t-26.5 58.5q0 49 43 100.5t114.5 93.5t163.5 69.5t193 27.5q147 0 235 -63.5t88 -186.5q0 -41 -10 -86 t-33.5 -88t-62.5 -80t-97 -59h25q121 0 182.5 -61.5t61.5 -151.5q0 -92 -55.5 -186.5t-152.5 -171t-229.5 -126t-283.5 -49.5q-168 0 -253 64.5t-85 155.5z" />
<glyph unicode="4" horiz-adv-x="1247" d="M61 688q0 61 22.5 134t62.5 146.5t97.5 145.5t125.5 131q23 23 40 29t37 6q27 0 46.5 -19.5t19.5 -39.5q0 -10 -4 -21.5t-21 -28.5q-49 -53 -87 -109t-63.5 -112.5t-39.5 -107.5t-14 -92q0 -104 54 -156.5t152 -52.5q80 0 155 33.5t131 95t91 145.5t35 184v181 q0 35 23.5 58.5t79.5 23.5q53 0 76.5 -24t23.5 -58v-1121q0 -35 -22.5 -58.5t-73.5 -23.5q-53 0 -76 24t-23 58v631q-84 -137 -203.5 -205.5t-271.5 -68.5q-186 0 -279.5 77.5t-93.5 194.5z" />
<glyph unicode="5" horiz-adv-x="1234" d="M31 193q0 55 29.5 88.5t72.5 33.5q37 0 56.5 -15t31.5 -37.5t24.5 -48.5t35 -48.5t60.5 -37.5t101 -15q94 0 172 29.5t133.5 79.5t86 117t30.5 138q0 92 -52 143.5t-134 51.5q-84 0 -163 -35t-138 -86q-53 -43 -92 -43q-23 0 -41 12q-37 25 -37 60q0 10 2 23t6 30l74 332 q41 145 125 215.5t192 70.5h293q135 0 194.5 -45t59.5 -123q0 -53 -19.5 -81.5t-72.5 -28.5q-35 0 -50.5 10t-21.5 26.5t-12 35t-23.5 35t-53.5 26.5t-103 10h-174q-74 0 -107 -22.5t-49 -73.5l-23 -80q-10 -35 -18 -73t-13 -78.5t-12 -92.5q84 53 174.5 78t182.5 25 q168 0 251 -70t83 -199q0 -92 -57.5 -191t-157 -180t-230.5 -133.5t-278 -52.5q-168 0 -253 64.5t-85 155.5z" />
<glyph unicode="6" horiz-adv-x="1202" d="M41 201q0 111 65 225q16 39 33 83t31 85t22.5 76t8.5 57q0 88 49 186.5t147.5 180.5t246 135t341.5 53q84 0 120 -29.5t36 -81.5q0 -76 -32 -113.5t-77 -37.5q-41 0 -66.5 18.5t-25.5 53.5t-16.5 51t-57.5 16q-96 0 -181 -36t-153.5 -102.5t-116.5 -158.5t-71 -205 q86 68 184.5 101t204.5 33q182 0 264 -68t82 -172q0 -98 -55 -200.5t-150.5 -186.5t-221.5 -138.5t-267 -54.5q-182 0 -263 65.5t-81 164.5zM258 283q0 -86 56.5 -135.5t150.5 -49.5q82 0 154.5 32t127 84t86 118.5t31.5 136.5q0 86 -56.5 140.5t-158.5 54.5 q-84 0 -155.5 -33t-124 -86t-82 -122t-29.5 -140z" />
<glyph unicode="7" horiz-adv-x="1015" d="M61 1104q0 41 19.5 71.5t64.5 51t118 31t179 10.5h422q70 0 100.5 -18.5t30.5 -71.5q0 -31 -21.5 -79t-49.5 -108l-484 -973q-10 -23 -26.5 -35t-42.5 -12q-29 0 -60 15q-68 33 -67 84q0 18 8 34l506 1022h-264q-86 0 -132.5 -9t-70 -23.5t-30.5 -30.5t-15 -30.5 t-26.5 -24t-63.5 -9.5q-53 0 -74 25t-21 80z" />
<glyph unicode="8" horiz-adv-x="1155" d="M82 207q0 57 21.5 120.5t60.5 123t90 115t111 98.5q-51 23 -84 59.5t-33 89.5q0 84 44 168t120.5 150.5t180 108.5t224.5 42q162 0 229.5 -53t67.5 -139q0 -88 -57.5 -184.5t-149.5 -162.5q86 -23 138.5 -76t52.5 -124q0 -102 -48.5 -204.5t-135.5 -184.5t-207.5 -133.5 t-266.5 -51.5q-193 0 -275.5 66.5t-82.5 171.5zM297 287q0 -92 53 -144.5t158 -52.5q80 0 148.5 31t118.5 83t80 119.5t30 141.5q0 86 -57.5 139t-161.5 53q-80 0 -147.5 -30.5t-117 -82.5t-77 -119t-27.5 -138zM449 887q0 -63 43 -100t126 -37q57 0 111.5 21.5t95.5 58 t65.5 85t24.5 99.5q0 63 -45 99t-131 36q-66 0 -119 -21.5t-90.5 -58.5t-59 -84t-21.5 -98z" />
<glyph unicode="9" horiz-adv-x="1232" d="M41 193q0 55 29.5 88.5t72.5 33.5q37 0 56.5 -15t32 -37.5t24.5 -48.5t34.5 -48.5t60.5 -37.5t102 -15q94 0 171.5 30.5t134 85t88.5 131t32 168.5v68q-170 -178 -402 -178q-182 0 -265 70.5t-83 183.5q0 104 54.5 212.5t146.5 196.5t213 143.5t254 55.5q188 0 271 -69.5 t83 -182.5q0 -59 -18.5 -121.5t-51.5 -122.5q0 -68 2 -107.5t4.5 -62t4.5 -33t2 -22.5q0 -104 -56.5 -208.5t-153 -188.5t-226.5 -136.5t-279 -52.5q-168 0 -253 64.5t-85 155.5zM350 756q0 -98 52.5 -153.5t150.5 -55.5q78 0 146.5 33.5t120.5 89t82 127t30 149.5 q0 92 -56.5 148.5t-154.5 56.5q-78 0 -145.5 -33t-117.5 -88t-79 -127t-29 -147z" />
<glyph unicode=":" horiz-adv-x="452" d="M123 68v65q0 33 25.5 54.5t78.5 21.5t78 -21.5t25 -54.5v-65q0 -33 -25 -54.5t-78 -21.5t-78.5 21.5t-25.5 54.5zM123 586v65q0 33 25.5 54.5t78.5 21.5t78 -21.5t25 -54.5v-65q0 -33 -25 -54.5t-78 -21.5t-78.5 21.5t-25.5 54.5z" />
<glyph unicode=";" horiz-adv-x="452" d="M88 -186q0 6 4 18l74 170q-43 20 -43 66v65q0 33 25.5 54.5t78.5 21.5t78 -21.5t25 -54.5v-57q0 -25 -10.5 -52.5t-38.5 -91.5l-68 -149q-12 -29 -43 -29q-16 0 -35 8q-47 18 -47 52zM123 586v65q0 33 25.5 54.5t78.5 21.5t78 -21.5t25 -54.5v-65q0 -33 -25 -54.5 t-78 -21.5t-78.5 21.5t-25.5 54.5z" />
<glyph unicode="&#x3c;" horiz-adv-x="886" d="M61 543q0 45 37 61l635 279q12 6 25 6q39 0 59 -47q8 -16 8 -35q0 -37 -34 -53l-517 -213l517 -211q35 -16 34 -54q0 -18 -8 -34q-20 -47 -59 -47q-12 0 -25 6l-635 278q-37 16 -37 64z" />
<glyph unicode="=" horiz-adv-x="710" d="M61 401q0 29 15.5 48.5t44.5 19.5h469q29 0 44 -19.5t15 -48.5q0 -31 -15.5 -50t-43.5 -19h-469q-29 0 -44.5 19.5t-15.5 49.5zM61 709q0 29 15.5 48t44.5 19h469q29 0 44 -19.5t15 -47.5q0 -31 -15.5 -50.5t-43.5 -19.5h-469q-29 0 -44.5 19.5t-15.5 50.5z" />
<glyph unicode="&#x3e;" horiz-adv-x="886" d="M61 276q0 37 35 54l516 211l-516 213q-35 16 -35 53q0 18 9 35q20 47 59 47q12 0 25 -6l634 -279q37 -16 37 -61q0 -47 -37 -64l-634 -278q-12 -6 -25 -6q-39 0 -59 47q-8 16 -9 34z" />
<glyph unicode="?" horiz-adv-x="1042" d="M84 1147q0 49 35 100t99.5 93t156.5 70t207 28q172 0 275.5 -77t103.5 -206q0 -55 -26 -121.5t-63.5 -133t-83 -126t-81.5 -100.5q-25 -27 -38.5 -43.5t-21.5 -31.5t-10 -32.5t-4 -44.5l-6 -92q-2 -29 -18.5 -48.5t-67.5 -19.5t-66.5 19.5t-19.5 48.5q-6 49 -6 109 q0 47 21.5 95t80.5 111q76 80 134 170.5t58 192.5q0 90 -57 138t-158 48q-96 0 -153.5 -42t-91.5 -115q-14 -31 -37 -49.5t-70 -18.5q-39 0 -65.5 19.5t-26.5 58.5zM440 68v65q0 33 26 54.5t79 21.5t77.5 -21.5t24.5 -54.5v-65q0 -33 -24.5 -54.5t-77.5 -21.5t-79 21.5 t-26 54.5z" />
<glyph unicode="@" horiz-adv-x="1800" d="M82 82q0 193 92 357.5t246.5 284.5t355.5 187.5t418 67.5q104 0 199.5 -26.5t168 -79t114.5 -127t42 -168.5q0 -102 -34.5 -213t-94 -201t-137.5 -148.5t-164 -58.5q-55 0 -79.5 26.5t-24.5 75.5v125q-190 -227 -439 -227q-156 0 -221 60.5t-65 177.5q0 96 55 184 t141 155.5t189.5 107.5t199.5 40q123 0 204 -52t81 -167q0 -27 -7 -58.5t-7 -35.5v-222q0 -41 7 -55t26 -14q33 0 66.5 33.5t61 91t44 133.5t16.5 158q0 174 -110.5 263t-301.5 89q-160 0 -313.5 -55.5t-274 -149.5t-195.5 -221t-75 -268q0 -90 34 -158t91.5 -115t134 -70.5 t164.5 -23.5h55q35 0 53.5 -6t18.5 -33q0 -45 -49 -65.5t-172 -20.5q-104 0 -197.5 29.5t-164 84t-111.5 132.5t-41 176zM631 244q0 -86 46 -123t128 -37q66 0 132.5 26.5t119.5 70.5t87 103.5t34 127.5q0 80 -51.5 120.5t-137.5 40.5q-66 0 -130 -24.5t-115.5 -67.5 t-82 -103.5t-30.5 -133.5z" />
<glyph unicode="A" horiz-adv-x="1361" d="M113 473q0 176 52 324.5t143 256t211 168t255 60.5q223 0 334 -111.5t111 -347.5v-766q0 -39 -27 -62.5t-80 -23.5t-79.5 23.5t-26.5 62.5v516h-691q0 -135 25 -238.5t68 -174.5q18 -31 25 -53.5t7 -45.5q0 -35 -31.5 -62.5t-84.5 -27.5q-35 0 -69 22.5t-58 69.5 q-39 76 -61.5 185.5t-22.5 224.5zM326 705h680v69q0 199 -78 286t-219 87q-66 0 -127.5 -26.5t-111.5 -82t-88 -138.5t-56 -195z" />
<glyph unicode="B" horiz-adv-x="1404" d="M143 188v770q0 57 8.5 99.5t29 73t57 52t94.5 42.5q72 27 173 41t220 14q123 0 209 -21.5t141 -56.5t80 -80t25 -94q0 -47 -14.5 -94t-45 -92t-77 -82t-107.5 -62q205 -10 296 -72.5t91 -185.5q0 -102 -51 -187t-151.5 -148.5t-251 -98.5t-347.5 -35q-109 0 -181.5 11.5 t-116.5 37t-62.5 67.5t-18.5 101zM342 248q0 -45 8 -74t38 -44t85 -20.5t152 -5.5q129 0 220 18.5t147.5 53.5t82 88t25.5 123q0 51 -17.5 90t-59.5 65.5t-112.5 41t-177.5 14.5h-391v-350zM342 715h301q143 0 229 64.5t86 174.5q0 104 -69.5 156.5t-226.5 52.5 q-37 0 -86 -4t-78 -10q-53 -12 -84 -24.5t-46.5 -32t-20.5 -51t-5 -83.5v-243z" />
<glyph unicode="C" horiz-adv-x="1607" d="M82 430q0 106 35 210.5t98.5 200t152.5 175.5t197.5 139t234.5 93t261 34q186 0 305 -49t174 -121q27 -33 27 -78q0 -43 -35 -73.5t-90 -30.5q-29 0 -57.5 15.5t-51.5 41.5q-68 82 -157 118t-207 36q-135 0 -253 -52.5t-205 -141.5t-138 -204.5t-51 -242.5 q0 -82 29.5 -153t83.5 -123t133 -81.5t177 -29.5q80 0 151 17t131 46t110.5 67t87.5 81q25 29 48 43t58 14q33 0 51.5 -16.5t18.5 -45.5q0 -33 -31 -65q-53 -57 -128 -108.5t-163 -90.5t-184 -61.5t-193 -22.5q-158 0 -274.5 34t-193 94.5t-114.5 144.5t-38 186z" />
<glyph unicode="D" horiz-adv-x="1497" d="M143 172v782q0 74 14.5 124t57.5 84t120 56.5t202 41.5q57 8 138 14t148 6q129 0 232.5 -33t177.5 -93t112.5 -146t38.5 -191q0 -190 -63.5 -346t-179 -267.5t-278 -172t-361.5 -60.5q-121 0 -192.5 7.5t-108.5 29t-47.5 61.5t-10.5 103zM356 203q0 -31 6.5 -49.5 t28 -28.5t62.5 -14.5t112 -4.5q131 0 239.5 37t186.5 114t122 197.5t44 288.5q0 213 -107.5 308.5t-328.5 95.5q-33 0 -61.5 -2t-53.5 -6q-78 -10 -126 -22.5t-75.5 -34t-38 -53.5t-10.5 -81v-745z" />
<glyph unicode="E" horiz-adv-x="1247" d="M143 172v690q0 94 13.5 159.5t47.5 110t90 70t144 43.5q37 8 78 14.5t80 10.5t72.5 7t54.5 3q127 0 209 -11.5t129 -31.5t65.5 -49t18.5 -62q0 -47 -31 -75.5t-72 -28.5q-29 0 -58.5 11t-45.5 28q-23 20 -45.5 36.5t-54 28t-74.5 16.5t-102 5q-14 0 -36 -2t-45.5 -4 t-44 -6.5t-32.5 -6.5q-49 -12 -79 -25t-45 -38t-19.5 -66t-4.5 -108v-184h441q29 0 45 -18.5t16 -47.5t-16.5 -47.5t-44.5 -18.5h-441v-368q0 -35 5.5 -54.5t21.5 -29.5t50 -13.5t89 -3.5q88 0 159 7.5t127 20.5t103 30.5t88 38.5q28 14 48 14q61 0 61 -59 q0 -29 -14.5 -47.5t-51.5 -38.5q-35 -18 -90 -37t-127.5 -32t-156.5 -22.5t-174 -9.5q-121 0 -192 10.5t-105.5 34t-44 61.5t-9.5 95z" />
<glyph unicode="F" horiz-adv-x="1206" d="M143 57v805q0 94 13.5 159.5t47.5 110t90 70t144 43.5q37 8 78 14.5t80 10.5t72.5 7t54.5 3q127 0 209 -11.5t129 -31.5t65.5 -49t18.5 -62q0 -47 -31 -75.5t-72 -28.5q-29 0 -58.5 11t-45.5 28q-23 20 -45.5 36.5t-54 28t-74.5 16.5t-102 5q-14 0 -36 -2t-45.5 -4 t-44 -6.5t-32.5 -6.5q-49 -12 -79 -25t-45 -38t-19.5 -66t-4.5 -108v-184h441q29 0 45 -18.5t16 -47.5t-16.5 -47.5t-44.5 -18.5h-441v-518q0 -39 -26.5 -62.5t-79.5 -23.5t-80 23.5t-27 62.5z" />
<glyph unicode="G" horiz-adv-x="1617" d="M82 430q0 106 35 210.5t98.5 200t153.5 175.5t199.5 139t237.5 93t265 34q186 0 305 -49t174 -121q27 -33 27 -78q0 -43 -35 -73.5t-90 -30.5q-29 0 -57.5 15.5t-51.5 41.5q-68 82 -156.5 118t-207.5 36q-139 0 -259 -52.5t-208 -141.5t-139 -204.5t-51 -242.5 q0 -82 31.5 -151.5t88 -122t135 -82t173.5 -29.5q123 0 223 43t170.5 99t108.5 109.5t38 73.5q0 18 -26 19h-416q-53 0 -53 73q0 70 53 70h526q59 0 85 -24.5t26 -65.5q0 -43 -29 -99.5t-79 -116.5t-120.5 -118.5t-154.5 -104.5t-179.5 -74t-195.5 -28q-162 0 -282.5 34 t-201.5 95.5t-121 145.5t-40 184z" />
<glyph unicode="H" horiz-adv-x="1378" d="M143 57v1129q0 39 27 62.5t80 23.5t79.5 -23.5t26.5 -62.5v-445h666v445q0 39 26.5 62.5t79.5 23.5t80 -23.5t27 -62.5v-1129q0 -39 -26.5 -62.5t-80.5 -23.5q-53 0 -79.5 23.5t-26.5 62.5v553h-666v-553q0 -39 -26.5 -62.5t-79.5 -23.5t-80 23.5t-27 62.5z" />
<glyph unicode="I" horiz-adv-x="479" d="M133 57v1129q0 39 26.5 62.5t80.5 23.5q53 0 79.5 -23.5t26.5 -62.5v-1129q0 -39 -26.5 -62.5t-79.5 -23.5t-80 23.5t-27 62.5z" />
<glyph unicode="J" horiz-adv-x="1155" d="M20 231q0 63 35 103.5t88 40.5q94 0 95 -82q2 -100 54 -147.5t148 -47.5q92 0 163 35t119 93.5t72.5 137t24.5 166.5v656q0 39 26.5 62.5t80.5 23.5q53 0 79.5 -23.5t26.5 -62.5v-604q0 -113 -45 -222.5t-131 -195.5t-210 -139.5t-279 -53.5q-78 0 -141.5 20.5 t-109.5 55.5t-71 82t-25 102z" />
<glyph unicode="K" horiz-adv-x="1185" d="M143 57v1129q0 39 27 62.5t80 23.5t79.5 -23.5t26.5 -62.5v-508q41 135 107.5 245.5t147.5 187.5t171 119t179 42q96 0 140 -27.5t44 -77.5q0 -49 -21.5 -75.5t-50.5 -26.5q-18 0 -29.5 3t-25.5 9q-41 18 -72 25.5t-72 7.5q-68 0 -137 -45t-125.5 -112.5t-92.5 -148.5 t-36 -153q0 -78 45 -157.5t122 -149.5t179.5 -121t217.5 -71q53 -10 72.5 -30t19.5 -61q0 -37 -29 -61.5t-82 -24.5q-117 0 -227.5 52.5t-200.5 144.5t-154.5 217t-89.5 270v-602q0 -39 -26.5 -62.5t-79.5 -23.5t-80 23.5t-27 62.5z" />
<glyph unicode="L" horiz-adv-x="970" d="M123 287q0 53 9 109.5t9 109.5v688q0 35 28 56.5t79 21.5q53 0 79.5 -21.5t26.5 -56.5v-770q0 -88 5.5 -145.5t24.5 -90t58 -45t105 -12.5h340q25 0 39 -18.5t14 -46.5q0 -29 -14.5 -47.5t-38.5 -18.5h-455q-166 0 -237.5 79t-71.5 208z" />
<glyph unicode="M" horiz-adv-x="1400" d="M143 57v1129q0 39 27 62.5t80 23.5t79.5 -23.5t26.5 -62.5v-170q10 -76 44 -160t82 -154.5t105.5 -117.5t112.5 -47q68 0 130.5 55t110.5 137t75.5 177t27.5 175v105q0 39 27 62.5t80 23.5t79.5 -23.5t26.5 -62.5v-1129q0 -39 -26.5 -62.5t-79.5 -23.5t-80 23.5t-27 62.5 v666q-27 -70 -60.5 -130.5t-76.5 -105.5t-95 -70.5t-116 -25.5q-84 0 -142 29t-98 69.5t-63.5 87t-36.5 80.5v-600q0 -39 -26.5 -62.5t-79.5 -23.5t-80 23.5t-27 62.5z" />
<glyph unicode="N" horiz-adv-x="1513" d="M143 57v1129q0 39 27 62.5t80 23.5t79.5 -23.5t26.5 -62.5l2 -113q2 -217 43 -394t109 -304t158 -196.5t190 -69.5q74 0 134.5 25.5t104.5 78.5t67.5 137t23.5 199q0 129 -43 265t-129 267q-29 45 -39 71t-10 44q0 35 34.5 59.5t77.5 24.5q39 0 70 -20.5t84 -85.5 q78 -104 123 -252t45 -322q0 -129 -43 -243.5t-118 -199.5t-177 -135.5t-221 -50.5q-193 0 -323 130t-171 368v-412q0 -39 -26.5 -62.5t-75.5 -23.5t-76 23.5t-27 62.5z" />
<glyph unicode="O" horiz-adv-x="1742" d="M82 440q0 168 80 320.5t214 268.5t309.5 184.5t365.5 68.5q137 0 249.5 -34t192.5 -95t124 -147t44 -189q0 -98 -34 -198.5t-95.5 -194.5t-149.5 -176t-196.5 -143.5t-234.5 -97.5t-263 -36q-143 0 -256 33t-190.5 94.5t-118.5 148.5t-41 193zM324 510q0 -96 30.5 -170 t87 -124t136 -76.5t176.5 -26.5q147 0 270 53t212 141t138 198.5t49 227.5q0 92 -33.5 168t-94 129t-143.5 82t-183 29q-133 0 -251 -49.5t-206 -134.5t-138 -200.5t-50 -246.5z" />
<glyph unicode="P" horiz-adv-x="1275" d="M143 57v887q0 61 8.5 106.5t34 78t73.5 57t126 47.5q31 8 75 17.5t91 16.5t91 11t79 4q244 0 358.5 -86t114.5 -221q0 -96 -44 -186.5t-128 -160t-207 -112.5t-278 -43q-39 0 -87.5 4t-93.5 12v-432q0 -35 -26.5 -56t-77.5 -21t-80 21.5t-29 55.5zM356 600q35 -6 83 -9 t96 -3q233 0 338.5 94t105.5 256q0 111 -78 169t-223 58q-41 0 -87 -5t-79 -13q-53 -12 -85 -25.5t-47 -35t-19.5 -55.5t-4.5 -91v-340z" />
<glyph unicode="Q" horiz-adv-x="1742" d="M82 440q0 168 80 320.5t214 268.5t309 184.5t366 68.5q137 0 249.5 -34t192.5 -95t124 -147t44 -189q0 -162 -88 -324.5t-242 -289.5l205 -107q27 -14 38 -33.5t11 -42.5q0 -41 -32.5 -76.5t-77.5 -35.5q-25 0 -54 16l-266 162q-104 -53 -221 -84t-246 -31 q-143 0 -256 33t-190.5 94.5t-118.5 148.5t-41 193zM324 510q0 -96 30.5 -170t87 -124t136 -76.5t176.5 -26.5q145 0 270 53l-180 113q-27 18 -27 49q0 33 25.5 63.5t60.5 30.5q18 0 33 -8l262 -140q106 90 165.5 210t59.5 249q0 92 -33.5 168t-94 129t-143.5 82t-183 29 q-133 0 -251 -49.5t-206 -134.5t-138 -200.5t-50 -246.5z" />
<glyph unicode="R" horiz-adv-x="1329" d="M143 57v887q0 61 8.5 106.5t34 78t73.5 57t126 47.5q31 8 75 17.5t91 16.5t91 11t79 4q244 0 358.5 -86t114.5 -221q0 -72 -27.5 -137.5t-80 -119.5t-128 -93t-174.5 -58q88 -14 168 -64t141.5 -121t97.5 -155t36 -166q0 -41 -28 -63.5t-81 -22.5t-77.5 22.5t-28.5 61.5 q-8 100 -50 183.5t-103.5 143.5t-138.5 94t-153 34h-41q-39 0 -84 3t-86 9v-469q0 -35 -26.5 -56t-77.5 -21t-80 21.5t-29 55.5zM356 637q35 -6 83 -7t96 -1q233 0 338.5 82t105.5 227q0 104 -75 165.5t-226 61.5q-41 0 -87 -5t-79 -13q-53 -12 -85 -25.5t-47 -35 t-19.5 -55.5t-4.5 -91v-303z" />
<glyph unicode="S" horiz-adv-x="1427" d="M63 348q0 59 32 94t83 35t80 -26.5t53 -104.5q14 -49 50 -92t86.5 -75t112.5 -51t132 -19q100 0 177 19t129.5 52t79 75t26.5 87q0 29 -7 50.5t-28.5 39t-61.5 33.5t-106 35l-401 118q-152 45 -213.5 117t-61.5 185q0 76 39 142t114 115.5t185.5 77t255.5 27.5 q92 0 188.5 -17.5t176.5 -50t130 -76.5t50 -98q0 -41 -34 -73.5t-97 -32.5q-41 0 -72 14.5t-47 34.5q-72 86 -160 125t-204 39q-141 0 -218 -60.5t-77 -144.5q0 -59 38.5 -97t147.5 -69l436 -125q74 -23 124 -48t81 -57t43 -72t12 -89q0 -68 -48 -140.5t-134 -133 t-207 -100.5t-266 -40q-141 0 -256 29t-194.5 79t-124 119.5t-44.5 149.5z" />
<glyph unicode="T" horiz-adv-x="1163" d="M41 1192q0 76 63 76h955q63 0 63 -76t-63 -76h-371v-1059q0 -39 -26.5 -62.5t-79.5 -23.5t-80 23.5t-27 62.5v1059h-371q-63 0 -63 76z" />
<glyph unicode="U" horiz-adv-x="1329" d="M123 430q0 98 5 184t14.5 172t23.5 176.5t35 198.5q14 78 104 78q49 0 73.5 -21.5t24.5 -58.5q0 -16 -10 -94t-23.5 -180.5t-23.5 -210t-10 -182.5q0 -109 17.5 -180.5t54 -116.5t91 -63.5t128.5 -18.5q90 0 161.5 43t122 119.5t77 179t26.5 223.5q0 213 -111 420 q-10 20 -17 41.5t-7 46.5q0 41 33.5 67.5t80.5 26.5q96 0 148 -94q37 -70 56.5 -181.5t19.5 -228.5q0 -174 -49.5 -321.5t-137.5 -255t-206.5 -168t-258.5 -60.5q-238 0 -340 120t-102 339z" />
<glyph unicode="V" horiz-adv-x="1247" d="M43 1161q-1 9 -1 17q0 18 6 34q9 22 26.5 37t40 22t47.5 7q35 0 64.5 -16.5t37.5 -51.5q61 -254 107.5 -434t80 -302t58.5 -192.5t44 -107.5t33.5 -47t30.5 -10q41 0 72 51t71 177t97 339t154 537q10 31 29 43t46 12q23 0 45.5 -7t39.5 -21q18 -12 27 -34q5 -13 5 -28 q0 -10 -2 -21q-57 -250 -108.5 -435t-100.5 -317t-97 -217t-100.5 -133.5t-109.5 -67t-123 -18.5q-172 0 -295 290t-225 894z" />
<glyph unicode="W" horiz-adv-x="1796" d="M123 487q0 111 3 198t9 166t15.5 152.5t21.5 155.5q10 57 33.5 81t66.5 24q55 0 81 -29q23 -25 23 -59q0 -5 -1 -11q-10 -123 -16.5 -220t-10.5 -174t-6 -136.5t-2 -106.5q0 -121 12.5 -199.5t34 -124.5t53 -63.5t68.5 -17.5q49 0 99 47t90 129t65.5 191.5t25.5 236.5 q0 160 -67 313q-12 29 -14 48.5t-2 41.5q0 39 31.5 69t72.5 30t77 -26.5t62.5 -74t42 -115t15.5 -149.5q0 -55 -6.5 -101t-14.5 -92t-14 -94.5t-6 -105.5q0 -100 15 -166.5t41 -106.5t61.5 -56.5t76.5 -16.5q55 0 109.5 42t97.5 117.5t69.5 181t26.5 230.5q0 186 -94 377 q-12 25 -16 46.5t-4 47.5q0 39 36.5 69t90.5 30q37 0 73.5 -29t66.5 -85t49 -139t19 -190q0 -184 -45 -339.5t-124.5 -269.5t-187 -178.5t-232.5 -64.5q-55 0 -101.5 26t-80 72t-53 111.5t-19.5 145.5q-66 -168 -175.5 -261.5t-232.5 -93.5q-63 0 -119.5 30t-98.5 93.5 t-66.5 160.5t-24.5 232z" />
<glyph unicode="X" horiz-adv-x="1269" d="M20 1157q0 59 30 88t112 29q104 0 182 -41t135.5 -113.5t93 -173t58.5 -219.5q20 117 59 217t97.5 173t138.5 114t184 41q76 0 107.5 -26.5t31.5 -82.5q0 -53 -20.5 -83.5t-52.5 -30.5q-23 0 -40.5 5t-33 12t-31.5 12t-39 5q-47 0 -98 -33.5t-93 -89t-70 -127t-28 -147.5 q0 -92 31 -179t86 -157.5t133 -120t172 -63.5q80 -12 80 -98q0 -37 -22.5 -62.5t-61.5 -25.5q-121 0 -214 57t-159.5 152.5t-105.5 220.5t-51 260q-10 -133 -47 -257t-101.5 -220.5t-157 -154.5t-210.5 -58q-47 0 -69.5 24.5t-22.5 65.5t17 64.5t62 31.5q96 16 174 65.5 t133.5 120t85 156.5t29.5 178q0 72 -26.5 143.5t-68.5 128t-94 92t-102 35.5q-23 0 -39 -6t-31.5 -12t-32.5 -12t-40 -6q-70 0 -70 108z" />
<glyph unicode="Y" horiz-adv-x="1277" d="M20 1157q0 35 15.5 54.5t38 29.5t47 13t41.5 3q104 0 189 -53t147.5 -152.5t99.5 -241.5t47 -321q12 178 45 320.5t91.5 242t141.5 152.5t193 53q68 0 104.5 -27.5t36.5 -70.5q0 -57 -19 -83.5t-50 -26.5q-18 0 -34.5 7t-32 15t-33 15.5t-37.5 7.5q-35 0 -72 -41 t-71 -107.5t-64.5 -153.5t-53 -178.5t-36 -180.5t-13.5 -161v-215q0 -39 -26.5 -62.5t-79.5 -23.5t-80 23.5t-27 62.5v215q0 72 -13 161t-36.5 180.5t-54.5 177.5t-65.5 153.5t-69.5 108.5t-68 41q-18 0 -35.5 -7.5t-34 -15.5t-35 -15t-36.5 -7q-29 0 -44.5 31.5t-15.5 76.5 z" />
<glyph unicode="Z" horiz-adv-x="1163" d="M61 92q0 43 66 133t170 215l559 676h-301q-94 0 -146.5 -15.5t-78 -39t-34.5 -51t-19.5 -51t-29 -39t-63.5 -15.5q-53 0 -73.5 29t-20.5 94q0 49 20.5 93t65.5 76t118 51.5t177 19.5h463q72 0 101.5 -23.5t29.5 -77.5q0 -47 -26.5 -88t-65.5 -88l-688 -844h313 q88 0 137 17.5t76 42t39 55.5t24.5 55.5t34 42t66.5 17.5q68 0 97.5 -34t29.5 -97q0 -43 -33 -87t-94.5 -80t-149.5 -57.5t-196 -21.5h-447q-66 0 -93.5 22.5t-27.5 69.5z" />
<glyph unicode="[" horiz-adv-x="749" d="M143 -492v2073q0 35 25 58.5t78 23.5h301q59 0 59 -68q0 -70 -59 -69h-197v-1962h197q59 0 59 -68q0 -70 -59 -69h-301q-53 0 -78 23.5t-25 57.5z" />
<glyph unicode="\" horiz-adv-x="782" d="M2 1391q0 51 74 79q31 12 57 13q49 0 68 -47l571 -1389q4 -10 6 -18.5t2 -16.5q0 -49 -71 -80q-31 -14 -58 -14q-49 0 -69 49l-572 1389q-4 10 -6 18t-2 17z" />
<glyph unicode="]" horiz-adv-x="749" d="M143 -504q0 68 60 68h196v1962h-196q-59 0 -60 69q0 68 60 68h301q53 0 77.5 -23.5t24.5 -58.5v-2073q0 -35 -24.5 -58t-77.5 -23h-301q-59 0 -60 69z" />
<glyph unicode="^" horiz-adv-x="1089" d="M86 811q0 16 10 33l393 565q25 29 56 29q33 0 55 -29l393 -565q10 -16 11 -33q0 -35 -35 -59q-27 -16 -49 -17q-31 0 -46 25l-329 489l-330 -489q-16 -25 -45 -25q-23 0 -49 17q-35 25 -35 59z" />
<glyph unicode="_" horiz-adv-x="1312" d="M102 -541q0 63 60 64h989q59 0 59 -64q0 -66 -59 -65h-989q-59 0 -60 65z" />
<glyph unicode="`" horiz-adv-x="358" d="M41 1198q0 29 26.5 51.5t63.5 22.5q29 0 46.5 -10.5t33.5 -36.5l92 -166q10 -18 12 -26.5t2 -14.5q0 -25 -23.5 -42.5t-53.5 -17.5q-45 0 -78 50l-109 155q-12 14 -12 35z" />
<glyph unicode="a" horiz-adv-x="1265" d="M82 242q0 106 57.5 211.5t155.5 190.5t226.5 137.5t269.5 52.5q184 0 268 -70t84 -182q0 -35 -11.5 -70t-11.5 -63v-388q0 -35 -23.5 -58t-76.5 -23q-55 0 -78.5 23.5t-23.5 57.5v138q-92 -104 -217.5 -166t-266.5 -62q-186 0 -269 73t-83 198zM301 315q0 -96 54.5 -148 t154.5 -52q86 0 162 33.5t132 89t90 127t34 149.5q0 90 -56.5 144.5t-152.5 54.5q-90 0 -166 -34t-132 -89t-88 -127t-32 -148z" />
<glyph unicode="b" horiz-adv-x="1265" d="M123 242q0 47 11 74.5t11 66.5v973q0 35 24 58.5t77 23.5q55 0 78.5 -23.5t23.5 -58.5v-754q84 111 215 171.5t277 60.5q184 0 264 -75t80 -200q0 -104 -57.5 -209.5t-155 -189.5t-225.5 -136.5t-267 -52.5q-92 0 -159.5 21.5t-110.5 58.5t-64.5 86t-21.5 105zM338 311 q0 -90 56.5 -144t152.5 -54q88 0 164.5 32.5t133 87t88.5 125t32 148.5q0 98 -52.5 151.5t-150.5 53.5q-86 0 -163 -34t-135 -89.5t-92 -128t-34 -148.5z" />
<glyph unicode="c" horiz-adv-x="1157" d="M82 248q0 106 58.5 211.5t153.5 188.5t218 134.5t252 51.5q176 0 264 -56.5t88 -136.5q0 -39 -22.5 -66.5t-71.5 -27.5q-41 0 -63.5 12t-38 29.5t-28.5 39t-34.5 39t-57.5 30t-95 12.5q-86 0 -160 -33t-128.5 -88.5t-85 -126t-30.5 -146.5q0 -92 53.5 -146t145.5 -54 q96 0 179 32.5t148 92.5q30 28 56 28h2q25 0 42 -17.5t17 -39.5q0 -10 -4 -21.5t-18 -23.5q-78 -78 -207 -136.5t-295 -58.5t-252 75t-86 202z" />
<glyph unicode="d" horiz-adv-x="1112" d="M82 250q0 113 52 218t136 186t189.5 130.5t210.5 49.5q29 0 54.5 -1.5t41.5 -3.5v527q0 35 23.5 58.5t76.5 23.5q55 0 79 -23.5t24 -58.5v-1053q0 -29 4 -46t4 -30q0 -16 -13.5 -31.5t-54.5 -45.5q-51 -39 -112.5 -72t-125 -56.5t-126 -37t-115.5 -13.5q-176 0 -262 75 t-86 204zM291 313q0 -94 51 -148t123 -54q66 0 139.5 22.5t157.5 75.5q4 43 5 89t1 103v320q-23 4 -43 6t-55 2q-74 0 -141.5 -31.5t-121 -88t-85 -132.5t-31.5 -164z" />
<glyph unicode="e" horiz-adv-x="1167" d="M82 240q0 106 57.5 212.5t154.5 190.5t225.5 137.5t271.5 53.5q174 0 254.5 -59.5t80.5 -145.5q0 -100 -70.5 -171t-240.5 -100l-510 -86q0 -76 42 -119.5t155 -43.5q102 0 189 24.5t167 63.5q37 18 57 18q47 0 48 -57q0 -35 -43 -58q-238 -129 -478 -129 q-96 0 -164.5 20.5t-111.5 56.5t-63.5 85t-20.5 107zM307 395l447 72q102 16 134 47t32 78q0 49 -49.5 87t-147.5 38q-72 0 -141.5 -26.5t-126 -72t-96.5 -103.5t-52 -120z" />
<glyph unicode="f" horiz-adv-x="927" d="M0 743q0 63 59 64h93v20q0 25 -7.5 47.5t-7.5 49.5q0 78 57.5 168t149.5 166.5t207 128t231 51.5q72 0 109 -30t37 -81q0 -76 -32 -113.5t-77 -37.5q-41 0 -66.5 18t-25.5 53t-16.5 51.5t-57.5 16.5q-51 0 -104 -33t-96 -88t-71 -129t-28 -154v-104h260q59 0 60 -64 q0 -65 -58 -65h-2h-260v-617q0 -35 -23.5 -58t-78.5 -23q-53 0 -76.5 23.5t-23.5 57.5v617h-93q-59 0 -59 65z" />
<glyph unicode="g" horiz-adv-x="1267" d="M82 -414q0 55 29.5 89t72.5 34q37 0 56.5 -15.5t32 -38t24.5 -48t34.5 -48t60.5 -38t102 -15.5q94 0 171.5 31t134 85t88.5 131t32 169v277q-92 -104 -217 -166t-267 -62q-186 0 -269 73t-83 198q0 106 57.5 211.5t155.5 190.5t226 137.5t270 52.5q184 0 268 -70t84 -182 q0 -35 -11.5 -70t-11.5 -63v-394q0 -33 6.5 -55.5t6.5 -46.5q0 -104 -56.5 -208.5t-153 -188.5t-226.5 -136.5t-279 -52.5q-168 0 -253 64.5t-85 154.5zM303 315q0 -96 54.5 -148t154.5 -52q86 0 162 33.5t132 89t90 127t34 149.5q0 90 -56.5 144.5t-152.5 54.5 q-90 0 -166 -34t-132 -89t-88 -127t-32 -148z" />
<glyph unicode="h" horiz-adv-x="1288" d="M143 57v1299q0 35 23.5 58.5t75.5 23.5q100 0 100 -76v-795q82 129 204 198t288 69q180 0 266 -72t86 -189q0 -63 -22.5 -137t-62.5 -149.5t-97.5 -148t-124.5 -132.5q-23 -23 -40.5 -29t-37.5 -6q-27 0 -46.5 19.5t-19.5 40.5q0 10 4 21t21 28q49 51 87 109.5 t63.5 114.5t40 107.5t14.5 92.5q0 106 -54.5 157.5t-152.5 51.5q-78 0 -153 -35t-132 -97.5t-92 -147.5t-35 -185v-191q0 -35 -23.5 -58.5t-78.5 -23.5q-53 0 -77 24t-24 58z" />
<glyph unicode="i" horiz-adv-x="493" d="M127 1098v78q0 35 28.5 60.5t90.5 25.5q59 0 89 -26t30 -60v-78q0 -35 -30 -60.5t-89 -25.5q-61 0 -90 25.5t-29 60.5zM143 61v682q0 35 25 58.5t78 23.5q55 0 79.5 -23.5t24.5 -58.5v-682q0 -35 -24.5 -58t-79.5 -23q-53 0 -78 23.5t-25 57.5z" />
<glyph unicode="j" horiz-adv-x="489" d="M-162 -434q0 59 26.5 91t67.5 32q53 0 70.5 -29t25 -62.5t18.5 -62.5t54 -29q39 0 59.5 28t20.5 99q0 59 -6 112.5t-12 109t-12.5 115t-6.5 132.5v641q0 35 23.5 58.5t77.5 23.5q55 0 78.5 -23.5t23.5 -58.5v-653q0 -49 6 -98t14.5 -95.5t14.5 -87t6 -73.5 q0 -76 -18.5 -142.5t-57.5 -116.5t-99 -80t-142 -30q-45 0 -87 14.5t-74 40t-51.5 62.5t-19.5 82zM125 1098v78q0 35 28.5 60.5t90.5 25.5q59 0 88.5 -26t29.5 -60v-78q0 -35 -29.5 -60.5t-88.5 -25.5q-61 0 -90 25.5t-29 60.5z" />
<glyph unicode="k" horiz-adv-x="931" d="M143 61v1295q0 35 23.5 58.5t77.5 23.5q55 0 78.5 -23.5t23.5 -58.5l-6 -821q20 55 64.5 108t102.5 95t128 66.5t141 24.5q74 0 104.5 -25.5t30.5 -66.5q0 -92 -69 -92q-20 0 -38 5t-36 12.5t-39.5 12.5t-50.5 5q-49 0 -92 -17.5t-75 -45t-49.5 -64.5t-17.5 -76 q0 -53 35 -104t89.5 -94t119 -74t125.5 -41q53 -10 71.5 -29.5t18.5 -66.5q0 -39 -24.5 -68t-73.5 -29q-76 0 -155 39t-144.5 106.5t-112.5 157.5q-45 88 -53 189l6 -402q0 -35 -23.5 -58t-78.5 -23q-53 0 -77 23.5t-24 57.5z" />
<glyph unicode="l" horiz-adv-x="493" d="M143 61v1295q0 35 25 58.5t78 23.5q55 0 79.5 -23.5t24.5 -58.5v-1295q0 -35 -24.5 -58t-79.5 -23q-53 0 -78 23.5t-25 57.5z" />
<glyph unicode="m" horiz-adv-x="1576" d="M143 57v676q0 35 22.5 58.5t74.5 23.5q53 0 75.5 -23.5t22.5 -58.5v-162q49 143 124.5 203t186.5 60q96 0 151.5 -61.5t59.5 -178.5q66 129 145.5 184.5t190.5 55.5q70 0 120 -21.5t83 -59.5t49 -88.5t16 -107.5q0 -63 -17 -140t-47 -154t-70 -145.5t-87 -115.5 q-23 -23 -41 -29t-39 -6q-27 0 -46 18.5t-19 39.5q0 10 5 21t21 32q23 31 44.5 78t39 104t27.5 120.5t10 123.5q0 209 -131 209q-47 0 -91 -36t-79 -98.5t-56.5 -147.5t-21.5 -185v-189q0 -35 -23.5 -58.5t-78.5 -23.5q-53 0 -76.5 24t-23.5 58v475q0 100 -21.5 140.5 t-69.5 40.5q-41 0 -80.5 -37t-72.5 -99.5t-53.5 -147.5t-20.5 -181v-191q0 -35 -23.5 -58.5t-78.5 -23.5q-53 0 -77 24t-24 58z" />
<glyph unicode="n" horiz-adv-x="1288" d="M143 57v676q0 35 22.5 58.5t74.5 23.5q53 0 75.5 -23.5t22.5 -58.5v-168q166 268 496 269q180 0 266 -72t86 -189q0 -63 -22.5 -137t-62.5 -149.5t-97.5 -148t-124.5 -132.5q-23 -23 -40.5 -29t-37.5 -6q-27 0 -46.5 19.5t-19.5 40.5q0 10 4 21t21 28q49 51 87 109.5 t63.5 114.5t40 107.5t14.5 92.5q0 106 -54.5 157.5t-152.5 51.5q-78 0 -153 -35t-132 -97.5t-92 -147.5t-35 -185v-191q0 -35 -23.5 -58.5t-78.5 -23.5q-53 0 -77 24t-24 58z" />
<glyph unicode="o" horiz-adv-x="1224" d="M82 225q0 104 57.5 213t154.5 197t225 143.5t269 55.5q188 0 271.5 -70t83.5 -182q0 -104 -57.5 -212t-153.5 -197t-225 -145.5t-273 -56.5q-186 0 -269 71t-83 183zM303 309q0 -98 57.5 -153.5t155.5 -55.5q84 0 158 34t129 89.5t88 127t33 149.5q0 92 -59 148.5 t-163 56.5q-86 0 -158.5 -33t-125.5 -88.5t-84 -127t-31 -147.5z" />
<glyph unicode="p" horiz-adv-x="1193" d="M133 606q0 18 12.5 34.5t47.5 39.5q49 33 114.5 60.5t137 48t143 33t133.5 12.5q186 0 288.5 -77t102.5 -202q0 -102 -53 -204.5t-139 -185.5t-197 -134t-227 -51q-35 0 -78 4t-72 10v-545q0 -35 -23.5 -58.5t-78.5 -23.5q-53 0 -77 23.5t-24 58.5v1067q0 33 -5 53.5 t-5 36.5zM346 121q35 -16 65.5 -21.5t67.5 -5.5q88 0 164 33t132 89t89 131t33 159q0 104 -64.5 158.5t-181.5 54.5q-82 0 -159.5 -25.5t-141.5 -70.5q-4 -41 -4 -93v-409z" />
<glyph unicode="q" horiz-adv-x="1265" d="M82 242q0 106 57.5 211.5t155.5 190.5t226.5 137.5t269.5 52.5q184 0 268 -70t84 -182q0 -35 -11.5 -70t-11.5 -63v-1000q0 -35 -23.5 -58.5t-76.5 -23.5q-55 0 -78.5 23.5t-23.5 58.5v750q-92 -104 -217.5 -166t-266.5 -62q-186 0 -269 73t-83 198zM301 315 q0 -96 54.5 -148t154.5 -52q86 0 162 33.5t132 89t90 127t34 149.5q0 90 -56.5 144.5t-152.5 54.5q-90 0 -166 -34t-132 -89t-88 -127t-32 -148z" />
<glyph unicode="r" horiz-adv-x="997" d="M143 57v676q0 35 22.5 58.5t74.5 23.5q53 0 75.5 -23.5t22.5 -58.5v-229q59 172 160.5 251t214.5 79q117 0 185.5 -50.5t68.5 -111.5q0 -43 -29 -74t-78 -31q-70 0 -108 60q-23 35 -48.5 49t-60.5 14q-47 0 -99 -47t-96.5 -122t-73 -170t-28.5 -189v-105 q0 -35 -23.5 -58.5t-78.5 -23.5q-53 0 -77 24t-24 58z" />
<glyph unicode="s" horiz-adv-x="1034" d="M51 203q0 53 23.5 81.5t66.5 28.5q35 0 59.5 -19.5t45.5 -70.5q27 -68 78 -95.5t143 -27.5q111 0 167 41t56 84q0 31 -23.5 53.5t-84.5 40.5l-228 70q-88 27 -127 71t-39 101q0 53 28 102.5t84 87t139 60.5t194 23q166 0 258 -49.5t92 -108.5q0 -41 -27.5 -71t-76.5 -30 q-55 0 -82 31q-59 68 -105.5 91.5t-109.5 23.5q-80 0 -131.5 -36t-51.5 -83q0 -29 26 -51.5t97 -44.5l199 -62q96 -29 138 -72.5t42 -109.5q0 -45 -31.5 -96t-93 -94t-150.5 -72t-204 -29q-86 0 -155.5 19.5t-117 51.5t-73 74t-25.5 87z" />
<glyph unicode="t" horiz-adv-x="845" d="M61 743q0 63 60 64h92v182q0 35 23.5 58.5t76.5 23.5q55 0 79 -23.5t24 -58.5v-182h260q59 0 59 -64q0 -65 -57 -65h-2h-260v-377q0 -197 149 -197q53 0 89 8.5t71 24.5q16 8 29 8q23 0 37 -14t14 -37q0 -35 -35 -55q-55 -31 -126.5 -49.5t-139.5 -18.5t-125 18.5 t-98 51.5t-63.5 78t-22.5 98q0 47 9 74.5t9 66.5v320h-92q-59 0 -60 65z" />
<glyph unicode="u" horiz-adv-x="1288" d="M102 242q0 61 22.5 134t62.5 146.5t97.5 145t125.5 131.5q23 23 40 29t37 6q27 0 46.5 -19.5t19.5 -40.5q0 -10 -4 -21.5t-21 -27.5q-49 -53 -87 -109.5t-63.5 -113t-39.5 -107.5t-14 -92q0 -106 54 -158.5t152 -52.5q80 0 155 35t131 96.5t91 145.5t35 184v180 q0 35 23.5 58.5t78.5 23.5q53 0 77 -23.5t24 -58.5v-672q0 -35 -22.5 -58t-73.5 -23q-53 0 -76 23.5t-23 57.5v183q-84 -137 -203.5 -205t-271.5 -68q-186 0 -279.5 77t-93.5 194z" />
<glyph unicode="v" horiz-adv-x="1189" d="M123 221q0 100 30.5 241.5t90.5 301.5q12 31 31.5 45t56.5 14q31 0 53.5 -17.5t22.5 -45.5q0 -4 -1 -8t-1 -9q-39 -168 -56.5 -275.5t-17.5 -178.5q0 -78 43 -120t123 -42t147.5 28.5t116.5 78t75.5 116t26.5 142.5q0 47 -9 94t-32 106q-10 31 -10 49q0 33 34 63t87 30 q80 0 121 -70q43 -72 43 -168q0 -104 -50.5 -214t-137.5 -199t-206.5 -146t-261.5 -57q-166 0 -242.5 62t-76.5 179z" />
<glyph unicode="w" horiz-adv-x="1646" d="M123 205q0 51 8 118.5t24.5 142.5t39 152.5t53.5 151.5q25 53 88 53q39 0 60.5 -19.5t21.5 -47.5q0 -10 -2 -17q-23 -104 -39.5 -182t-26.5 -134t-14 -95t-4 -66q0 -74 25.5 -109.5t68.5 -35.5q59 0 115.5 32.5t100.5 86t70.5 124t26.5 148.5q0 80 -37 160q-14 29 -14 53 q0 29 33 53.5t82 24.5q37 0 67.5 -16.5t51.5 -51.5q20 -35 28 -74t8 -82q0 -49 -9 -90t-21.5 -77.5t-21.5 -71.5t-9 -70q0 -86 27.5 -119.5t83.5 -33.5q61 0 118.5 29.5t101.5 79.5t70.5 115.5t26.5 135.5q0 92 -47 215q-10 31 -10 49q0 31 34.5 57.5t86.5 26.5 q84 0 122 -69q43 -74 43 -170q0 -102 -50 -210t-133 -197t-191.5 -146.5t-225.5 -57.5q-92 0 -143 54.5t-51 150.5q-88 -102 -191.5 -153.5t-197.5 -51.5q-129 0 -188.5 64.5t-59.5 169.5z" />
<glyph unicode="x" horiz-adv-x="999" d="M72 698q0 47 37.5 80t85.5 33q57 0 100 -51l211 -260l244 278q33 35 73 35q35 0 62.5 -24.5t27.5 -59.5q0 -39 -41 -78l-272 -245l270 -203q31 -23 44.5 -48.5t13.5 -50.5q0 -45 -36 -77.5t-83 -32.5q-27 0 -52.5 12t-47.5 41l-213 262l-244 -280q-33 -35 -74 -35 q-35 0 -62.5 24.5t-27.5 59.5q0 39 41 78l270 243l-270 205q-57 43 -57 94z" />
<glyph unicode="y" horiz-adv-x="1300" d="M102 242q0 61 22.5 134t62.5 146.5t97.5 145t125.5 131.5q23 23 40 29t37 6q27 0 46.5 -19.5t19.5 -40.5q0 -10 -4 -21.5t-21 -27.5q-49 -53 -87 -109.5t-63.5 -113t-39.5 -107.5t-14 -92q0 -106 54 -158.5t152 -52.5q80 0 155 35t131 96.5t91 145.5t35 184v180 q0 35 23.5 58.5t78.5 23.5q53 0 77 -23.5t24 -58.5v-678q0 -33 6 -55.5t6 -46.5q0 -104 -56.5 -208.5t-152.5 -188.5t-226 -136.5t-280 -52.5q-168 0 -253 64.5t-85 154.5q0 55 30 89t73 34q37 0 56.5 -15.5t31.5 -38t24.5 -48t35 -48t60.5 -38t101 -15.5q94 0 173 31 t137.5 85t91 131t32.5 169v322q-84 -137 -203.5 -205t-271.5 -68q-186 0 -279.5 77t-93.5 194z" />
<glyph unicode="z" horiz-adv-x="978" d="M72 72q0 29 17 58.5t79 82.5l532 465h-266q-61 0 -95 -8t-51.5 -21.5t-25.5 -28t-16 -27.5t-24.5 -21.5t-49.5 -8.5q-43 0 -64.5 25.5t-21.5 70.5q0 63 60.5 105.5t211.5 42.5h461q53 0 70.5 -15.5t17.5 -52.5q0 -27 -12 -50t-47 -58l-561 -504h229q66 0 102.5 10 t57 25.5t31 33t21.5 33t28.5 25.5t52.5 10q43 0 68.5 -25.5t25.5 -70.5q0 -63 -84 -115.5t-244 -52.5h-409q-51 0 -72.5 18.5t-21.5 53.5z" />
<glyph unicode="{" horiz-adv-x="739" d="M20 545q0 35 15.5 55.5t44.5 20.5h20q29 0 48.5 28.5t19.5 91.5v207q0 96 18.5 191.5t55.5 183.5t90 166t121 139q23 23 40 29t37 6q27 0 46.5 -19.5t19.5 -39.5q0 -10 -4 -21.5t-21 -28.5q-98 -109 -144 -265t-46 -331v-122q0 -66 -18.5 -119t-46 -90t-60.5 -56.5 t-59 -21.5v-8q27 -2 59.5 -22.5t60 -57.5t46 -89.5t18.5 -117.5v-123q0 -174 46 -330.5t144 -265.5q16 -16 20.5 -27.5t4.5 -21.5q0 -20 -19.5 -39.5t-46.5 -19.5q-20 0 -37.5 6t-39.5 28q-68 61 -121 139t-90 166.5t-55.5 183.5t-18.5 191v207q0 63 -19.5 92t-48.5 29h-20 q-29 0 -44.5 20.5t-15.5 55.5z" />
<glyph unicode="|" horiz-adv-x="493" d="M143 -492v2073q0 35 25 58.5t78 23.5q55 0 79.5 -23.5t24.5 -58.5v-2073q0 -35 -24.5 -58t-79.5 -23q-53 0 -78 23.5t-25 57.5z" />
<glyph unicode="}" horiz-adv-x="739" d="M20 -514q0 10 4.5 21.5t20.5 27.5q98 109 144.5 265.5t46.5 330.5v123q0 66 18 118t46 89t59.5 57.5t60.5 22.5v8q-29 2 -60.5 21.5t-59.5 56.5t-46 90t-18 119v122q0 174 -46.5 331t-144.5 265q-16 16 -20.5 27.5t-4.5 22.5q0 20 19.5 39.5t46.5 19.5q20 0 37.5 -6 t40.5 -29q68 -61 121 -139t90 -166t55.5 -183.5t18.5 -191.5v-207q0 -63 19 -91.5t48 -28.5h21q29 0 44 -20.5t15 -55.5t-15.5 -55.5t-43.5 -20.5h-21q-29 0 -48 -28.5t-19 -92.5v-207q0 -96 -18.5 -191t-55.5 -183.5t-90.5 -166t-120.5 -139.5q-23 -23 -40.5 -28.5 t-37.5 -5.5q-27 0 -46.5 19t-19.5 40z" />
<glyph unicode="~" horiz-adv-x="735" d="M41 571q0 29 19.5 48.5t52.5 19.5q51 0 71 -43q8 -16 24.5 -25.5t47.5 -9.5t57.5 12.5t56 25.5t65.5 25.5t83 12.5q80 0 128 -34t48 -75q0 -27 -21.5 -49t-51.5 -22q-20 0 -39 9t-29 30q-10 23 -27.5 31t-52.5 8q-27 0 -55.5 -12.5t-60 -26t-66.5 -25.5t-74 -12 q-82 0 -129 33.5t-47 78.5z" />
<glyph unicode="&#xa1;" horiz-adv-x="493" d="M143 688v66q0 33 26 54t79 21t77.5 -21.5t24.5 -53.5v-66q0 -33 -24.5 -54.5t-77.5 -21.5t-79 21.5t-26 54.5zM150 -559l12 950q0 29 17.5 48.5t68.5 19.5t68.5 -19.5t17.5 -48.5l12 -950q0 -29 -23.5 -51.5t-74.5 -22.5t-74.5 22.5t-23.5 51.5z" />
<glyph unicode="&#xa2;" horiz-adv-x="1150" d="M82 248q0 76 30.5 152.5t85 146t127 127t158.5 96.5v182q0 33 22.5 53.5t69.5 20.5q49 0 71 -20.5t22 -53.5v-127q23 4 47 6.5t49 2.5q176 0 264 -56.5t88 -136.5q0 -39 -22.5 -66.5t-71.5 -27.5q-41 0 -63.5 12t-38 29.5t-28.5 39t-34.5 39t-57.5 30t-95 12.5 q-86 0 -160 -33t-128.5 -88.5t-85 -126t-30.5 -146.5q0 -92 53.5 -146t141.5 -54q78 0 159.5 31.5t151.5 93.5q35 29 57 28q25 0 42.5 -17.5t17.5 -39.5q0 -10 -4.5 -21.5t-18.5 -23.5q-45 -45 -108.5 -84t-139.5 -68v-164q0 -33 -21.5 -53t-70.5 -20q-47 0 -69.5 20.5 t-22.5 52.5v123q-12 0 -24.5 -1t-24.5 -1q-166 0 -252 75t-86 202z" />
<glyph unicode="&#xa3;" horiz-adv-x="1204" d="M43 528q0 47 51 82t146 35q18 0 35.5 -1t37.5 -3v72q0 25 -10 47t-10 49q0 86 32.5 170t106.5 151.5t193.5 109.5t294.5 42q96 0 144 -29.5t48 -81.5q0 -76 -30.5 -113.5t-75.5 -37.5q-41 0 -74 18.5t-33 53.5t-25.5 51t-72.5 16q-127 0 -211 -63.5t-84 -184.5 q0 -25 5 -49t5 -65v-197q49 -12 94 -12q41 0 58.5 13t28 30.5t23.5 31t48 13.5q29 0 48.5 -18.5t19.5 -45.5q0 -51 -50.5 -87t-146.5 -36q-31 0 -63.5 5.5t-67.5 11.5q-6 -41 -16.5 -75t-19.5 -61.5t-16 -53t-7 -52.5q0 -76 65.5 -94t194.5 -18h399q27 0 41 -24t14 -52 q0 -31 -14 -53.5t-41 -22.5h-514q-182 0 -269 67.5t-87 200.5q0 37 12 65.5t25.5 58.5t25.5 66t12 87q-16 2 -28.5 3t-22.5 1q-35 -4 -51 -17.5t-27.5 -30t-25 -28.5t-39.5 -12q-29 0 -52.5 19.5t-23.5 47.5z" />
<glyph unicode="&#xa4;" horiz-adv-x="1048" d="M143 358q0 23 19 39l49 49q-33 41 -33 103q0 66 31 130t84 120l-90 90q-16 20 -17 39q0 29 25 53q23 23 51 23q23 0 39 -17l102 -104q53 29 111.5 46t124.5 17q16 0 32.5 -1t33.5 -3l83 84q18 18 41 18q27 0 52 -24q23 -27 22 -51q0 -25 -16 -39l-49 -49q33 -39 32 -99 q0 -66 -31.5 -131t-84.5 -121l92 -90q18 -18 18 -41t-22 -49q-25 -25 -51 -24q-23 0 -41 18l-105 102q-53 -29 -112.5 -46t-124.5 -17h-35q-14 0 -29 4l-86 -86q-18 -18 -41 -18q-25 0 -49 24q-25 25 -25 51zM340 612q0 -57 36 -86.5t95 -29.5q47 0 90 18t77 49t53.5 72 t19.5 84q0 57 -37.5 86t-100.5 29q-47 0 -90 -18.5t-74.5 -49.5t-50 -71t-18.5 -83z" />
<glyph unicode="&#xa5;" horiz-adv-x="1277" d="M20 1157q0 35 15.5 54.5t38 29.5t47 13t41.5 3q100 0 184 -53t147.5 -152.5t102.5 -241.5t49 -321q12 178 47 320.5t94.5 242t141.5 152.5t188 53q68 0 104.5 -27.5t36.5 -70.5q0 -57 -19 -83.5t-50 -26.5q-18 0 -34.5 7t-32 15t-33 15.5t-37.5 7.5q-37 0 -75 -43 t-73 -114t-65.5 -161t-53.5 -184h170q29 0 44.5 -19.5t15.5 -48.5q0 -31 -15.5 -50t-44.5 -19h-198q-10 -59 -13 -109h211q29 0 44.5 -19.5t15.5 -47.5q0 -31 -15.5 -50.5t-44.5 -19.5h-213v-152q0 -39 -26.5 -62.5t-79.5 -23.5t-80 23.5t-27 62.5v152h-206 q-29 0 -44.5 19.5t-15.5 50.5q0 29 15.5 48t44.5 19h202q-2 27 -6 53.5t-8 55.5h-188q-29 0 -44.5 19.5t-15.5 49.5q0 29 15.5 48.5t44.5 19.5h159q-23 94 -54.5 184t-66 161t-70.5 114t-69 43q-18 0 -35.5 -7.5t-34 -15.5t-35 -15t-36.5 -7q-29 0 -44.5 31.5t-15.5 76.5z " />
<glyph unicode="&#xa6;" horiz-adv-x="493" d="M143 270q0 35 25 58.5t78 23.5q55 0 79.5 -23.5t24.5 -58.5v-762q0 -35 -24.5 -58t-79.5 -23q-53 0 -78 23.5t-25 57.5v762zM143 799v782q0 35 25 58.5t78 23.5q55 0 79.5 -23.5t24.5 -58.5v-782q0 -35 -24.5 -58.5t-79.5 -23.5q-53 0 -78 23.5t-25 58.5z" />
<glyph unicode="&#xa7;" horiz-adv-x="1306" d="M180 66q0 47 21.5 72.5t62.5 25.5q35 0 61.5 -19.5t49.5 -70.5q31 -68 80 -95.5t151 -27.5q111 0 160 51t49 123q0 68 -32.5 105.5t-92.5 58.5l-186 63q-63 20 -107.5 46t-71 58.5t-38 74.5t-11.5 96q0 88 50.5 158.5t146.5 105.5q-61 29 -105 92.5t-44 149.5 q0 63 25.5 118.5t78.5 97.5t132 65.5t188 23.5q166 0 261 -49.5t101 -108.5q0 -41 -24.5 -70.5t-75.5 -29.5q-55 0 -82 30q-61 68 -112.5 91.5t-115.5 23.5q-78 0 -123 -47t-45 -121q0 -59 32 -102t104 -68l206 -72q96 -35 146.5 -95t50.5 -154q0 -84 -52 -160t-145 -119 q63 -29 106.5 -87t43.5 -146q0 -59 -28.5 -119t-85 -107t-141.5 -76.5t-196 -29.5q-94 0 -166.5 20.5t-123 55t-77 77.5t-26.5 91zM487 653q0 -41 6.5 -67.5t21.5 -47t40 -33.5t63 -26l64 -20q178 16 178 172q0 74 -29.5 113.5t-87.5 56.5l-45 12q-20 4 -43 4 q-78 0 -123 -44t-45 -120z" />
<glyph unicode="&#xa8;" horiz-adv-x="647" d="M41 1110v68q0 31 25.5 53t78.5 22t78 -22.5t25 -52.5v-68q0 -31 -25 -53.5t-78 -22.5t-78.5 22.5t-25.5 53.5zM399 1112v68q0 31 25 53t78 22t78.5 -22.5t25.5 -52.5v-68q0 -31 -25.5 -53.5t-78.5 -22.5t-78 22.5t-25 53.5z" />
<glyph unicode="&#xa9;" horiz-adv-x="1546" d="M84 416q0 143 65.5 274t177 230.5t261 158t319.5 58.5q125 0 227.5 -32t175 -90.5t112.5 -138t40 -176.5q0 -129 -60.5 -259t-169 -234.5t-261 -170t-336.5 -65.5q-133 0 -235.5 32t-172 90.5t-106.5 140t-37 182.5zM254 461q0 -186 111.5 -283.5t320.5 -97.5 q129 0 239.5 49t192.5 130t129 183.5t47 206.5q0 180 -119.5 279.5t-332.5 99.5q-117 0 -223.5 -44t-187.5 -121t-129 -180t-48 -222zM387 446q0 78 43 155t112.5 138.5t160 99.5t186.5 38q129 0 192.5 -41t63.5 -101q0 -29 -15.5 -49t-52.5 -20q-45 0 -62.5 18t-33.5 41 t-44 41t-93 18q-61 0 -115.5 -24.5t-94.5 -64.5t-63.5 -91t-23.5 -106q0 -70 40 -109t105 -39q139 0 244 92q18 18 39 19q18 0 31.5 -12.5t13.5 -28.5q0 -31 -38 -61.5t-95.5 -56.5t-125 -42t-126.5 -16q-123 0 -185.5 55t-62.5 147z" />
<glyph unicode="&#xaa;" horiz-adv-x="1087" d="M82 70q0 29 15.5 48t43.5 19h805q29 0 44.5 -19.5t15.5 -47.5q0 -31 -15.5 -50.5t-44.5 -19.5h-805q-29 0 -44 19.5t-15 50.5zM82 768q0 92 50 184t135 166t196.5 119t234.5 45q160 0 234 -60.5t74 -158.5q0 -29 -10.5 -59.5t-10.5 -55.5v-338q0 -31 -20.5 -51t-67.5 -20 t-67.5 20.5t-20.5 50.5v119q-78 -92 -187.5 -144.5t-232.5 -52.5q-162 0 -234.5 62.5t-72.5 173.5zM276 834q0 -84 47.5 -128t133.5 -44q72 0 136 28.5t113.5 75.5t78 108.5t28.5 126.5q0 78 -48 125.5t-130 47.5q-76 0 -141.5 -29t-113.5 -76t-76 -108.5t-28 -126.5z" />
<glyph unicode="&#xab;" horiz-adv-x="921" d="M102 473q0 12 7.5 24.5t23.5 28.5l223 246q18 20 43 21q27 0 50 -23q27 -27 26 -53q0 -23 -14 -37l-199 -209l197 -207q14 -14 14 -35q0 -29 -27 -55q-23 -23 -49 -22q-25 0 -43 20l-221 246q-31 33 -31 55zM444 473q0 12 7.5 24.5t23.5 28.5l223 246q18 20 43 21 q27 0 50 -23q27 -27 26 -53q0 -23 -14 -37l-199 -209l197 -207q14 -14 14 -35q0 -29 -27 -55q-23 -23 -49 -22q-25 0 -43 20l-221 246q-31 33 -31 55z" />
<glyph unicode="&#xac;" horiz-adv-x="731" d="M61 524q0 29 15.5 48.5t44.5 19.5h489q25 0 42.5 -17.5t17.5 -44.5v-243q0 -29 -19.5 -44.5t-48.5 -15.5q-31 0 -50.5 15.5t-19.5 44.5v168h-411q-29 0 -44.5 19.5t-15.5 49.5z" />
<glyph unicode="&#xad;" horiz-adv-x="710" d="M61 524q0 29 15.5 48.5t44.5 19.5h469q29 0 44 -19.5t15 -48.5q0 -31 -15.5 -50t-43.5 -19h-469q-29 0 -44.5 19.5t-15.5 49.5z" />
<glyph unicode="&#xae;" horiz-adv-x="1263" d="M102 897q0 113 48.5 211t131.5 172t195.5 116t243.5 42q98 0 180 -26t139.5 -72t89 -110.5t31.5 -139.5q0 -102 -43 -199.5t-123 -174.5t-194.5 -124t-257.5 -47q-209 0 -325 96t-116 256zM236 934q0 -152 95 -224.5t242 -72.5q100 0 184.5 35t146 92t95 132t33.5 155 q0 70 -27.5 125t-76.5 93t-113.5 57.5t-138.5 19.5q-90 0 -171 -31t-140.5 -86t-94 -131t-34.5 -164zM436 795v327q0 29 9.5 52.5t34 41t67.5 26.5t110 9q92 0 134.5 -31.5t42.5 -84.5t-39 -97.5t-117 -56.5q37 -6 67.5 -24.5t53 -45t35 -58.5t12.5 -62q0 -35 -55 -35 q-29 0 -41.5 8t-14.5 24q-6 74 -47 116t-92 42q-8 0 -23.5 1t-29.5 5v-157q0 -37 -54 -37q-23 0 -38 9t-15 28zM543 1018q8 -2 17 -3t26 -1q72 0 104.5 26.5t32.5 73.5q0 68 -84 68q-33 0 -52.5 -2t-28.5 -11.5t-12 -26t-3 -42.5v-82z" />
<glyph unicode="&#xaf;" horiz-adv-x="636" d="M41 1149q0 66 59 65h437q59 0 59 -65q0 -68 -59 -68h-437q-59 0 -59 68z" />
<glyph unicode="&#xb0;" horiz-adv-x="937" d="M82 1040q0 72 37 142.5t99.5 128t146.5 92.5t178 35q123 0 177 -45t54 -119q0 -70 -36 -141.5t-99.5 -129t-147 -93.5t-180.5 -36q-123 0 -176 46.5t-53 119.5zM254 1104q0 -53 32.5 -85t88.5 -32q47 0 89 18.5t72.5 49t49 71.5t18.5 84q0 53 -34 84t-93 31 q-47 0 -88 -18.5t-70.5 -49t-47 -70.5t-17.5 -83z" />
<glyph unicode="&#xb1;" horiz-adv-x="710" d="M61 70q0 29 15.5 48t44.5 19h469q29 0 44 -19.5t15 -47.5q0 -31 -15.5 -50.5t-43.5 -19.5h-469q-29 0 -44.5 19.5t-15.5 50.5zM61 524q0 29 15.5 48.5t44.5 19.5h166v164q0 29 19.5 44t49.5 15q29 0 48.5 -15.5t19.5 -43.5v-164h166q29 0 44 -19.5t15 -48.5 q0 -31 -15.5 -50t-43.5 -19h-166v-148q0 -29 -19.5 -44t-48.5 -15q-31 0 -50 15.5t-19 43.5v148h-166q-29 0 -44.5 19.5t-15.5 49.5z" />
<glyph unicode="&#xb2;" horiz-adv-x="847" d="M123 567q0 20 7 31.5t36 30.5q100 70 167.5 133t107.5 118.5t56.5 100.5t16.5 82q0 86 -78 86q-41 0 -70.5 -19.5t-43.5 -54.5q-10 -25 -30 -39t-54 -14q-33 0 -55.5 18.5t-22.5 55.5q0 31 26.5 64.5t71.5 60t101.5 44t117.5 17.5q96 0 153.5 -52t57.5 -140 q0 -47 -22.5 -104.5t-62.5 -118t-95 -121t-121 -111.5h129q41 0 51.5 9t14.5 20q8 16 20 27t49 11q35 0 54.5 -22.5t19.5 -58.5q0 -55 -40 -88t-140 -33h-365q-35 0 -46 19.5t-11 47.5z" />
<glyph unicode="&#xb3;" horiz-adv-x="903" d="M123 639q0 43 24.5 68.5t59.5 25.5q43 0 56 -18.5t23.5 -40t29 -39t69.5 -17.5q96 0 153.5 46.5t57.5 117.5q0 41 -23.5 59.5t-52.5 18.5t-60.5 -13t-64.5 -13q-55 0 -55 57q0 41 14.5 54t57.5 20l49 6q51 6 80.5 37.5t29.5 70.5q0 33 -17 54.5t-52 21.5q-59 0 -83 -20.5 t-37 -45t-29.5 -45t-61.5 -20.5q-31 0 -54.5 17.5t-23.5 50.5q0 31 25.5 65.5t69.5 62t101.5 46t122.5 18.5q96 0 152.5 -43t56.5 -125q0 -39 -12 -83t-53 -79q53 -14 78.5 -52t25.5 -85q0 -57 -33.5 -115.5t-93 -106.5t-139.5 -78t-172 -30q-109 0 -164 45.5t-55 106.5z " />
<glyph unicode="&#xb4;" horiz-adv-x="358" d="M41 1018q0 6 2 14t12 27l92 166q14 27 32 37t48 10q37 0 63.5 -22.5t26.5 -51.5q0 -20 -12 -35l-108 -155q-35 -49 -78 -50q-33 0 -55.5 17.5t-22.5 42.5z" />
<glyph unicode="&#xb5;" horiz-adv-x="1288" d="M102 242q0 61 22.5 134t62.5 146.5t97.5 145t125.5 131.5q23 23 40 29t37 6q27 0 46.5 -19.5t19.5 -40.5q0 -10 -4 -21.5t-21 -27.5q-49 -53 -87 -109.5t-63.5 -113t-39.5 -107.5t-14 -92q0 -106 54 -158.5t152 -52.5q80 0 155 35t131 96.5t91 145.5t35 184v180 q0 35 23.5 58.5t78.5 23.5q53 0 77 -23.5t24 -58.5v-672q0 -35 -22.5 -58t-73.5 -23q-53 0 -76 23.5t-23 57.5v183q-84 -137 -206.5 -205t-237.5 -68q-49 0 -98.5 11.5t-85.5 27.5v-555q0 -35 -19.5 -58.5t-75.5 -23.5q-53 0 -72.5 23.5t-19.5 58.5v662q-33 53 -33 125z" />
<glyph unicode="&#xb6;" horiz-adv-x="1310" d="M31 981q0 84 41 166t111.5 146.5t163.5 104.5t200 40q160 0 235.5 -56.5t75.5 -148.5q0 -29 -9 -56.5t-9 -52.5v-1675q0 -35 -26 -58.5t-73 -23.5t-71.5 23.5t-24.5 58.5v1471q-72 -80 -162 -113t-182 -33q-127 0 -198.5 55.5t-71.5 151.5zM211 1036q0 -70 43 -106.5 t115 -36.5q57 0 109 20.5t92 58.5t63.5 90t23.5 116q0 72 -49 116.5t-121 44.5q-61 0 -112 -25.5t-87 -67.5t-56.5 -97t-20.5 -113zM973 -551v1886q0 35 24.5 58.5t71.5 23.5t72.5 -23.5t25.5 -58.5v-1886q0 -35 -25.5 -58.5t-72.5 -23.5t-71.5 23.5t-24.5 58.5z" />
<glyph unicode="&#xb7;" horiz-adv-x="452" d="M123 375v65q0 33 25.5 54.5t78.5 21.5t78 -21.5t25 -54.5v-65q0 -33 -25 -54.5t-78 -21.5t-78.5 21.5t-25.5 54.5z" />
<glyph unicode="&#xb8;" horiz-adv-x="1705" d="M344 -522q0 29 14.5 47t42.5 18q33 0 45.5 -11t23.5 -24.5t31.5 -24.5t69.5 -11q90 0 146.5 46t56.5 111q0 47 -27.5 76t-68.5 29t-76 -9.5t-63 -25.5q-29 -16 -50 -16q-20 0 -36 16q-18 14 -19 39q0 25 29 57l280 287q18 23 33 22q14 0 33 -18q23 -23 22 -35 q0 -8 -5 -16t-13 -19l-184 -198q18 8 45.5 11t44.5 3q211 0 211 -168q0 -57 -30 -110.5t-82 -95.5t-122.5 -66.5t-152.5 -24.5q-96 0 -147.5 32t-51.5 79z" />
<glyph unicode="&#xb9;" horiz-adv-x="636" d="M123 1112q0 37 51 64l195 94q27 14 55 14q47 0 68.5 -22.5t21.5 -63.5v-629q0 -33 -21.5 -54t-68.5 -21q-45 0 -65.5 21.5t-20.5 53.5v527l-98 -60q-23 -12 -41 -12q-23 0 -40.5 13.5t-25.5 35.5q-10 25 -10 39z" />
<glyph unicode="&#xba;" horiz-adv-x="1087" d="M82 70q0 29 15.5 48t43.5 19h805q29 0 44.5 -19.5t15.5 -47.5q0 -31 -15.5 -50.5t-44.5 -19.5h-805q-29 0 -44 19.5t-15 50.5zM84 754q0 92 50 185t134 170t195.5 125t234.5 48q164 0 236 -60.5t72 -158.5q0 -90 -49.5 -184.5t-134.5 -171t-196.5 -126t-236.5 -49.5 q-162 0 -233.5 61.5t-71.5 160.5zM281 827q0 -84 48 -131t134 -47q72 0 135.5 29t110.5 76t74.5 108.5t27.5 126.5q0 80 -50 128t-140 48q-72 0 -134.5 -28.5t-108.5 -75.5t-71.5 -107.5t-25.5 -126.5z" />
<glyph unicode="&#xbb;" horiz-adv-x="921" d="M104 717q0 27 27 53q23 23 49 23q25 0 43 -21l223 -246q16 -16 23.5 -28.5t7.5 -24.5q0 -23 -31 -55l-221 -246q-18 -20 -43 -20q-27 0 -49 22q-27 27 -27 55q0 20 15 35l196 207l-198 209q-14 14 -15 37zM446 717q0 27 27 53q23 23 49 23q25 0 43 -21l223 -246 q16 -16 23.5 -28.5t7.5 -24.5q0 -23 -31 -55l-221 -246q-18 -20 -43 -20q-27 0 -49 22q-27 27 -26 55q0 20 14 35l196 207l-198 209q-14 14 -15 37z" />
<glyph unicode="&#xbc;" horiz-adv-x="1943" d="M123 1112q0 37 51 64l195 94q27 14 55 14q47 0 68.5 -22.5t21.5 -63.5v-629q0 -33 -21.5 -54t-68.5 -21q-45 0 -65.5 21.5t-20.5 53.5v527l-98 -60q-23 -12 -41 -12q-23 0 -40.5 13.5t-25.5 35.5q-10 25 -10 39zM449 -10q0 23 20 53l762 1255q12 20 24.5 31.5t30.5 11.5 q10 0 23.5 -4t29.5 -14q47 -29 47 -61q0 -20 -20 -52l-762 -1255q-12 -20 -24.5 -32.5t-30.5 -12.5q-23 0 -55 20q-45 29 -45 60zM1178 401q0 37 14 81t38.5 89t57.5 89.5t72 80.5q33 25 63 25q25 0 43.5 -19.5t18.5 -39.5q0 -10 -3 -20.5t-16 -24.5q-53 -57 -82.5 -120 t-29.5 -106q0 -47 24.5 -69.5t67.5 -22.5q41 0 79 17.5t67.5 49t47 75.5t17.5 96v100q0 33 18.5 52.5t65.5 19.5q43 0 61.5 -19.5t18.5 -52.5v-639q0 -31 -18.5 -51.5t-59.5 -20.5q-43 0 -62.5 20.5t-19.5 51.5v285q-47 -47 -110.5 -76t-135.5 -29q-119 0 -178 51.5 t-59 126.5z" />
<glyph unicode="&#xbd;" horiz-adv-x="1894" d="M123 1112q0 37 51 64l195 94q27 14 55 14q47 0 68.5 -22.5t21.5 -63.5v-629q0 -33 -21.5 -54t-68.5 -21q-45 0 -65.5 21.5t-20.5 53.5v527l-98 -60q-23 -12 -41 -12q-23 0 -40.5 13.5t-25.5 35.5q-10 25 -10 39zM446 -10q0 12 6.5 25.5t16.5 27.5l762 1255 q12 20 24.5 32.5t30.5 12.5q20 0 53 -20q47 -29 47 -59q0 -23 -20 -54l-762 -1255q-10 -20 -22.5 -32.5t-32.5 -12.5q-23 0 -55 20q-47 29 -48 60zM1169 68q0 20 7.5 31.5t35.5 29.5q100 70 168 133.5t108 118.5t56.5 100t16.5 82q0 86 -78 86q-41 0 -71 -19.5t-44 -54.5 q-10 -25 -29.5 -39t-54.5 -14q-33 0 -55.5 18.5t-22.5 55.5q0 31 27 64.5t72 60.5t101 44t118 17q96 0 153.5 -52t57.5 -140q0 -47 -22.5 -104.5t-62.5 -118t-95.5 -121t-120.5 -111.5h129q41 0 51 9.5t14 19.5q8 16 20.5 27.5t49.5 11.5q35 0 54.5 -22.5t19.5 -59.5 q0 -55 -40 -88t-141 -33h-364q-35 0 -46.5 19.5t-11.5 48.5z" />
<glyph unicode="&#xbe;" horiz-adv-x="2004" d="M123 639q0 43 24.5 68.5t59.5 25.5q43 0 56 -18.5t23.5 -40t29 -39t69.5 -17.5q96 0 153.5 46.5t57.5 117.5q0 41 -23.5 59.5t-52.5 18.5t-60.5 -13t-64.5 -13q-55 0 -55 57q0 41 14.5 54t57.5 20l49 6q51 6 80.5 37.5t29.5 70.5q0 33 -17 54.5t-52 21.5q-59 0 -83 -20.5 t-37 -45t-29.5 -45t-61.5 -20.5q-31 0 -54.5 17.5t-23.5 50.5q0 31 25.5 65.5t69.5 62t101.5 46t122.5 18.5q96 0 152.5 -43t56.5 -125q0 -39 -12 -83t-53 -79q53 -14 78.5 -52t25.5 -85q0 -57 -33.5 -115.5t-93 -106.5t-139.5 -78t-172 -30q-109 0 -164 45.5t-55 106.5z M510 -10q0 23 20 53l762 1255q12 20 24.5 31.5t31.5 11.5q10 0 23 -4t30 -14q47 -29 47 -61q0 -20 -21 -52l-761 -1255q-12 -20 -24.5 -32.5t-31.5 -12.5q-23 0 -55 20q-45 29 -45 60zM1239 401q0 37 14.5 81t39 89t57 89.5t71.5 80.5q33 25 64 25q25 0 43 -19.5t18 -39.5 q0 -10 -3 -20.5t-15 -24.5q-53 -57 -83 -120t-30 -106q0 -47 24.5 -69.5t67.5 -22.5q41 0 79 17.5t67.5 49t47 75.5t17.5 96v100q0 33 18.5 52.5t65.5 19.5q43 0 61.5 -19.5t18.5 -52.5v-639q0 -31 -18.5 -51.5t-59.5 -20.5q-43 0 -62.5 20.5t-19.5 51.5v285 q-47 -47 -110.5 -76t-134.5 -29q-119 0 -178.5 51.5t-59.5 126.5z" />
<glyph unicode="&#xbf;" horiz-adv-x="1042" d="M82 -328q0 55 25.5 122t63.5 133.5t83 126t82 100.5q25 27 38 43t21 31.5t10.5 33t4.5 43.5l6 92q2 29 18.5 48.5t67.5 19.5t66.5 -19.5t19.5 -48.5q6 -49 6 -108q0 -47 -21.5 -95.5t-80.5 -111.5q-76 -80 -134.5 -170t-58.5 -193q0 -90 57.5 -138t157.5 -48 q96 0 153.5 42t92.5 116q14 31 36.5 49t69.5 18q39 0 65.5 -19.5t26.5 -57.5q0 -49 -34.5 -100.5t-99 -93.5t-157 -69.5t-206.5 -27.5q-172 0 -275.5 76.5t-103.5 205.5zM395 694v66q0 33 25 54.5t78 21.5t78.5 -21.5t25.5 -54.5v-66q0 -33 -25.5 -54.5t-78.5 -21.5t-78 22 t-25 54z" />
<glyph unicode="&#xc0;" horiz-adv-x="1361" d="M113 473q0 176 52 324.5t143 256t211 168t255 60.5q223 0 334 -111.5t111 -347.5v-766q0 -39 -27 -62.5t-80 -23.5t-79.5 23.5t-26.5 62.5v516h-691q0 -135 25 -238.5t68 -174.5q18 -31 25 -53.5t7 -45.5q0 -35 -31.5 -62.5t-84.5 -27.5q-35 0 -69 22.5t-58 69.5 q-39 76 -61.5 185.5t-22.5 224.5zM326 705h680v69q0 199 -78 286t-219 87q-66 0 -127.5 -26.5t-111.5 -82t-88 -138.5t-56 -195zM547 1608q0 29 26.5 51.5t63.5 22.5q29 0 46.5 -10.5t33.5 -36.5l92 -166q10 -18 12 -26.5t2 -14.5q0 -25 -23.5 -42.5t-53.5 -17.5 q-45 0 -78 50l-109 155q-12 14 -12 35z" />
<glyph unicode="&#xc1;" horiz-adv-x="1361" d="M133 473q0 176 52 324.5t143 256t211 168t255 60.5q223 0 334 -111.5t111 -347.5v-766q0 -39 -27 -62.5t-80 -23.5t-79.5 23.5t-26.5 62.5v516h-691q0 -135 25 -238.5t68 -174.5q18 -31 25 -53.5t7 -45.5q0 -35 -31.5 -62.5t-84.5 -27.5q-35 0 -69 22.5t-58 69.5 q-39 76 -61.5 185.5t-22.5 224.5zM346 705h680v69q0 199 -78 286t-219 87q-66 0 -127.5 -26.5t-111.5 -82t-88 -138.5t-56 -195zM629 1428q0 6 2 14t12 27l92 166q14 27 32 37t48 10q37 0 63.5 -22.5t26.5 -51.5q0 -20 -12 -35l-108 -155q-35 -49 -78 -50q-33 0 -55.5 17.5 t-22.5 42.5z" />
<glyph unicode="&#xc2;" horiz-adv-x="1361" d="M113 473q0 176 52 324.5t143 256t211 168t255 60.5q223 0 334 -111.5t111 -347.5v-766q0 -39 -27 -62.5t-80 -23.5t-79.5 23.5t-26.5 62.5v516h-691q0 -135 25 -238.5t68 -174.5q18 -31 25 -53.5t7 -45.5q0 -35 -31.5 -62.5t-84.5 -27.5q-35 0 -69 22.5t-58 69.5 q-39 76 -61.5 185.5t-22.5 224.5zM326 705h680v69q0 199 -78 286t-219 87q-66 0 -127.5 -26.5t-111.5 -82t-88 -138.5t-56 -195zM459 1465q0 35 22.5 72.5t65.5 70.5t105.5 53.5t144.5 20.5q98 0 139 -27.5t41 -66.5q0 -29 -14.5 -78t-34.5 -86q-12 -23 -27.5 -31t-50.5 -8 q-41 0 -41 31q0 12 2 18q16 55 22.5 78.5t6.5 38.5q0 16 -13.5 29.5t-56.5 13.5q-78 0 -116.5 -29t-38.5 -68q0 -29 16 -57q6 -10 6 -20q0 -16 -21.5 -26.5t-50.5 -10.5q-27 0 -50 7t-36 19q-20 20 -20 56z" />
<glyph unicode="&#xc3;" horiz-adv-x="1361" d="M113 473q0 176 52 324.5t143 256t211 168t255 60.5q223 0 334 -111.5t111 -347.5v-766q0 -39 -27 -62.5t-80 -23.5t-79.5 23.5t-26.5 62.5v516h-691q0 -135 25 -238.5t68 -174.5q18 -31 25 -53.5t7 -45.5q0 -35 -31.5 -62.5t-84.5 -27.5q-35 0 -69 22.5t-58 69.5 q-39 76 -61.5 185.5t-22.5 224.5zM326 705h680v69q0 199 -78 286t-219 87q-66 0 -127.5 -26.5t-111.5 -82t-88 -138.5t-56 -195zM424 1594q0 31 18.5 50t59.5 19q29 0 44 -12t30 -33q23 -33 67 -32q23 0 39 12t35.5 26.5t45 26.5t64.5 12q94 0 137.5 -31.5t43.5 -84.5 q0 -31 -18.5 -50.5t-59.5 -19.5q-29 0 -44.5 12.5t-29.5 32.5q-23 33 -67 33q-23 0 -42.5 -12.5t-41 -26.5t-46 -26.5t-55.5 -12.5q-94 0 -137 31.5t-43 85.5z" />
<glyph unicode="&#xc4;" horiz-adv-x="1361" d="M113 473q0 176 52 324.5t143 256t211 168t255 60.5q223 0 334 -111.5t111 -347.5v-766q0 -39 -27 -62.5t-80 -23.5t-79.5 23.5t-26.5 62.5v516h-691q0 -135 25 -238.5t68 -174.5q18 -31 25 -53.5t7 -45.5q0 -35 -31.5 -62.5t-84.5 -27.5q-35 0 -69 22.5t-58 69.5 q-39 76 -61.5 185.5t-22.5 224.5zM326 705h680v69q0 199 -78 286t-219 87q-66 0 -127.5 -26.5t-111.5 -82t-88 -138.5t-56 -195zM424 1520v68q0 31 25.5 53t78.5 22t78 -22.5t25 -52.5v-68q0 -31 -25 -53.5t-78 -22.5t-78.5 22.5t-25.5 53.5zM782 1522v68q0 31 25 53t78 22 t78.5 -22.5t25.5 -52.5v-68q0 -31 -25.5 -53.5t-78.5 -22.5t-78 22.5t-25 53.5z" />
<glyph unicode="&#xc5;" horiz-adv-x="1361" d="M113 473q0 176 52 324.5t143 256t211 168t255 60.5q223 0 334 -111.5t111 -347.5v-766q0 -39 -27 -62.5t-80 -23.5t-79.5 23.5t-26.5 62.5v516h-691q0 -135 25 -238.5t68 -174.5q18 -31 25 -53.5t7 -45.5q0 -35 -31.5 -62.5t-84.5 -27.5q-35 0 -69 22.5t-58 69.5 q-39 76 -61.5 185.5t-22.5 224.5zM326 705h680v69q0 199 -78 286t-219 87q-66 0 -127.5 -26.5t-111.5 -82t-88 -138.5t-56 -195zM494 1516q0 43 24.5 85t65.5 75.5t94.5 55t108.5 21.5q78 0 120 -29.5t42 -80.5q0 -41 -25 -84t-65.5 -78t-94 -56.5t-110.5 -21.5 q-86 0 -123 33t-37 80zM611 1547q0 -68 84 -68q55 0 96 41t41 92q0 33 -22.5 51.5t-59.5 18.5q-57 0 -98 -41t-41 -94z" />
<glyph unicode="&#xc6;" horiz-adv-x="2109" d="M113 473q0 176 52 324.5t143 256t211 168t255 60.5q109 0 188.5 -40t135.5 -136q37 61 99.5 97t133 52.5t139 20.5t115.5 4q127 0 209 -11.5t129 -31.5t65.5 -49t18.5 -62q0 -47 -30.5 -75.5t-71.5 -28.5q-29 0 -58.5 11t-46.5 28q-23 20 -45 36.5t-54 28t-75 16.5 t-102 5q-14 0 -36 -2t-45.5 -4t-44 -6.5t-32.5 -6.5q-49 -12 -79 -25t-45 -38t-19 -66t-4 -108v-184h440q29 0 45 -18.5t16 -47.5t-16 -47.5t-45 -18.5h-440v-368q0 -35 5 -54.5t21.5 -29.5t50 -13.5t88.5 -3.5q88 0 159 7.5t127 20.5t103.5 30.5t88.5 38.5q27 14 47 14 q61 0 61 -59q0 -35 -45 -69t-126 -60.5t-193.5 -42t-249.5 -15.5q-121 0 -191.5 10.5t-105.5 34t-44 61.5t-9 95v401h-691q0 -135 25 -238.5t68 -174.5q18 -31 25 -53.5t7 -45.5q0 -35 -31.5 -62.5t-84.5 -27.5q-51 0 -91 44t-67 116t-40 162t-13 180zM326 705h680v69 q0 199 -78 286t-219 87q-66 0 -127.5 -26.5t-111.5 -82t-88 -138.5t-56 -195z" />
<glyph unicode="&#xc7;" horiz-adv-x="1607" d="M82 430q0 106 35 210.5t98.5 200t152.5 175.5t197.5 139t234.5 93t261 34q186 0 305 -49t174 -121q27 -33 27 -78q0 -43 -35 -73.5t-90 -30.5q-29 0 -57.5 15.5t-51.5 41.5q-68 82 -157 118t-207 36q-135 0 -253 -52.5t-205 -141.5t-138 -204.5t-51 -242.5 q0 -82 29.5 -153t83.5 -123t133 -81.5t177 -29.5q80 0 151 17t131 46t110.5 67t87.5 81q25 29 48 43t58 14q33 0 51.5 -16.5t18.5 -45.5q0 -33 -31 -65q-49 -53 -115.5 -100.5t-144.5 -84t-163 -61t-173 -33.5l-145 -157q18 8 45.5 11t44.5 3q211 0 211 -168 q0 -57 -30 -110.5t-82 -95.5t-122.5 -66.5t-152.5 -24.5q-96 0 -147.5 32t-51.5 79q0 29 14.5 47t42.5 18q33 0 45.5 -11t23.5 -24.5t31.5 -24.5t69.5 -11q90 0 146.5 46t56.5 111q0 47 -27.5 76t-68.5 29t-76 -9.5t-63 -25.5q-29 -16 -50 -16q-20 0 -37.5 16t-17.5 39 q0 25 29 57l174 178q-281 14 -418 138.5t-137 318.5z" />
<glyph unicode="&#xc8;" horiz-adv-x="1247" d="M143 172v690q0 94 13.5 159.5t47.5 110t90 70t144 43.5q37 8 78 14.5t80 10.5t72.5 7t54.5 3q127 0 209 -11.5t129 -31.5t65.5 -49t18.5 -62q0 -47 -31 -75.5t-72 -28.5q-29 0 -58.5 11t-45.5 28q-23 20 -45.5 36.5t-54 28t-74.5 16.5t-102 5q-14 0 -36 -2t-45.5 -4 t-44 -6.5t-32.5 -6.5q-49 -12 -79 -25t-45 -38t-19.5 -66t-4.5 -108v-184h441q29 0 45 -18.5t16 -47.5t-16.5 -47.5t-44.5 -18.5h-441v-368q0 -35 5.5 -54.5t21.5 -29.5t50 -13.5t89 -3.5q88 0 159 7.5t127 20.5t103 30.5t88 38.5q28 14 48 14q61 0 61 -59 q0 -29 -14.5 -47.5t-51.5 -38.5q-35 -18 -90 -37t-127.5 -32t-156.5 -22.5t-174 -9.5q-121 0 -192 10.5t-105.5 34t-44 61.5t-9.5 95zM498 1608q0 29 26.5 51.5t63.5 22.5q29 0 46.5 -10.5t33.5 -36.5l92 -166q10 -18 12 -26.5t2 -14.5q0 -25 -23.5 -42.5t-53.5 -17.5 q-45 0 -78 50l-109 155q-12 14 -12 35z" />
<glyph unicode="&#xc9;" horiz-adv-x="1247" d="M143 172v690q0 94 13.5 159.5t47.5 110t90 70t144 43.5q37 8 78 14.5t80 10.5t72.5 7t54.5 3q127 0 209 -11.5t129 -31.5t65.5 -49t18.5 -62q0 -47 -31 -75.5t-72 -28.5q-29 0 -58.5 11t-45.5 28q-23 20 -45.5 36.5t-54 28t-74.5 16.5t-102 5q-14 0 -36 -2t-45.5 -4 t-44 -6.5t-32.5 -6.5q-49 -12 -79 -25t-45 -38t-19.5 -66t-4.5 -108v-184h441q29 0 45 -18.5t16 -47.5t-16.5 -47.5t-44.5 -18.5h-441v-368q0 -35 5.5 -54.5t21.5 -29.5t50 -13.5t89 -3.5q88 0 159 7.5t127 20.5t103 30.5t88 38.5q28 14 48 14q61 0 61 -59 q0 -29 -14.5 -47.5t-51.5 -38.5q-35 -18 -90 -37t-127.5 -32t-156.5 -22.5t-174 -9.5q-121 0 -192 10.5t-105.5 34t-44 61.5t-9.5 95zM508 1428q0 6 2 14t12 27l92 166q14 27 32 37t48 10q37 0 63.5 -22.5t26.5 -51.5q0 -20 -12 -35l-108 -155q-35 -49 -78 -50 q-33 0 -55.5 17.5t-22.5 42.5z" />
<glyph unicode="&#xca;" horiz-adv-x="1247" d="M143 172v690q0 94 13.5 159.5t47.5 110t90 70t144 43.5q37 8 78 14.5t80 10.5t72.5 7t54.5 3q127 0 209 -11.5t129 -31.5t65.5 -49t18.5 -62q0 -47 -31 -75.5t-72 -28.5q-29 0 -58.5 11t-45.5 28q-23 20 -45.5 36.5t-54 28t-74.5 16.5t-102 5q-14 0 -36 -2t-45.5 -4 t-44 -6.5t-32.5 -6.5q-49 -12 -79 -25t-45 -38t-19.5 -66t-4.5 -108v-184h441q29 0 45 -18.5t16 -47.5t-16.5 -47.5t-44.5 -18.5h-441v-368q0 -35 5.5 -54.5t21.5 -29.5t50 -13.5t89 -3.5q88 0 159 7.5t127 20.5t103 30.5t88 38.5q28 14 48 14q61 0 61 -59 q0 -29 -14.5 -47.5t-51.5 -38.5q-35 -18 -90 -37t-127.5 -32t-156.5 -22.5t-174 -9.5q-121 0 -192 10.5t-105.5 34t-44 61.5t-9.5 95zM375 1465q0 35 22.5 72.5t65.5 70.5t105.5 53.5t144.5 20.5q98 0 139 -27.5t41 -66.5q0 -29 -14.5 -78t-34.5 -86q-12 -23 -27.5 -31 t-50.5 -8q-41 0 -41 31q0 12 2 18q16 55 22.5 78.5t6.5 38.5q0 16 -13.5 29.5t-56.5 13.5q-78 0 -116.5 -29t-38.5 -68q0 -29 16 -57q6 -10 6 -20q0 -16 -21.5 -26.5t-50.5 -10.5q-27 0 -50 7t-36 19q-20 20 -20 56z" />
<glyph unicode="&#xcb;" horiz-adv-x="1247" d="M143 172v690q0 94 13.5 159.5t47.5 110t90 70t144 43.5q37 8 78 14.5t80 10.5t72.5 7t54.5 3q127 0 209 -11.5t129 -31.5t65.5 -49t18.5 -62q0 -47 -31 -75.5t-72 -28.5q-29 0 -58.5 11t-45.5 28q-23 20 -45.5 36.5t-54 28t-74.5 16.5t-102 5q-14 0 -36 -2t-45.5 -4 t-44 -6.5t-32.5 -6.5q-49 -12 -79 -25t-45 -38t-19.5 -66t-4.5 -108v-184h441q29 0 45 -18.5t16 -47.5t-16.5 -47.5t-44.5 -18.5h-441v-368q0 -35 5.5 -54.5t21.5 -29.5t50 -13.5t89 -3.5q88 0 159 7.5t127 20.5t103 30.5t88 38.5q28 14 48 14q61 0 61 -59 q0 -29 -14.5 -47.5t-51.5 -38.5q-35 -18 -90 -37t-127.5 -32t-156.5 -22.5t-174 -9.5q-121 0 -192 10.5t-105.5 34t-44 61.5t-9.5 95zM352 1520v68q0 31 25.5 53t78.5 22t78 -22.5t25 -52.5v-68q0 -31 -25 -53.5t-78 -22.5t-78.5 22.5t-25.5 53.5zM710 1522v68q0 31 25 53 t78 22t78.5 -22.5t25.5 -52.5v-68q0 -31 -25.5 -53.5t-78.5 -22.5t-78 22.5t-25 53.5z" />
<glyph unicode="&#xcc;" horiz-adv-x="479" d="M102 1608q0 29 26.5 51.5t63.5 22.5q29 0 46.5 -10.5t33.5 -36.5l92 -166q10 -18 12 -26.5t2 -14.5q0 -25 -23.5 -42.5t-53.5 -17.5q-45 0 -78 50l-109 155q-12 14 -12 35zM133 57v1129q0 39 26.5 62.5t80.5 23.5q53 0 79.5 -23.5t26.5 -62.5v-1129q0 -39 -26.5 -62.5 t-79.5 -23.5t-80 23.5t-27 62.5z" />
<glyph unicode="&#xcd;" horiz-adv-x="479" d="M102 1428q0 6 2 14t12 27l92 166q14 27 32 37t48 10q37 0 63.5 -22.5t26.5 -51.5q0 -20 -12 -35l-108 -155q-35 -49 -78 -50q-33 0 -55.5 17.5t-22.5 42.5zM133 57v1129q0 39 26.5 62.5t80.5 23.5q53 0 79.5 -23.5t26.5 -62.5v-1129q0 -39 -26.5 -62.5t-79.5 -23.5 t-80 23.5t-27 62.5z" />
<glyph unicode="&#xce;" horiz-adv-x="479" d="M-14 1465q0 35 22.5 72.5t65.5 70.5t105.5 53.5t144.5 20.5q98 0 139 -27.5t41 -66.5q0 -29 -14.5 -78t-34.5 -86q-12 -23 -27.5 -31t-50.5 -8q-41 0 -41 31q0 12 2 18q16 55 22.5 78.5t6.5 38.5q0 16 -13.5 29.5t-56.5 13.5q-78 0 -116.5 -29t-38.5 -68q0 -29 16 -57 q6 -10 6 -20q0 -16 -21.5 -26.5t-50.5 -10.5q-27 0 -50 7t-36 19q-20 20 -20 56zM133 57v1129q0 39 26.5 62.5t80.5 23.5q53 0 79.5 -23.5t26.5 -62.5v-1129q0 -39 -26.5 -62.5t-79.5 -23.5t-80 23.5t-27 62.5z" />
<glyph unicode="&#xcf;" horiz-adv-x="479" d="M-39 1520v68q0 31 25.5 53t78.5 22t78 -22.5t25 -52.5v-68q0 -31 -25 -53.5t-78 -22.5t-78.5 22.5t-25.5 53.5zM133 57v1129q0 39 26.5 62.5t80.5 23.5q53 0 79.5 -23.5t26.5 -62.5v-1129q0 -39 -26.5 -62.5t-79.5 -23.5t-80 23.5t-27 62.5zM319 1522v68q0 31 25 53 t78 22t78.5 -22.5t25.5 -52.5v-68q0 -31 -25.5 -53.5t-78.5 -22.5t-78 22.5t-25 53.5z" />
<glyph unicode="&#xd0;" horiz-adv-x="1497" d="M-27 641q0 35 16.5 52.5t37.5 17.5h116v243q0 74 14.5 124t57.5 84t120 56.5t202 41.5q57 8 138 14t148 6q129 0 232.5 -33t177.5 -93t112.5 -146t38.5 -191q0 -190 -63.5 -346t-179 -267.5t-278 -172t-361.5 -60.5q-121 0 -192.5 7.5t-108.5 29t-47.5 61.5t-10.5 103 v401h-116q-20 0 -37 16.5t-17 51.5zM356 203q0 -31 6.5 -49.5t28 -28.5t62.5 -14.5t112 -4.5q131 0 239.5 37t186.5 114t122 197.5t44 288.5q0 213 -107.5 308.5t-328.5 95.5q-33 0 -61.5 -2t-53.5 -6q-78 -10 -126 -22.5t-75.5 -34t-38 -53.5t-10.5 -81v-237h357 q20 0 36.5 -17.5t16.5 -52.5t-16.5 -51.5t-36.5 -16.5h-357v-370z" />
<glyph unicode="&#xd1;" horiz-adv-x="1513" d="M143 57v1129q0 39 27 62.5t80 23.5t79.5 -23.5t26.5 -62.5l2 -113q2 -217 43 -394t109 -304t158 -196.5t190 -69.5q74 0 134.5 25.5t104.5 78.5t67.5 137t23.5 199q0 129 -43 265t-129 267q-29 45 -39 71t-10 44q0 35 34.5 59.5t77.5 24.5q39 0 70 -20.5t84 -85.5 q78 -104 123 -252t45 -322q0 -129 -43 -243.5t-118 -199.5t-177 -135.5t-221 -50.5q-193 0 -323 130t-171 368v-412q0 -39 -26.5 -62.5t-75.5 -23.5t-76 23.5t-27 62.5zM414 1594q0 31 18.5 50t59.5 19q29 0 44 -12t30 -33q23 -33 67 -32q23 0 39 12t35.5 26.5t45 26.5 t64.5 12q94 0 137.5 -31.5t43.5 -84.5q0 -31 -18.5 -50.5t-59.5 -19.5q-29 0 -44.5 12.5t-29.5 32.5q-23 33 -67 33q-23 0 -42.5 -12.5t-41 -26.5t-46 -26.5t-55.5 -12.5q-94 0 -137 31.5t-43 85.5z" />
<glyph unicode="&#xd2;" horiz-adv-x="1742" d="M82 440q0 168 80 320.5t214 268.5t309.5 184.5t365.5 68.5q137 0 249.5 -34t192.5 -95t124 -147t44 -189q0 -98 -34 -198.5t-95.5 -194.5t-149.5 -176t-196.5 -143.5t-234.5 -97.5t-263 -36q-143 0 -256 33t-190.5 94.5t-118.5 148.5t-41 193zM324 510q0 -96 30.5 -170 t87 -124t136 -76.5t176.5 -26.5q147 0 270 53t212 141t138 198.5t49 227.5q0 92 -33.5 168t-94 129t-143.5 82t-183 29q-133 0 -251 -49.5t-206 -134.5t-138 -200.5t-50 -246.5zM729 1608q0 29 26.5 51.5t63.5 22.5q29 0 46.5 -10.5t33.5 -36.5l92 -166q10 -18 12 -26.5 t2 -14.5q0 -25 -23.5 -42.5t-53.5 -17.5q-45 0 -78 50l-109 155q-12 14 -12 35z" />
<glyph unicode="&#xd3;" horiz-adv-x="1742" d="M82 440q0 168 80 320.5t214 268.5t309.5 184.5t365.5 68.5q137 0 249.5 -34t192.5 -95t124 -147t44 -189q0 -98 -34 -198.5t-95.5 -194.5t-149.5 -176t-196.5 -143.5t-234.5 -97.5t-263 -36q-143 0 -256 33t-190.5 94.5t-118.5 148.5t-41 193zM324 510q0 -96 30.5 -170 t87 -124t136 -76.5t176.5 -26.5q147 0 270 53t212 141t138 198.5t49 227.5q0 92 -33.5 168t-94 129t-143.5 82t-183 29q-133 0 -251 -49.5t-206 -134.5t-138 -200.5t-50 -246.5zM764 1428q0 6 2 14t12 27l92 166q14 27 32 37t48 10q37 0 63.5 -22.5t26.5 -51.5 q0 -20 -12 -35l-108 -155q-35 -49 -78 -50q-33 0 -55.5 17.5t-22.5 42.5z" />
<glyph unicode="&#xd4;" horiz-adv-x="1742" d="M82 440q0 168 80 320.5t214 268.5t309.5 184.5t365.5 68.5q137 0 249.5 -34t192.5 -95t124 -147t44 -189q0 -98 -34 -198.5t-95.5 -194.5t-149.5 -176t-196.5 -143.5t-234.5 -97.5t-263 -36q-143 0 -256 33t-190.5 94.5t-118.5 148.5t-41 193zM324 510q0 -96 30.5 -170 t87 -124t136 -76.5t176.5 -26.5q147 0 270 53t212 141t138 198.5t49 227.5q0 92 -33.5 168t-94 129t-143.5 82t-183 29q-133 0 -251 -49.5t-206 -134.5t-138 -200.5t-50 -246.5zM616 1465q0 35 22.5 72.5t65.5 70.5t105.5 53.5t144.5 20.5q98 0 139 -27.5t41 -66.5 q0 -29 -14.5 -78t-34.5 -86q-12 -23 -27.5 -31t-50.5 -8q-41 0 -41 31q0 12 2 18q16 55 22.5 78.5t6.5 38.5q0 16 -13.5 29.5t-56.5 13.5q-78 0 -116.5 -29t-38.5 -68q0 -29 16 -57q6 -10 6 -20q0 -16 -21.5 -26.5t-50.5 -10.5q-27 0 -50 7t-36 19q-20 20 -20 56z" />
<glyph unicode="&#xd5;" horiz-adv-x="1742" d="M82 440q0 168 80 320.5t214 268.5t309.5 184.5t365.5 68.5q137 0 249.5 -34t192.5 -95t124 -147t44 -189q0 -98 -34 -198.5t-95.5 -194.5t-149.5 -176t-196.5 -143.5t-234.5 -97.5t-263 -36q-143 0 -256 33t-190.5 94.5t-118.5 148.5t-41 193zM324 510q0 -96 30.5 -170 t87 -124t136 -76.5t176.5 -26.5q147 0 270 53t212 141t138 198.5t49 227.5q0 92 -33.5 168t-94 129t-143.5 82t-183 29q-133 0 -251 -49.5t-206 -134.5t-138 -200.5t-50 -246.5zM586 1594q0 31 18.5 50t59.5 19q29 0 44 -12t30 -33q23 -33 67 -32q23 0 39 12t35.5 26.5 t45 26.5t64.5 12q94 0 137.5 -31.5t43.5 -84.5q0 -31 -18.5 -50.5t-59.5 -19.5q-29 0 -44.5 12.5t-29.5 32.5q-23 33 -67 33q-23 0 -42.5 -12.5t-41 -26.5t-46 -26.5t-55.5 -12.5q-94 0 -137 31.5t-43 85.5z" />
<glyph unicode="&#xd6;" horiz-adv-x="1742" d="M82 440q0 168 80 320.5t214 268.5t309.5 184.5t365.5 68.5q137 0 249.5 -34t192.5 -95t124 -147t44 -189q0 -98 -34 -198.5t-95.5 -194.5t-149.5 -176t-196.5 -143.5t-234.5 -97.5t-263 -36q-143 0 -256 33t-190.5 94.5t-118.5 148.5t-41 193zM324 510q0 -96 30.5 -170 t87 -124t136 -76.5t176.5 -26.5q147 0 270 53t212 141t138 198.5t49 227.5q0 92 -33.5 168t-94 129t-143.5 82t-183 29q-133 0 -251 -49.5t-206 -134.5t-138 -200.5t-50 -246.5zM596 1520v68q0 31 25.5 53t78.5 22t78 -22.5t25 -52.5v-68q0 -31 -25 -53.5t-78 -22.5 t-78.5 22.5t-25.5 53.5zM954 1522v68q0 31 25 53t78 22t78.5 -22.5t25.5 -52.5v-68q0 -31 -25.5 -53.5t-78.5 -22.5t-78 22.5t-25 53.5z" />
<glyph unicode="&#xd7;" horiz-adv-x="589" d="M61 362q0 23 19 41l119 119l-117 117q-18 18 -19 41q0 27 25 51q27 23 49 23q23 0 41 -19l117 -117l117 117q20 16 39 17q29 0 53 -25q23 -23 22 -49q0 -23 -18 -41l-117 -117l119 -117q18 -16 18 -38q0 -29 -24 -50q-27 -27 -51 -26q-25 0 -39 18l-119 117l-119 -119 q-16 -16 -39 -16q-27 0 -49 22q-27 27 -27 51z" />
<glyph unicode="&#xd8;" horiz-adv-x="1742" d="M82 440q0 168 80 320.5t214 268.5t309.5 184.5t365.5 68.5q72 0 138 -10t126 -29l84 88q27 27 59 27q41 0 78 -39q41 -39 41 -80q0 -29 -23 -55l-45 -47q72 -59 112 -140.5t40 -179.5t-34 -198.5t-95.5 -194.5t-149.5 -176t-196.5 -143.5t-234.5 -97.5t-263 -36 q-143 0 -264 35l-80 -84q-27 -27 -57 -26q-39 0 -80 38q-41 39 -41 80q0 31 24 56l39 39q-147 125 -147 331zM324 510q0 -152 77 -252l801 834q-51 23 -109 36t-124 13q-133 0 -251 -49.5t-206 -134.5t-138 -200.5t-50 -246.5zM535 156q94 -43 219 -43q147 0 270 53t212 141 t138 198.5t49 227.5q0 76 -23.5 140.5t-64.5 115.5z" />
<glyph unicode="&#xd9;" horiz-adv-x="1329" d="M123 430q0 98 5 184t14.5 172t23.5 176.5t35 198.5q14 78 104 78q49 0 73.5 -21.5t24.5 -58.5q0 -16 -10 -94t-23.5 -180.5t-23.5 -210t-10 -182.5q0 -109 17.5 -180.5t54 -116.5t91 -63.5t128.5 -18.5q90 0 161.5 43t122 119.5t77 179t26.5 223.5q0 213 -111 420 q-10 20 -17 41.5t-7 46.5q0 41 33.5 67.5t80.5 26.5q96 0 148 -94q37 -70 56.5 -181.5t19.5 -228.5q0 -174 -49.5 -321.5t-137.5 -255t-206.5 -168t-258.5 -60.5q-238 0 -340 120t-102 339zM467 1608q0 29 26.5 51.5t63.5 22.5q29 0 46.5 -10.5t33.5 -36.5l92 -166 q10 -18 12 -26.5t2 -14.5q0 -25 -23.5 -42.5t-53.5 -17.5q-45 0 -78 50l-109 155q-12 14 -12 35z" />
<glyph unicode="&#xda;" horiz-adv-x="1329" d="M123 430q0 98 5 184t14.5 172t23.5 176.5t35 198.5q14 78 104 78q49 0 73.5 -21.5t24.5 -58.5q0 -16 -10 -94t-23.5 -180.5t-23.5 -210t-10 -182.5q0 -109 17.5 -180.5t54 -116.5t91 -63.5t128.5 -18.5q90 0 161.5 43t122 119.5t77 179t26.5 223.5q0 213 -111 420 q-10 20 -17 41.5t-7 46.5q0 41 33.5 67.5t80.5 26.5q96 0 148 -94q37 -70 56.5 -181.5t19.5 -228.5q0 -174 -49.5 -321.5t-137.5 -255t-206.5 -168t-258.5 -60.5q-238 0 -340 120t-102 339zM528 1428q0 6 2 14t12 27l92 166q14 27 32 37t48 10q37 0 63.5 -22.5t26.5 -51.5 q0 -20 -12 -35l-108 -155q-35 -49 -78 -50q-33 0 -55.5 17.5t-22.5 42.5z" />
<glyph unicode="&#xdb;" horiz-adv-x="1329" d="M123 430q0 98 5 184t14.5 172t23.5 176.5t35 198.5q14 78 104 78q49 0 73.5 -21.5t24.5 -58.5q0 -16 -10 -94t-23.5 -180.5t-23.5 -210t-10 -182.5q0 -109 17.5 -180.5t54 -116.5t91 -63.5t128.5 -18.5q90 0 161.5 43t122 119.5t77 179t26.5 223.5q0 213 -111 420 q-10 20 -17 41.5t-7 46.5q0 41 33.5 67.5t80.5 26.5q96 0 148 -94q37 -70 56.5 -181.5t19.5 -228.5q0 -174 -49.5 -321.5t-137.5 -255t-206.5 -168t-258.5 -60.5q-238 0 -340 120t-102 339zM385 1465q0 35 22.5 72.5t65.5 70.5t105.5 53.5t144.5 20.5q98 0 139 -27.5 t41 -66.5q0 -29 -14.5 -78t-34.5 -86q-12 -23 -27.5 -31t-50.5 -8q-41 0 -41 31q0 12 2 18q16 55 22.5 78.5t6.5 38.5q0 16 -13.5 29.5t-56.5 13.5q-78 0 -116.5 -29t-38.5 -68q0 -29 16 -57q6 -10 6 -20q0 -16 -21.5 -26.5t-50.5 -10.5q-27 0 -50 7t-36 19q-20 20 -20 56z " />
<glyph unicode="&#xdc;" horiz-adv-x="1329" d="M123 430q0 98 5 184t14.5 172t23.5 176.5t35 198.5q14 78 104 78q49 0 73.5 -21.5t24.5 -58.5q0 -16 -10 -94t-23.5 -180.5t-23.5 -210t-10 -182.5q0 -109 17.5 -180.5t54 -116.5t91 -63.5t128.5 -18.5q90 0 161.5 43t122 119.5t77 179t26.5 223.5q0 213 -111 420 q-10 20 -17 41.5t-7 46.5q0 41 33.5 67.5t80.5 26.5q96 0 148 -94q37 -70 56.5 -181.5t19.5 -228.5q0 -174 -49.5 -321.5t-137.5 -255t-206.5 -168t-258.5 -60.5q-238 0 -340 120t-102 339zM350 1520v68q0 31 25.5 53t78.5 22t78 -22.5t25 -52.5v-68q0 -31 -25 -53.5 t-78 -22.5t-78.5 22.5t-25.5 53.5zM708 1522v68q0 31 25 53t78 22t78.5 -22.5t25.5 -52.5v-68q0 -31 -25.5 -53.5t-78.5 -22.5t-78 22.5t-25 53.5z" />
<glyph unicode="&#xdd;" horiz-adv-x="1277" d="M20 1157q0 35 15.5 54.5t38 29.5t47 13t41.5 3q104 0 189 -53t147.5 -152.5t99.5 -241.5t47 -321q12 178 45 320.5t91.5 242t141.5 152.5t193 53q68 0 104.5 -27.5t36.5 -70.5q0 -57 -19 -83.5t-50 -26.5q-18 0 -34.5 7t-32 15t-33 15.5t-37.5 7.5q-35 0 -72 -41 t-71 -107.5t-64.5 -153.5t-53 -178.5t-36 -180.5t-13.5 -161v-215q0 -39 -26.5 -62.5t-79.5 -23.5t-80 23.5t-27 62.5v215q0 72 -13 161t-36.5 180.5t-54.5 177.5t-65.5 153.5t-69.5 108.5t-68 41q-18 0 -35.5 -7.5t-34 -15.5t-35 -15t-36.5 -7q-29 0 -44.5 31.5t-15.5 76.5 zM492 1428q0 6 2 14t12 27l92 166q14 27 32 37t48 10q37 0 63.5 -22.5t26.5 -51.5q0 -20 -12 -35l-108 -155q-35 -49 -78 -50q-33 0 -55.5 17.5t-22.5 42.5z" />
<glyph unicode="&#xde;" horiz-adv-x="1210" d="M139 57v1141q0 35 29 56.5t80 21.5t77.5 -21.5t26.5 -56.5v-203q29 6 75 16.5t97 19.5t101.5 15.5t91.5 6.5q244 0 358.5 -86t114.5 -222q0 -96 -43 -186t-127 -159.5t-207 -112.5t-281 -43q-39 0 -87 4t-93 12v-203q0 -35 -26.5 -56t-77.5 -21t-80 21.5t-29 55.5z M352 371q35 -6 83 -9.5t95 -3.5q233 0 339 94.5t106 256.5q0 111 -78 169t-223 58q-41 0 -87 -5t-79 -13q-53 -12 -85 -25.5t-47.5 -35t-19.5 -55.5t-4 -91v-340z" />
<glyph unicode="&#xdf;" horiz-adv-x="1189" d="M0 743q0 63 59 64h93v20q0 25 -7.5 47.5t-7.5 49.5q0 78 57.5 168t149.5 166.5t207 128t231 51.5q72 0 109 -30t37 -71t-8.5 -66.5t-24.5 -49t-41.5 -49t-60.5 -66.5q-68 -78 -98.5 -157t-30.5 -152q0 -53 22.5 -86t87.5 -70l178 -104q102 -59 139 -112.5t37 -117.5 q0 -61 -31.5 -121.5t-87 -108.5t-128 -77t-154.5 -29q-59 0 -114.5 18.5t-97.5 49.5t-67.5 67.5t-25.5 73.5q0 45 21.5 72t62.5 27q31 0 52.5 -18.5t49.5 -70.5q51 -90 148 -90q80 0 126 46.5t46 115.5q0 45 -21.5 77t-93.5 73l-207 120q-76 43 -107.5 93.5t-31.5 122.5 q0 106 60.5 224t199.5 275q0 35 -16.5 51.5t-57.5 16.5q-51 0 -104 -33t-96 -88t-71 -129t-28 -154v-850q0 -35 -23.5 -58t-78.5 -23q-53 0 -76.5 23.5t-23.5 57.5v617h-93q-59 0 -59 65z" />
<glyph unicode="&#xe0;" horiz-adv-x="1265" d="M82 242q0 106 57.5 211.5t155.5 190.5t226.5 137.5t269.5 52.5q184 0 268 -70t84 -182q0 -35 -11.5 -70t-11.5 -63v-388q0 -35 -23.5 -58t-76.5 -23q-55 0 -78.5 23.5t-23.5 57.5v138q-92 -104 -217.5 -166t-266.5 -62q-186 0 -269 73t-83 198zM301 315q0 -96 54.5 -148 t154.5 -52q86 0 162 33.5t132 89t90 127t34 149.5q0 90 -56.5 144.5t-152.5 54.5q-90 0 -166 -34t-132 -89t-88 -127t-32 -148zM508 1198q0 29 26.5 51.5t63.5 22.5q29 0 46.5 -10.5t33.5 -36.5l92 -166q10 -18 12 -26.5t2 -14.5q0 -25 -23.5 -42.5t-53.5 -17.5 q-45 0 -78 50l-109 155q-12 14 -12 35z" />
<glyph unicode="&#xe1;" horiz-adv-x="1265" d="M82 242q0 106 57.5 211.5t155.5 190.5t226.5 137.5t269.5 52.5q184 0 268 -70t84 -182q0 -35 -11.5 -70t-11.5 -63v-388q0 -35 -23.5 -58t-76.5 -23q-55 0 -78.5 23.5t-23.5 57.5v138q-92 -104 -217.5 -166t-266.5 -62q-186 0 -269 73t-83 198zM301 315q0 -96 54.5 -148 t154.5 -52q86 0 162 33.5t132 89t90 127t34 149.5q0 90 -56.5 144.5t-152.5 54.5q-90 0 -166 -34t-132 -89t-88 -127t-32 -148zM528 1018q0 6 2 14t12 27l92 166q14 27 32 37t48 10q37 0 63.5 -22.5t26.5 -51.5q0 -20 -12 -35l-108 -155q-35 -49 -78 -50q-33 0 -55.5 17.5 t-22.5 42.5z" />
<glyph unicode="&#xe2;" horiz-adv-x="1265" d="M82 242q0 106 57.5 211.5t155.5 190.5t226.5 137.5t269.5 52.5q184 0 268 -70t84 -182q0 -35 -11.5 -70t-11.5 -63v-388q0 -35 -23.5 -58t-76.5 -23q-55 0 -78.5 23.5t-23.5 57.5v138q-92 -104 -217.5 -166t-266.5 -62q-186 0 -269 73t-83 198zM301 315q0 -96 54.5 -148 t154.5 -52q86 0 162 33.5t132 89t90 127t34 149.5q0 90 -56.5 144.5t-152.5 54.5q-90 0 -166 -34t-132 -89t-88 -127t-32 -148zM420 1055q0 35 22.5 72.5t65.5 70.5t105.5 53.5t144.5 20.5q98 0 139 -27.5t41 -66.5q0 -29 -14.5 -78t-34.5 -86q-12 -23 -27.5 -31t-50.5 -8 q-41 0 -41 31q0 12 2 18q16 55 22.5 78.5t6.5 38.5q0 16 -13.5 29.5t-56.5 13.5q-78 0 -116.5 -29t-38.5 -68q0 -29 16 -57q6 -10 6 -20q0 -16 -21.5 -26.5t-50.5 -10.5q-27 0 -50 7t-36 19q-20 20 -20 56z" />
<glyph unicode="&#xe3;" horiz-adv-x="1265" d="M82 242q0 106 57.5 211.5t155.5 190.5t226.5 137.5t269.5 52.5q184 0 268 -70t84 -182q0 -35 -11.5 -70t-11.5 -63v-388q0 -35 -23.5 -58t-76.5 -23q-55 0 -78.5 23.5t-23.5 57.5v138q-92 -104 -217.5 -166t-266.5 -62q-186 0 -269 73t-83 198zM301 315q0 -96 54.5 -148 t154.5 -52q86 0 162 33.5t132 89t90 127t34 149.5q0 90 -56.5 144.5t-152.5 54.5q-90 0 -166 -34t-132 -89t-88 -127t-32 -148zM356 1184q0 31 18.5 50t59.5 19q29 0 44 -12t30 -33q23 -33 67 -32q23 0 39 12t35.5 26.5t45 26.5t64.5 12q94 0 137.5 -31.5t43.5 -84.5 q0 -31 -18.5 -50.5t-59.5 -19.5q-29 0 -44.5 12.5t-29.5 32.5q-23 33 -67 33q-23 0 -42.5 -12.5t-41 -26.5t-46 -26.5t-55.5 -12.5q-94 0 -137 31.5t-43 85.5z" />
<glyph unicode="&#xe4;" horiz-adv-x="1265" d="M82 242q0 106 57.5 211.5t155.5 190.5t226.5 137.5t269.5 52.5q184 0 268 -70t84 -182q0 -35 -11.5 -70t-11.5 -63v-388q0 -35 -23.5 -58t-76.5 -23q-55 0 -78.5 23.5t-23.5 57.5v138q-92 -104 -217.5 -166t-266.5 -62q-186 0 -269 73t-83 198zM301 315q0 -96 54.5 -148 t154.5 -52q86 0 162 33.5t132 89t90 127t34 149.5q0 90 -56.5 144.5t-152.5 54.5q-90 0 -166 -34t-132 -89t-88 -127t-32 -148zM365 1110v68q0 31 25.5 53t78.5 22t78 -22.5t25 -52.5v-68q0 -31 -25 -53.5t-78 -22.5t-78.5 22.5t-25.5 53.5zM723 1112v68q0 31 25 53t78 22 t78.5 -22.5t25.5 -52.5v-68q0 -31 -25.5 -53.5t-78.5 -22.5t-78 22.5t-25 53.5z" />
<glyph unicode="&#xe5;" horiz-adv-x="1265" d="M82 242q0 106 57.5 211.5t155.5 190.5t226.5 137.5t269.5 52.5q184 0 268 -70t84 -182q0 -35 -11.5 -70t-11.5 -63v-388q0 -35 -23.5 -58t-76.5 -23q-55 0 -78.5 23.5t-23.5 57.5v138q-92 -104 -217.5 -166t-266.5 -62q-186 0 -269 73t-83 198zM301 315q0 -96 54.5 -148 t154.5 -52q86 0 162 33.5t132 89t90 127t34 149.5q0 90 -56.5 144.5t-152.5 54.5q-90 0 -166 -34t-132 -89t-88 -127t-32 -148zM418 1106q0 43 24.5 85t65.5 75.5t94.5 55t108.5 21.5q78 0 120 -29.5t42 -80.5q0 -41 -25 -84t-65.5 -78t-94 -56.5t-110.5 -21.5 q-86 0 -123 33t-37 80zM535 1137q0 -68 84 -68q55 0 96 41t41 92q0 33 -22.5 51.5t-59.5 18.5q-57 0 -98 -41t-41 -94z" />
<glyph unicode="&#xe6;" horiz-adv-x="1802" d="M41 168q0 59 31.5 118.5t93 106.5t149.5 77t201 30q31 0 68 -5.5t72.5 -14.5t66.5 -20t49 -22q14 47 20.5 88t6.5 72q0 72 -53.5 105.5t-151.5 33.5q-86 0 -138.5 -31.5t-52.5 -72.5q0 -53 -81 -53q-100 0 -101 86q0 72 94.5 120t296.5 48q145 0 228.5 -47.5t83.5 -118.5 q0 -16 -2 -35t-11 -45q29 51 78 94q53 47 121 81t148.5 52.5t166.5 18.5q174 0 255 -59.5t81 -145.5q0 -96 -70.5 -164t-240.5 -96l-510 -86q0 -80 42 -127t155 -47q102 0 189 24.5t167 63.5q37 18 57 18q45 0 45 -57q0 -35 -41 -58q-238 -129 -477 -129q-72 0 -122 17.5 t-84.5 46t-56 67.5t-36.5 80q-25 -41 -67.5 -80t-99 -67.5t-121 -46t-128.5 -17.5q-166 0 -243.5 51.5t-77.5 145.5zM246 201q0 -43 43 -72t129 -29q70 0 126 19.5t98 51.5t67.5 74t35.5 85l3 12q-35 25 -88.5 42t-129.5 17q-61 0 -113 -17t-90 -45t-59.5 -63.5t-21.5 -74.5 zM942 395l447 72q102 16 133.5 47t31.5 78q0 49 -49 87t-147 38q-72 0 -141.5 -26.5t-126 -72t-96.5 -103.5t-52 -120z" />
<glyph unicode="&#xe7;" horiz-adv-x="1157" d="M82 248q0 106 58.5 211.5t153.5 188.5t218 134.5t252 51.5q176 0 264 -56.5t88 -136.5q0 -39 -22.5 -66.5t-71.5 -27.5q-41 0 -63.5 12t-38 29.5t-28.5 39t-34.5 39t-57.5 30t-95 12.5q-86 0 -160 -33t-128.5 -88.5t-85 -126t-30.5 -146.5q0 -92 53.5 -146t145.5 -54 q96 0 179 32.5t148 92.5q31 29 58 28q25 0 42 -17.5t17 -39.5q0 -10 -4 -21.5t-18 -23.5q-55 -55 -136 -102.5t-186 -69.5l-162 -176q18 8 46 11t44 3q211 0 211 -168q0 -57 -29.5 -110.5t-82 -95.5t-123 -66.5t-152.5 -24.5q-96 0 -147 32t-51 79q0 29 14 47t43 18 q33 0 45 -11t23.5 -24.5t32 -24.5t69.5 -11q90 0 146.5 46t56.5 111q0 47 -28 76t-69 29t-75.5 -9.5t-63.5 -25.5t-49 -16t-37 16q-18 14 -18 39t28 57l172 176h-24q-166 0 -252 75t-86 202z" />
<glyph unicode="&#xe8;" horiz-adv-x="1167" d="M82 240q0 106 57.5 212.5t154.5 190.5t225.5 137.5t271.5 53.5q174 0 254.5 -59.5t80.5 -145.5q0 -100 -70.5 -171t-240.5 -100l-510 -86q0 -76 42 -119.5t155 -43.5q102 0 189 24.5t167 63.5q37 18 57 18q47 0 48 -57q0 -35 -43 -58q-238 -129 -478 -129 q-96 0 -164.5 20.5t-111.5 56.5t-63.5 85t-20.5 107zM307 395l447 72q102 16 134 47t32 78q0 49 -49.5 87t-147.5 38q-72 0 -141.5 -26.5t-126 -72t-96.5 -103.5t-52 -120zM461 1198q0 29 26.5 51.5t63.5 22.5q29 0 46.5 -10.5t33.5 -36.5l92 -166q10 -18 12 -26.5t2 -14.5 q0 -25 -23.5 -42.5t-53.5 -17.5q-45 0 -78 50l-109 155q-12 14 -12 35z" />
<glyph unicode="&#xe9;" horiz-adv-x="1167" d="M82 240q0 106 57.5 212.5t154.5 190.5t225.5 137.5t271.5 53.5q174 0 254.5 -59.5t80.5 -145.5q0 -100 -70.5 -171t-240.5 -100l-510 -86q0 -76 42 -119.5t155 -43.5q102 0 189 24.5t167 63.5q37 18 57 18q47 0 48 -57q0 -35 -43 -58q-238 -129 -478 -129 q-96 0 -164.5 20.5t-111.5 56.5t-63.5 85t-20.5 107zM307 395l447 72q102 16 134 47t32 78q0 49 -49.5 87t-147.5 38q-72 0 -141.5 -26.5t-126 -72t-96.5 -103.5t-52 -120zM479 1018q0 6 2 14t12 27l92 166q14 27 32 37t48 10q37 0 63.5 -22.5t26.5 -51.5q0 -20 -12 -35 l-108 -155q-35 -49 -78 -50q-33 0 -55.5 17.5t-22.5 42.5z" />
<glyph unicode="&#xea;" horiz-adv-x="1167" d="M82 240q0 106 57.5 212.5t154.5 190.5t225.5 137.5t271.5 53.5q174 0 254.5 -59.5t80.5 -145.5q0 -100 -70.5 -171t-240.5 -100l-510 -86q0 -76 42 -119.5t155 -43.5q102 0 189 24.5t167 63.5q37 18 57 18q47 0 48 -57q0 -35 -43 -58q-238 -129 -478 -129 q-96 0 -164.5 20.5t-111.5 56.5t-63.5 85t-20.5 107zM307 395l447 72q102 16 134 47t32 78q0 49 -49.5 87t-147.5 38q-72 0 -141.5 -26.5t-126 -72t-96.5 -103.5t-52 -120zM354 1055q0 35 22.5 72.5t65.5 70.5t105.5 53.5t144.5 20.5q98 0 139 -27.5t41 -66.5 q0 -29 -14.5 -78t-34.5 -86q-12 -23 -27.5 -31t-50.5 -8q-41 0 -41 31q0 12 2 18q16 55 22.5 78.5t6.5 38.5q0 16 -13.5 29.5t-56.5 13.5q-78 0 -116.5 -29t-38.5 -68q0 -29 16 -57q6 -10 6 -20q0 -16 -21.5 -26.5t-50.5 -10.5q-27 0 -50 7t-36 19q-20 20 -20 56z" />
<glyph unicode="&#xeb;" horiz-adv-x="1167" d="M82 240q0 106 57.5 212.5t154.5 190.5t225.5 137.5t271.5 53.5q174 0 254.5 -59.5t80.5 -145.5q0 -100 -70.5 -171t-240.5 -100l-510 -86q0 -76 42 -119.5t155 -43.5q102 0 189 24.5t167 63.5q37 18 57 18q47 0 48 -57q0 -35 -43 -58q-238 -129 -478 -129 q-96 0 -164.5 20.5t-111.5 56.5t-63.5 85t-20.5 107zM307 395l447 72q102 16 134 47t32 78q0 49 -49.5 87t-147.5 38q-72 0 -141.5 -26.5t-126 -72t-96.5 -103.5t-52 -120zM334 1110v68q0 31 25.5 53t78.5 22t78 -22.5t25 -52.5v-68q0 -31 -25 -53.5t-78 -22.5t-78.5 22.5 t-25.5 53.5zM692 1112v68q0 31 25 53t78 22t78.5 -22.5t25.5 -52.5v-68q0 -31 -25.5 -53.5t-78.5 -22.5t-78 22.5t-25 53.5z" />
<glyph unicode="&#xec;" horiz-adv-x="493" d="M111 1198q0 29 26.5 51.5t63.5 22.5q29 0 46.5 -10.5t33.5 -36.5l92 -166q10 -18 12 -26.5t2 -14.5q0 -25 -23.5 -42.5t-53.5 -17.5q-45 0 -78 50l-109 155q-12 14 -12 35zM143 55v695q0 33 26 54t79 21t77.5 -21.5t24.5 -53.5v-695q0 -31 -24.5 -53t-77.5 -22t-79 22.5 t-26 52.5z" />
<glyph unicode="&#xed;" horiz-adv-x="493" d="M111 1018q0 6 2 14t12 27l92 166q14 27 32 37t48 10q37 0 63.5 -22.5t26.5 -51.5q0 -20 -12 -35l-108 -155q-35 -49 -78 -50q-33 0 -55.5 17.5t-22.5 42.5zM143 55v695q0 33 26 54t79 21t77.5 -21.5t24.5 -53.5v-695q0 -31 -24.5 -53t-77.5 -22t-79 22.5t-26 52.5z" />
<glyph unicode="&#xee;" horiz-adv-x="493" d="M-6 1055q0 35 22.5 72.5t65.5 70.5t105.5 53.5t144.5 20.5q98 0 139 -27.5t41 -66.5q0 -29 -14.5 -78t-34.5 -86q-12 -23 -27.5 -31t-50.5 -8q-41 0 -41 31q0 12 2 18q16 55 22.5 78.5t6.5 38.5q0 16 -13.5 29.5t-56.5 13.5q-78 0 -116.5 -29t-38.5 -68q0 -29 16 -57 q6 -10 6 -20q0 -16 -21.5 -26.5t-50.5 -10.5q-27 0 -50 7t-36 19q-20 20 -20 56zM143 55v695q0 33 26 54t79 21t77.5 -21.5t24.5 -53.5v-695q0 -31 -24.5 -53t-77.5 -22t-79 22.5t-26 52.5z" />
<glyph unicode="&#xef;" horiz-adv-x="493" d="M-33 1110v68q0 31 25.5 53t78.5 22t78 -22.5t25 -52.5v-68q0 -31 -25 -53.5t-78 -22.5t-78.5 22.5t-25.5 53.5zM143 55v695q0 33 26 54t79 21t77.5 -21.5t24.5 -53.5v-695q0 -31 -24.5 -53t-77.5 -22t-79 22.5t-26 52.5zM325 1112v68q0 31 25 53t78 22t78.5 -22.5 t25.5 -52.5v-68q0 -31 -25.5 -53.5t-78.5 -22.5t-78 22.5t-25 53.5z" />
<glyph unicode="&#xf0;" horiz-adv-x="1236" d="M82 1219q0 90 85 154.5t253 64.5q82 0 164 -17.5t156.5 -49.5t139 -77t113.5 -98l162 66q8 4 25 4q39 0 51 -37q6 -18 6 -31q0 -37 -39 -53l-133 -53q29 -61 35 -121q10 -119 28.5 -215.5t18.5 -194.5q0 -63 -25.5 -132t-73 -134.5t-113 -124.5t-144 -103t-167.5 -70 t-186 -26q-186 0 -269 71t-83 183q0 104 58.5 211t151.5 191t209 137t230 53q29 0 61.5 -4t65.5 -11t61.5 -16.5t49.5 -21.5q-8 152 -64 266l-209 -82q-16 -4 -20 -4q-16 0 -31.5 10.5t-23.5 32.5q-6 14 -7 29q0 33 39 49l185 72q-66 82 -155 121.5t-193 39.5 q-63 0 -101.5 -15t-61 -37.5t-34.5 -48.5t-24.5 -48.5t-32 -37.5t-56.5 -15q-43 0 -72.5 33.5t-29.5 89.5zM307 309q0 -98 57.5 -153.5t155.5 -55.5q84 0 158 34t129 89.5t88 127t33 149.5q0 92 -58.5 142t-162.5 50q-86 0 -159 -32.5t-126 -87t-84 -123t-31 -140.5z" />
<glyph unicode="&#xf1;" horiz-adv-x="1288" d="M143 57v676q0 35 22.5 58.5t74.5 23.5q53 0 75.5 -23.5t22.5 -58.5v-168q166 268 496 269q180 0 266 -72t86 -189q0 -63 -22.5 -137t-62.5 -149.5t-97.5 -148t-124.5 -132.5q-23 -23 -40.5 -29t-37.5 -6q-27 0 -46.5 19.5t-19.5 40.5q0 10 4 21t21 28q49 51 87 109.5 t63.5 114.5t40 107.5t14.5 92.5q0 106 -54.5 157.5t-152.5 51.5q-78 0 -153 -35t-132 -97.5t-92 -147.5t-35 -185v-191q0 -35 -23.5 -58.5t-78.5 -23.5q-53 0 -77 24t-24 58zM340 1184q0 31 18.5 50t59.5 19q29 0 44 -12t30 -33q23 -33 67 -32q23 0 39 12t35.5 26.5t45 26.5 t64.5 12q94 0 137.5 -31.5t43.5 -84.5q0 -31 -18.5 -50.5t-59.5 -19.5q-29 0 -44.5 12.5t-29.5 32.5q-23 33 -67 33q-23 0 -42.5 -12.5t-41 -26.5t-46 -26.5t-55.5 -12.5q-94 0 -137 31.5t-43 85.5z" />
<glyph unicode="&#xf2;" horiz-adv-x="1224" d="M82 225q0 104 57.5 213t154.5 197t225 143.5t269 55.5q188 0 271.5 -70t83.5 -182q0 -104 -57.5 -212t-153.5 -197t-225 -145.5t-273 -56.5q-186 0 -269 71t-83 183zM303 309q0 -98 57.5 -153.5t155.5 -55.5q84 0 158 34t129 89.5t88 127t33 149.5q0 92 -59 148.5 t-163 56.5q-86 0 -158.5 -33t-125.5 -88.5t-84 -127t-31 -147.5zM471 1198q0 29 26.5 51.5t63.5 22.5q29 0 46.5 -10.5t33.5 -36.5l92 -166q10 -18 12 -26.5t2 -14.5q0 -25 -23.5 -42.5t-53.5 -17.5q-45 0 -78 50l-109 155q-12 14 -12 35z" />
<glyph unicode="&#xf3;" horiz-adv-x="1224" d="M82 225q0 104 57.5 213t154.5 197t225 143.5t269 55.5q188 0 271.5 -70t83.5 -182q0 -104 -57.5 -212t-153.5 -197t-225 -145.5t-273 -56.5q-186 0 -269 71t-83 183zM303 309q0 -98 57.5 -153.5t155.5 -55.5q84 0 158 34t129 89.5t88 127t33 149.5q0 92 -59 148.5 t-163 56.5q-86 0 -158.5 -33t-125.5 -88.5t-84 -127t-31 -147.5zM496 1018q0 6 2 14t12 27l92 166q14 27 32 37t48 10q37 0 63.5 -22.5t26.5 -51.5q0 -20 -12 -35l-108 -155q-35 -49 -78 -50q-33 0 -55.5 17.5t-22.5 42.5z" />
<glyph unicode="&#xf4;" horiz-adv-x="1224" d="M82 225q0 104 57.5 213t154.5 197t225 143.5t269 55.5q188 0 271.5 -70t83.5 -182q0 -104 -57.5 -212t-153.5 -197t-225 -145.5t-273 -56.5q-186 0 -269 71t-83 183zM303 309q0 -98 57.5 -153.5t155.5 -55.5q84 0 158 34t129 89.5t88 127t33 149.5q0 92 -59 148.5 t-163 56.5q-86 0 -158.5 -33t-125.5 -88.5t-84 -127t-31 -147.5zM356 1055q0 35 22.5 72.5t65.5 70.5t105.5 53.5t144.5 20.5q98 0 139 -27.5t41 -66.5q0 -29 -14.5 -78t-34.5 -86q-12 -23 -27.5 -31t-50.5 -8q-41 0 -41 31q0 12 2 18q16 55 22.5 78.5t6.5 38.5 q0 16 -13.5 29.5t-56.5 13.5q-78 0 -116.5 -29t-38.5 -68q0 -29 16 -57q6 -10 6 -20q0 -16 -21.5 -26.5t-50.5 -10.5q-27 0 -50 7t-36 19q-20 20 -20 56z" />
<glyph unicode="&#xf5;" horiz-adv-x="1224" d="M82 225q0 104 57.5 213t154.5 197t225 143.5t269 55.5q188 0 271.5 -70t83.5 -182q0 -104 -57.5 -212t-153.5 -197t-225 -145.5t-273 -56.5q-186 0 -269 71t-83 183zM303 309q0 -98 57.5 -153.5t155.5 -55.5q84 0 158 34t129 89.5t88 127t33 149.5q0 92 -59 148.5 t-163 56.5q-86 0 -158.5 -33t-125.5 -88.5t-84 -127t-31 -147.5zM322 1184q0 31 18.5 50t59.5 19q29 0 44 -12t30 -33q23 -33 67 -32q23 0 39 12t35.5 26.5t45 26.5t64.5 12q94 0 137.5 -31.5t43.5 -84.5q0 -31 -18.5 -50.5t-59.5 -19.5q-29 0 -44.5 12.5t-29.5 32.5 q-23 33 -67 33q-23 0 -42.5 -12.5t-41 -26.5t-46 -26.5t-55.5 -12.5q-94 0 -137 31.5t-43 85.5z" />
<glyph unicode="&#xf6;" horiz-adv-x="1224" d="M82 225q0 104 57.5 213t154.5 197t225 143.5t269 55.5q188 0 271.5 -70t83.5 -182q0 -104 -57.5 -212t-153.5 -197t-225 -145.5t-273 -56.5q-186 0 -269 71t-83 183zM303 309q0 -98 57.5 -153.5t155.5 -55.5q84 0 158 34t129 89.5t88 127t33 149.5q0 92 -59 148.5 t-163 56.5q-86 0 -158.5 -33t-125.5 -88.5t-84 -127t-31 -147.5zM328 1110v68q0 31 25.5 53t78.5 22t78 -22.5t25 -52.5v-68q0 -31 -25 -53.5t-78 -22.5t-78.5 22.5t-25.5 53.5zM686 1112v68q0 31 25 53t78 22t78.5 -22.5t25.5 -52.5v-68q0 -31 -25.5 -53.5t-78.5 -22.5 t-78 22.5t-25 53.5z" />
<glyph unicode="&#xf7;" horiz-adv-x="710" d="M61 524q0 29 15.5 48.5t44.5 19.5h469q29 0 44 -19.5t15 -48.5q0 -31 -15.5 -50t-43.5 -19h-469q-29 0 -44.5 19.5t-15.5 49.5zM274 291v51q0 25 20.5 43t61.5 18q45 0 64.5 -18t19.5 -43v-51q0 -29 -19.5 -45.5t-64.5 -16.5q-41 0 -61.5 16.5t-20.5 45.5zM274 705v51 q0 29 20.5 45t61.5 16q45 0 64.5 -16.5t19.5 -44.5v-51q0 -27 -19.5 -44.5t-64.5 -17.5q-41 0 -61.5 17.5t-20.5 44.5z" />
<glyph unicode="&#xf8;" horiz-adv-x="1224" d="M82 225q0 104 57.5 213t154.5 197t225 143.5t269 55.5q29 0 54.5 -2.5t48.5 -6.5l90 93q20 20 47 20q35 0 70 -35t35 -67q0 -25 -23 -48l-37 -36q70 -63 70 -170q0 -104 -57.5 -212t-153.5 -197t-225 -145.5t-273 -56.5q-53 0 -96 6l-90 -90q-23 -23 -51 -22 q-33 0 -66 35q-35 35 -35 67q0 27 23 49l35 35q-37 33 -54.5 77t-17.5 97zM297 309q0 -66 31 -108l460 491q-41 13 -86 13q-86 0 -159.5 -34t-128 -89.5t-86 -127t-31.5 -145.5zM440 111q16 -6 36 -8.5t40 -2.5q84 0 159 34t132 90.5t90 128t33 147.5q0 27 -7.5 53.5 t-23.5 48.5z" />
<glyph unicode="&#xf9;" horiz-adv-x="1288" d="M102 242q0 61 22.5 134t62.5 146.5t97.5 145t125.5 131.5q23 23 40 29t37 6q27 0 46.5 -19.5t19.5 -40.5q0 -10 -4 -21.5t-21 -27.5q-49 -53 -87 -109.5t-63.5 -113t-39.5 -107.5t-14 -92q0 -106 54 -158.5t152 -52.5q80 0 155 35t131 96.5t91 145.5t35 184v180 q0 35 23.5 58.5t78.5 23.5q53 0 77 -23.5t24 -58.5v-672q0 -35 -22.5 -58t-73.5 -23q-53 0 -76 23.5t-23 57.5v183q-84 -137 -203.5 -205t-271.5 -68q-186 0 -279.5 77t-93.5 194zM545 1198q0 29 26.5 51.5t63.5 22.5q29 0 46.5 -10.5t33.5 -36.5l92 -166q10 -18 12 -26.5 t2 -14.5q0 -25 -23.5 -42.5t-53.5 -17.5q-45 0 -78 50l-109 155q-12 14 -12 35z" />
<glyph unicode="&#xfa;" horiz-adv-x="1288" d="M102 242q0 61 22.5 134t62.5 146.5t97.5 145t125.5 131.5q23 23 40 29t37 6q27 0 46.5 -19.5t19.5 -40.5q0 -10 -4 -21.5t-21 -27.5q-49 -53 -87 -109.5t-63.5 -113t-39.5 -107.5t-14 -92q0 -106 54 -158.5t152 -52.5q80 0 155 35t131 96.5t91 145.5t35 184v180 q0 35 23.5 58.5t78.5 23.5q53 0 77 -23.5t24 -58.5v-672q0 -35 -22.5 -58t-73.5 -23q-53 0 -76 23.5t-23 57.5v183q-84 -137 -203.5 -205t-271.5 -68q-186 0 -279.5 77t-93.5 194zM633 1018q0 6 2 14t12 27l92 166q14 27 32 37t48 10q37 0 63.5 -22.5t26.5 -51.5 q0 -20 -12 -35l-108 -155q-35 -49 -78 -50q-33 0 -55.5 17.5t-22.5 42.5z" />
<glyph unicode="&#xfb;" horiz-adv-x="1288" d="M102 242q0 61 22.5 134t62.5 146.5t97.5 145t125.5 131.5q23 23 40 29t37 6q27 0 46.5 -19.5t19.5 -40.5q0 -10 -4 -21.5t-21 -27.5q-49 -53 -87 -109.5t-63.5 -113t-39.5 -107.5t-14 -92q0 -106 54 -158.5t152 -52.5q80 0 155 35t131 96.5t91 145.5t35 184v180 q0 35 23.5 58.5t78.5 23.5q53 0 77 -23.5t24 -58.5v-672q0 -35 -22.5 -58t-73.5 -23q-53 0 -76 23.5t-23 57.5v183q-84 -137 -203.5 -205t-271.5 -68q-186 0 -279.5 77t-93.5 194zM475 1055q0 35 22.5 72.5t65.5 70.5t105.5 53.5t144.5 20.5q98 0 139 -27.5t41 -66.5 q0 -29 -14.5 -78t-34.5 -86q-12 -23 -27.5 -31t-50.5 -8q-41 0 -41 31q0 12 2 18q16 55 22.5 78.5t6.5 38.5q0 16 -13.5 29.5t-56.5 13.5q-78 0 -116.5 -29t-38.5 -68q0 -29 16 -57q6 -10 6 -20q0 -16 -21.5 -26.5t-50.5 -10.5q-27 0 -50 7t-36 19q-20 20 -20 56z" />
<glyph unicode="&#xfc;" horiz-adv-x="1288" d="M102 242q0 61 22.5 134t62.5 146.5t97.5 145t125.5 131.5q23 23 40 29t37 6q27 0 46.5 -19.5t19.5 -40.5q0 -10 -4 -21.5t-21 -27.5q-49 -53 -87 -109.5t-63.5 -113t-39.5 -107.5t-14 -92q0 -106 54 -158.5t152 -52.5q80 0 155 35t131 96.5t91 145.5t35 184v180 q0 35 23.5 58.5t78.5 23.5q53 0 77 -23.5t24 -58.5v-672q0 -35 -22.5 -58t-73.5 -23q-53 0 -76 23.5t-23 57.5v183q-84 -137 -203.5 -205t-271.5 -68q-186 0 -279.5 77t-93.5 194zM465 1110v68q0 31 25.5 53t78.5 22t78 -22.5t25 -52.5v-68q0 -31 -25 -53.5t-78 -22.5 t-78.5 22.5t-25.5 53.5zM823 1112v68q0 31 25 53t78 22t78.5 -22.5t25.5 -52.5v-68q0 -31 -25.5 -53.5t-78.5 -22.5t-78 22.5t-25 53.5z" />
<glyph unicode="&#xfd;" horiz-adv-x="1300" d="M102 242q0 61 22.5 134t62.5 146.5t97.5 145t125.5 131.5q23 23 40 29t37 6q27 0 46.5 -19.5t19.5 -40.5q0 -10 -4 -21.5t-21 -27.5q-49 -53 -87 -109.5t-63.5 -113t-39.5 -107.5t-14 -92q0 -106 54 -158.5t152 -52.5q80 0 155 35t131 96.5t91 145.5t35 184v180 q0 35 23.5 58.5t78.5 23.5q53 0 77 -23.5t24 -58.5v-678q0 -33 6 -55.5t6 -46.5q0 -104 -56.5 -208.5t-152.5 -188.5t-226 -136.5t-280 -52.5q-168 0 -253 64.5t-85 154.5q0 55 30 89t73 34q37 0 56.5 -15.5t31.5 -38t24.5 -48t35 -48t60.5 -38t101 -15.5q94 0 173 31 t137.5 85t91 131t32.5 169v322q-84 -137 -203.5 -205t-271.5 -68q-186 0 -279.5 77t-93.5 194zM623 1018q0 6 2 14t12 27l92 166q14 27 32 37t48 10q37 0 63.5 -22.5t26.5 -51.5q0 -20 -12 -35l-108 -155q-35 -49 -78 -50q-33 0 -55.5 17.5t-22.5 42.5z" />
<glyph unicode="&#xfe;" horiz-adv-x="1265" d="M123 242q0 41 9 68.5t13 60.5v985q0 35 24 58.5t77 23.5q55 0 78.5 -23.5t23.5 -58.5v-754q84 111 215 171.5t277 60.5q184 0 264 -75t80 -200q0 -104 -57.5 -209.5t-155 -189.5t-225.5 -136.5t-267 -52.5q-76 0 -131 15v-537q0 -35 -23.5 -58.5t-78.5 -23.5 q-53 0 -77 23.5t-24 58.5v684q-23 45 -22 109zM338 311q0 -90 56.5 -144t152.5 -54q88 0 164.5 32.5t133 87t88.5 125t32 148.5q0 98 -52.5 151.5t-150.5 53.5q-86 0 -163 -34t-135 -89.5t-92 -128t-34 -148.5z" />
<glyph unicode="&#xff;" horiz-adv-x="1300" d="M102 242q0 61 22.5 134t62.5 146.5t97.5 145t125.5 131.5q23 23 40 29t37 6q27 0 46.5 -19.5t19.5 -40.5q0 -10 -4 -21.5t-21 -27.5q-49 -53 -87 -109.5t-63.5 -113t-39.5 -107.5t-14 -92q0 -106 54 -158.5t152 -52.5q80 0 155 35t131 96.5t91 145.5t35 184v180 q0 35 23.5 58.5t78.5 23.5q53 0 77 -23.5t24 -58.5v-678q0 -33 6 -55.5t6 -46.5q0 -104 -56.5 -208.5t-152.5 -188.5t-226 -136.5t-280 -52.5q-168 0 -253 64.5t-85 154.5q0 55 30 89t73 34q37 0 56.5 -15.5t31.5 -38t24.5 -48t35 -48t60.5 -38t101 -15.5q94 0 173 31 t137.5 85t91 131t32.5 169v322q-84 -137 -203.5 -205t-271.5 -68q-186 0 -279.5 77t-93.5 194zM418 1110v68q0 31 25.5 53t78.5 22t78 -22.5t25 -52.5v-68q0 -31 -25 -53.5t-78 -22.5t-78.5 22.5t-25.5 53.5zM776 1112v68q0 31 25 53t78 22t78.5 -22.5t25.5 -52.5v-68 q0 -31 -25.5 -53.5t-78.5 -22.5t-78 22.5t-25 53.5z" />
<glyph unicode="&#x152;" horiz-adv-x="2150" d="M82 440q0 168 80 319.5t214 266.5t309 182.5t366 67.5q74 0 142.5 -8t127.5 -27l20 4q37 8 78 14.5t80 10.5t73 7t54 3q127 0 209 -11.5t129 -31.5t65.5 -49t18.5 -62q0 -47 -30.5 -75.5t-71.5 -28.5q-29 0 -58.5 11t-46.5 28q-23 20 -45 36.5t-54 28t-75 16.5t-102 5 q-14 0 -36 -2t-45.5 -4t-44 -6.5t-32.5 -6.5q-49 -12 -79 -25t-45 -38t-19 -66t-4 -108v-184h440q29 0 45 -18.5t16 -47.5t-16 -47.5t-45 -18.5h-440v-368q0 -35 5 -54.5t21.5 -29.5t50 -13.5t88.5 -3.5q88 0 159 7.5t127 20.5t103.5 30.5t88.5 38.5q27 14 47 14 q61 0 61 -59q0 -29 -14.5 -47.5t-50.5 -38.5q-35 -18 -90.5 -37t-128 -32t-156.5 -22.5t-174 -9.5q-78 0 -134.5 4.5t-95.5 13.5t-62.5 22.5t-35.5 33.5q-88 -35 -183 -54.5t-198 -19.5q-143 0 -256 33t-190.5 94.5t-118.5 148.5t-41 193zM324 510q0 -96 30.5 -170t87 -124 t136.5 -76.5t176 -26.5q80 0 153.5 15t139.5 38v655q0 100 14 173t51 126q-63 14 -143 15q-133 0 -251 -48.5t-206 -132.5t-138 -198.5t-50 -245.5z" />
<glyph unicode="&#x153;" horiz-adv-x="1951" d="M82 225q0 104 57.5 213t154.5 197t225 143.5t269 55.5q145 0 215 -54.5t91 -132.5q94 88 222 137.5t257 49.5q174 0 255 -59.5t81 -145.5q0 -100 -71 -171t-241 -100l-510 -86q0 -76 42 -119.5t155 -43.5q102 0 189.5 24.5t166.5 63.5q37 18 58 18q39 0 45 -43v-12 q0 -37 -41 -60q-238 -129 -477 -129q-147 0 -217 52.5t-97 144.5q-96 -96 -220 -146.5t-259 -50.5q-184 0 -267 71t-83 183zM303 309q0 -98 57.5 -153.5t155.5 -55.5q84 0 158 34t129 89.5t88 127t33 149.5q0 92 -59 148.5t-163 56.5q-86 0 -158.5 -33t-125.5 -88.5 t-84 -127t-31 -147.5zM1090 395l446 72q102 16 134 47t32 78q0 49 -49.5 87t-147.5 38q-72 0 -141.5 -26.5t-125.5 -72t-96 -103.5t-52 -120z" />
<glyph unicode="&#x2c6;" horiz-adv-x="600" d="M41 1055q0 35 22.5 72.5t65.5 70.5t105.5 53.5t144.5 20.5q98 0 139 -27.5t41 -66.5q0 -29 -14.5 -78t-34.5 -86q-12 -23 -27.5 -31t-50.5 -8q-41 0 -41 31q0 12 2 18q16 55 22.5 78.5t6.5 38.5q0 16 -13.5 29.5t-56.5 13.5q-78 0 -116.5 -29t-38.5 -68q0 -29 16 -57 q6 -10 6 -20q0 -16 -21.5 -26.5t-50.5 -10.5q-27 0 -50 7t-36 19q-20 20 -20 56z" />
<glyph unicode="&#x2dc;" horiz-adv-x="665" d="M41 1184q0 31 18.5 50t59.5 19q29 0 44 -12t30 -33q23 -33 67 -32q23 0 39 12t35.5 26.5t45 26.5t64.5 12q94 0 137.5 -31.5t43.5 -84.5q0 -31 -18.5 -50.5t-59.5 -19.5q-29 0 -44.5 12.5t-29.5 32.5q-23 33 -67 33q-23 0 -42.5 -12.5t-41 -26.5t-46 -26.5t-55.5 -12.5 q-94 0 -137 31.5t-43 85.5z" />
<glyph unicode="&#x2000;" horiz-adv-x="876" />
<glyph unicode="&#x2001;" horiz-adv-x="1753" />
<glyph unicode="&#x2002;" horiz-adv-x="876" />
<glyph unicode="&#x2003;" horiz-adv-x="1753" />
<glyph unicode="&#x2004;" horiz-adv-x="584" />
<glyph unicode="&#x2005;" horiz-adv-x="438" />
<glyph unicode="&#x2006;" horiz-adv-x="292" />
<glyph unicode="&#x2007;" horiz-adv-x="292" />
<glyph unicode="&#x2008;" horiz-adv-x="219" />
<glyph unicode="&#x2009;" horiz-adv-x="350" />
<glyph unicode="&#x200a;" horiz-adv-x="97" />
<glyph unicode="&#x2010;" horiz-adv-x="710" d="M61 524q0 29 15.5 48.5t44.5 19.5h469q29 0 44 -19.5t15 -48.5q0 -31 -15.5 -50t-43.5 -19h-469q-29 0 -44.5 19.5t-15.5 49.5z" />
<glyph unicode="&#x2011;" horiz-adv-x="710" d="M61 524q0 29 15.5 48.5t44.5 19.5h469q29 0 44 -19.5t15 -48.5q0 -31 -15.5 -50t-43.5 -19h-469q-29 0 -44.5 19.5t-15.5 49.5z" />
<glyph unicode="&#x2012;" horiz-adv-x="710" d="M61 524q0 29 15.5 48.5t44.5 19.5h469q29 0 44 -19.5t15 -48.5q0 -31 -15.5 -50t-43.5 -19h-469q-29 0 -44.5 19.5t-15.5 49.5z" />
<glyph unicode="&#x2013;" horiz-adv-x="841" d="M143 432q0 63 60 64h436q59 0 59 -64q0 -66 -59 -65h-436q-59 0 -60 65z" />
<glyph unicode="&#x2014;" horiz-adv-x="1312" d="M102 432q0 63 60 64h989q59 0 59 -64q0 -66 -59 -65h-989q-59 0 -60 65z" />
<glyph unicode="&#x2018;" horiz-adv-x="333" d="M61 1143v47q0 20 8.5 43.5t32.5 77.5l43 96q8 25 37 25q12 0 29 -7q39 -16 39 -45q0 -4 -4 -16l-47 -111q39 -20 39 -55v-55q0 -29 -22.5 -46.5t-68.5 -17.5q-43 0 -64.5 17.5t-21.5 46.5z" />
<glyph unicode="&#x2019;" horiz-adv-x="333" d="M84 1137q0 4 4 16l47 111q-39 20 -39 55v56q0 29 22.5 46t67.5 17q43 0 64.5 -17.5t21.5 -45.5v-48q0 -20 -8 -43.5t-33 -76.5l-43 -97q-10 -25 -36 -24q-14 0 -29 6q-39 16 -39 45z" />
<glyph unicode="&#x201a;" horiz-adv-x="333" d="M84 -127q0 4 4 16l47 111q-39 20 -39 55v56q0 29 22.5 46t67.5 17q43 0 64.5 -17.5t21.5 -45.5v-48q0 -20 -8 -43.5t-33 -76.5l-43 -97q-10 -25 -36 -24q-14 0 -29 6q-39 16 -39 45z" />
<glyph unicode="&#x201c;" horiz-adv-x="573" d="M61 1143v47q0 20 8.5 43.5t32.5 77.5l43 96q8 25 37 25q12 0 29 -7q39 -16 39 -45q0 -4 -4 -16l-47 -111q39 -20 39 -55v-55q0 -29 -22.5 -46.5t-68.5 -17.5q-43 0 -64.5 17.5t-21.5 46.5zM301 1143v47q0 20 8 43.5t33 77.5l43 96q8 25 37 25q12 0 29 -7q39 -16 38 -45 q0 -4 -4 -16l-47 -111q39 -20 39 -55v-55q0 -29 -22.5 -46.5t-67.5 -17.5q-43 0 -64.5 17.5t-21.5 46.5z" />
<glyph unicode="&#x201d;" horiz-adv-x="573" d="M84 1137q0 4 4 16l47 111q-39 20 -39 55v56q0 29 22.5 46t67.5 17q43 0 64.5 -17.5t21.5 -45.5v-48q0 -20 -8 -43.5t-33 -76.5l-43 -97q-10 -25 -36 -24q-14 0 -29 6q-39 16 -39 45zM324 1137q0 4 4 16l47 111q-39 20 -39 55v56q0 29 22.5 46t67.5 17q43 0 64.5 -17.5 t21.5 -45.5v-48q0 -20 -8 -43.5t-33 -76.5l-43 -97q-10 -25 -36 -24q-14 0 -29 6q-39 16 -39 45z" />
<glyph unicode="&#x201e;" horiz-adv-x="573" d="M84 -127q0 4 4 16l47 111q-39 20 -39 55v56q0 29 22.5 46t67.5 17q43 0 64.5 -17.5t21.5 -45.5v-48q0 -20 -8 -43.5t-33 -76.5l-43 -97q-10 -25 -36 -24q-14 0 -29 6q-39 16 -39 45zM324 -127q0 4 4 16l47 111q-39 20 -39 55v56q0 29 22.5 46t67.5 17q43 0 64.5 -17.5 t21.5 -45.5v-48q0 -20 -8 -43.5t-33 -76.5l-43 -97q-10 -25 -36 -24q-14 0 -29 6q-39 16 -39 45z" />
<glyph unicode="&#x2022;" horiz-adv-x="493" d="M123 369v77q0 39 29.5 65t95.5 26q63 0 93 -26t30 -65v-77q0 -39 -30 -64.5t-93 -25.5q-66 0 -95.5 25.5t-29.5 64.5z" />
<glyph unicode="&#x202f;" horiz-adv-x="350" />
<glyph unicode="&#x2039;" horiz-adv-x="579" d="M102 473q0 12 7.5 24.5t23.5 28.5l223 246q18 20 43 21q27 0 50 -23q27 -27 26 -53q0 -23 -14 -37l-199 -209l197 -207q14 -14 14 -35q0 -29 -27 -55q-23 -23 -49 -22q-25 0 -43 20l-221 246q-31 33 -31 55z" />
<glyph unicode="&#x203a;" horiz-adv-x="579" d="M104 717q0 27 27 53q23 23 49 23q25 0 43 -21l223 -246q16 -16 23.5 -28.5t7.5 -24.5q0 -23 -31 -55l-221 -246q-18 -20 -43 -20q-27 0 -49 22q-27 27 -27 55q0 20 15 35l196 207l-198 209q-14 14 -15 37z" />
<glyph unicode="&#x205f;" horiz-adv-x="438" />
<glyph unicode="&#x20ac;" horiz-adv-x="1597" d="M61 500q0 27 14.5 44t39.5 17h133q16 80 43 152h-115q-25 0 -39 17.5t-14 43.5q0 27 14.5 44.5t38.5 17.5h172q53 94 129 176t171 142t207 94t237 34q170 0 276.5 -49t161.5 -121q27 -33 26 -78q0 -43 -34.5 -73.5t-89.5 -30.5q-29 0 -57.5 15.5t-51.5 41.5 q-68 82 -143.5 118t-180.5 36q-141 0 -255.5 -86t-184.5 -219h344q25 0 39 -17.5t14 -44.5t-14 -44t-39 -17h-395q-23 -78 -29 -152h363q25 0 39 -17.5t14 -43.5q0 -29 -14.5 -45.5t-38.5 -16.5h-365q10 -160 87 -242.5t222 -82.5q72 0 133.5 17t114.5 46t98.5 67t81.5 81 q25 29 48.5 43t58.5 14q33 0 51.5 -16.5t18.5 -45.5q0 -33 -31 -65q-53 -57 -125 -108.5t-154 -90.5t-171 -61.5t-177 -22.5q-135 0 -229 32t-153.5 90.5t-87 140t-27.5 184.5v20h-121q-25 0 -39.5 16.5t-14.5 45.5z" />
<glyph unicode="&#x25fc;" horiz-adv-x="808" d="M0 0v809h809v-809h-809z" />
</font>
</defs>
</svg>
