<?xml version="1.0" standalone="no"?>
<!DOCTYPE svg PUBLIC "-//W3C//DTD SVG 1.1//EN" "http://www.w3.org/Graphics/SVG/1.1/DTD/svg11.dtd" >
<svg xmlns="http://www.w3.org/2000/svg">
<metadata></metadata>
<defs>
<font id="belligerent_madnessregular" horiz-adv-x="913" >
<font-face units-per-em="2048" ascent="1638" descent="-410" />
<missing-glyph horiz-adv-x="614" />
<glyph horiz-adv-x="2048" />
<glyph horiz-adv-x="2048" />
<glyph unicode="&#xd;" horiz-adv-x="2048" />
<glyph unicode=" "  horiz-adv-x="614" />
<glyph unicode="&#x09;" horiz-adv-x="614" />
<glyph unicode="&#xa0;" horiz-adv-x="614" />
<glyph unicode="!" horiz-adv-x="407" d="M37 6q2 23 19.5 29t41.5 28q20 33 53 65t68 26q12 -18 27 -60q27 12 47 10q0 -4 2 -6l2 -4q6 -16 11 -27.5t10.5 -20.5t9.5 -20.5t6 -27.5l-37 -10q0 -10 -1 -17.5t-1 -11.5q-2 -12 -19.5 -36.5t-39 -47t-43 -34t-33.5 0.5q-10 25 -17 54q-18 -16 -36.5 -24.5t-28.5 1.5 q-16 33 -23.5 60.5t-15.5 62.5q0 4 -1 5t-1 5zM37 1221q0 12 2 32v9q6 18 25.5 43.5t42 46t41 29t24.5 -6.5l2 2v-39q23 20 41 29.5t25 -6.5l2 2v-14q16 16 30.5 18t18.5 -14q0 -78 -1 -194t1 -232.5t9 -218t22 -152.5q10 -35 15 -76t34 -67q-23 -14 -43.5 -25.5 t-42.5 -24.5l-2 -2l36 -36l-2 -2q-6 -6 -16 -15.5t-22.5 -16.5t-23.5 -10.5t-19 5.5q-8 8 -13 14q-14 -10 -27.5 -14t-23.5 6q-6 10 -12 24q-23 -27 -48.5 -46t-41.5 -11q-2 -4 -7 -8v12q-10 16 -14 44t-4 61t3 65.5t7 61.5q-4 78 -8 153.5t-6 153.5q-4 96 -3 193.5t1 195.5 q-2 18 -2 31zM59 532q0 2 1 4.5t1 6.5t-1 -1t-1 -10z" />
<glyph unicode="&#x22;" horiz-adv-x="518" d="M25 1260l135 116v-26l4 2v-25q0 -10 2 -22q10 6 22 8q2 -2 9 -2q4 0 5 -1t5 -1q10 -39 11 -102.5t2 -129t7 -121t27 -73.5q-33 -35 -63.5 -67t-63.5 -66q-18 16 -27.5 42.5t-13.5 59.5q-12 -4 -20 2l-3 -2v6q-4 12 -4 25q0 12 -2 26l-8 -8q-16 88 -18 179t-6 180z M306 970.5q3 57.5 13 110.5q-4 39 -4 76q0 39 11 78l8 4q4 10 12 18q6 8 21.5 24.5t33 31t36 21.5t32.5 -3q6 -4 8 -30.5t3 -66.5t1 -87v-86q0 -39 3 -69.5t10 -39.5q-23 -12 -44.5 -25.5t-43.5 -25.5l38 -37l-2 -2q-6 -6 -16 -15t-22.5 -16.5t-23.5 -10.5t-20 5 q-6 6 -10 41q-14 -4 -20 6q-27 41 -24 98.5z" />
<glyph unicode="#" horiz-adv-x="1091" d="M27 676.5q4 9.5 8 19.5q4 8 6 15l113 61q-2 6 -4.5 11t-2.5 12q23 -2 58 8q2 2 10 6l37 12q16 8 33.5 17.5t33.5 17.5q0 23 -1 54.5t-3 65.5t-5 67.5t-7 58.5l-14 -12q0 16 1 30.5t3 30.5q6 16 20.5 36.5t33 39t39 30t40.5 7.5q2 -4 4 -8.5t4 -10.5q23 23 45.5 35 t26.5 -10q10 -76 8 -170t-12 -193q41 8 83 13.5t85 9.5q-4 47 -4 98q0 53 14 98q10 53 35.5 101.5t72.5 89.5q4 4 14.5 12t22 14.5t21.5 6.5t12 -13q-4 -102 -12 -201.5t-19 -197.5h2q4 0 32 2t59.5 5t60.5 4t35 -3q4 -16 -3 -31.5t-19.5 -30t-27 -25.5t-24.5 -21 q-25 -20 -54.5 -27.5t-62.5 -11.5q2 -16 3 -30.5t6 -31.5q2 -23 2 -45q0 -20 2 -43v-12q51 0 102 -6q27 6 67 9t58 -13q4 -18 -5 -37t-24.5 -35t-34 -29.5t-30.5 -21.5q-27 -16 -56.5 -19.5t-62.5 0.5q2 -12 3 -23t3 -24l-27 -22q-4 -59 -6 -119.5t-4 -120.5v-31l-2 -2 q-4 -12 -18.5 -34.5t-33.5 -42t-39.5 -33t-35.5 -6.5l-6 -7v23q-2 94 -11 187.5t-9 187.5v53q-47 -8 -91.5 -16.5t-89.5 -16.5q-2 -72 -3 -143.5t-1 -142.5l-135 -117v39q-4 0 -8 -1t-8 -1h-6l-7 6q-14 45 -11 97t7 101v5q2 14 3 27.5t3 25.5v37q0 16 3 26q-8 -4 -13 -4 q-14 -6 -39.5 -18.5t-53.5 -23.5t-53.5 -16t-41.5 3l8 8q-18 0 -25 2q-12 12 -3.5 30.5t24.5 36t34.5 33t26.5 21.5q66 45 144 76v20q0 41 -1 83t-3 83l-2 -4q-68 -16 -119 -33.5t-78 -21.5q-8 -2 -16 2q-53 -16 -80 -15q-8 8 -4 17.5zM489 557q45 16 90.5 29.5t92.5 23.5 q2 39 5 76t7 76q-2 6 -2 20l-94 -12l-94 -12q-2 -51 -2 -101q0 -49 -3 -100z" />
<glyph unicode="$" horiz-adv-x="1003" d="M27 815q0 6 1 11t3 12q-10 43 13.5 89t60 89t78.5 77.5t69 53.5q29 20 60.5 35.5t66.5 27.5v2v11q-4 10 -5 20t-3 21q0 12 6 26v15q2 2 4 3t6 5q10 20 29.5 41.5t38 37t35 20.5t20.5 -7l2 2v-21q2 -10 2 -30q14 -51 23 -99q117 27 243 15l-28 -33q6 -2 22 -6 q14 -4 27.5 -7t20.5 -9.5t9.5 -16.5t-8.5 -29q-6 -10 -23.5 -31.5t-37 -41t-38.5 -29.5t-32 2q-2 6 -2 19l4 2v2q-35 4 -68.5 15t-68.5 17v-12q8 -33 12 -72q2 -35 3 -68.5t3 -68.5q35 -4 69 -9t69 -13q57 -4 108 -17.5t92 -46.5q55 -47 61.5 -96t-16 -97t-64.5 -91t-79 -76 q-31 -29 -74 -59.5t-94 -59.5q2 -63 0 -127v-6q-2 -2 -4 -2q-4 -10 -11 -22.5t-18 -24.5q4 -25 5.5 -44.5t-1.5 -29.5q-2 -12 -19 -36.5t-38.5 -47.5t-43 -34t-34.5 1q-14 68 -21 135.5t-11 135.5q0 2 -1 4t-1 4q-80 -29 -142 -29q-31 0 -59.5 9.5t-59.5 11.5l21 24 q-37 6 -66.5 30.5t-64.5 39.5l-2 -2v6q2 18 15 41.5t32.5 44t42 33t43.5 8.5q29 -12 53.5 -29.5t52.5 -30.5q18 -10 49 -8t68 11q-4 84 -4 165v168q-63 -6 -122.5 -12t-106.5 -4q-18 0 -48 3t-57.5 13.5t-47 27.5t-19.5 48zM172 942q12 -27 33.5 -33t48.5 -3t53.5 10.5 t46.5 7.5q12 -2 25 -2h27q-12 90 -19 178q-55 -23 -105.5 -52.5t-82.5 -64.5q-10 -10 -15.5 -20.5t-11.5 -20.5zM590 743q12 -68 23.5 -134t21.5 -134q14 6 25.5 11.5t21.5 9.5t28.5 11t39 16t39 19.5t30.5 18.5l2 2q2 14 1 28.5t-5 29.5q-12 29 -37.5 49t-56.5 33.5 t-62.5 23.5t-56.5 16h-14zM705 1102l6 6q-2 -2 -4 -2l-2 -2v-2z" />
<glyph unicode="%" horiz-adv-x="1302" d="M27 985q-4 45 25.5 85t60.5 77q43 53 106.5 101t131 68.5t131 1t108.5 -100.5q12 -23 12 -54q0 -29 -4 -51q-12 -49 -42 -97t-68.5 -90t-85 -74t-95.5 -48q-45 -16 -90 -21q-39 -12 -63 0q-55 8 -86 45t-27 109l-6 -6q0 2 -5 20.5t-3 34.5zM47 -117q-6 39 12.5 91.5 t47 103.5t60.5 96t52 72q59 78 119.5 153.5t126.5 151.5q104 154 207.5 306.5t234.5 289.5q18 20 44 47t54.5 51.5t60.5 43t64 22.5q10 -2 12.5 -8.5t-0.5 -13.5t-7.5 -14t-6.5 -11q-47 -70 -96 -136.5t-102 -132.5v-2q-23 -35 -48.5 -66.5t-54.5 -62.5 q-150 -184 -295 -367.5t-262 -387.5h-2q-39 -72 -88 -137.5t-114 -94.5q-12 0 -19 6zM203 1028q0 -45 24 -78q15 -18 33 -28q14 -2 29 -2h30q35 10 68 33.5t53 41.5q8 37 -4 66t-35.5 48t-55.5 28.5t-62 7.5q-4 -2 -27 -6l-6 -11q-6 -4 -14.5 -8t-16.5 -8q-16 -39 -16 -84z M606 213q47 72 89 139.5t95.5 116.5t124 71.5t172.5 2.5q61 -12 103.5 -53t71.5 -93q18 -35 14 -80q4 -41 -20.5 -90t-71.5 -102l-18.5 -18.5t-18.5 -16.5q-37 -37 -79 -66.5t-85 -50t-83 -28.5t-73 -2q-76 16 -122 44.5t-67.5 65.5t-21.5 80t17 90zM731 842 q31 41 62.5 79.5t62.5 79.5q4 6 8 12.5t8 12.5q-39 -43 -73.5 -90t-67.5 -94zM786 365l13 12q-4 0 0 2q20 23 24 33q-2 0 -10 -4q-14 -16 -27 -43zM798 260q1 -27 9 -52.5t19.5 -47t21.5 -31.5q18 -16 53 -19.5t75 1t78 15.5t62 21q2 4 3 5.5t3 5.5q25 47 15 92 q-20 27 -62.5 40t-91.5 18t-97 4t-81 -7q-8 -18 -7 -45z" />
<glyph unicode="&#x26;" horiz-adv-x="1341" d="M29 201q0 10 4 26q4 25 8 46.5t6 33.5q10 53 44 116.5t80 126t99.5 119t98.5 95.5q20 16 43.5 36.5t50.5 37.5l8 8q-10 23 -16 41v2q-4 4 -4 10q-23 47 -45.5 98.5t-30.5 104.5q-2 20 -2 41v43v4q2 27 0 52.5t4 53.5q4 8 7 15.5l7 17.5q2 20 3 35.5t-1 26.5l2 2q2 0 4 2 l-10 -6q4 8 4 14q4 8 20.5 29.5t37 42t40 35t29.5 8.5q78 84 170 120q39 16 81 23.5t83 15.5q-4 -4 -6 -8t-6 -8q41 10 88 12t69 -22q37 -43 50.5 -86t11.5 -86t-16.5 -87t-32.5 -94q-49 -135 -123 -240.5t-166 -203.5q39 -72 95 -151.5t114 -139.5q37 35 89 84t106.5 92 t104.5 66.5t83 3.5q0 -6 2 -10q-18 -74 -63.5 -133.5t-86.5 -118.5q-18 -6 -36.5 -11.5t-36.5 -9.5q-16 -14 -31.5 -27.5t-32.5 -25.5q31 -27 65.5 -52.5t64.5 -47t52.5 -33.5t30.5 -10l-86 -129q-10 -4 -31 -4l-36 -41q-20 4 -41 17t-39.5 29.5t-36 34t-35.5 29.5l-37 25 q-2 -2 -4 -3t-4 -3l2 -4q-63 -57 -128 -109.5t-134.5 -97.5t-145 -79t-159.5 -54q-23 -6 -56 -7q-31 0 -61.5 7.5t-57 20.5t-42.5 36q-10 14 -18.5 24.5t-14.5 20.5q-41 18 -48 64.5t-1 93.5zM284 309.5q-5 -30.5 5 -41.5q16 -16 30 -37.5t37 -31.5q35 -18 80 -15.5t96 21.5 q47 29 88.5 71.5t84.5 81.5q4 -14 7 -26.5t7 -26.5q23 14 41 27.5t39 27.5q-4 4 -9.5 8.5t-9.5 8.5q-72 59 -135 144t-110 179l-21 21q-4 4 -6 4l-2 -2q-41 -61 -82 -124.5t-82 -123.5q-6 -8 -18.5 -37.5t-23.5 -63.5t-16 -64.5zM332 569q2 4 3 6.5t3 6.5zM575 1372l3 -2v4 q0 -2 -3 -2zM580 1368q10 -16 14 -48t4 -69q25 -31 43 -80q10 -35 15.5 -68.5t11.5 -68.5l28.5 38t38.5 54q35 49 77 118t46 136q-2 10 -3 20.5t-5 20.5t-10 21.5t-11 23.5q-47 16 -82.5 24.5t-72.5 4.5q-33 -6 -64 -18q-4 -8 -4 -9q-6 -16 -10 -31.5t-8 -31.5 q-4 -8 -5 -18.5t-3 -18.5zM594 1458q4 9 10 15q-2 -2 -6 -3q-4 -8 -4 -12zM696 907q18 20 36 41.5t34 44.5q-16 -23 -33.5 -43t-36.5 -41v-2zM1042 485q2 2 4.5 3.5t4.5 3.5t-1 -0.5t-8 -6.5z" />
<glyph unicode="'" horiz-adv-x="352" d="M45 1107q-14 118 4 228l133 103q-4 -20 -4 -29q18 8 39 6q16 16 35.5 25.5t38.5 5.5q10 -6 14 -52t4 -108q0 -61 -2 -124.5t-2 -100.5l-24 -23l-7 -24v-4q-2 -2 -4 -2v-2q-4 -8 -15 -24.5t-28 -33.5q-2 -31 -4 -62.5t-4 -62.5v-2v-16q-6 -4 -14 -12q-12 -16 -28.5 -36 t-34 -34t-33 -20.5t-25.5 2.5v2q-2 43 -2 86v90q-23 106 -37 224z" />
<glyph unicode="(" horiz-adv-x="483" d="M29.5 430q-9.5 129 5.5 258q4 51 11 100.5t24 96.5q18 74 49 144.5t78 133.5q4 6 21.5 23.5t37.5 34.5q14 18 37 39q6 6 13.5 13t15.5 13q4 6 5 13.5t5 13.5l10 -10q4 2 5 4t5 4l-16 18q23 23 44 41.5t50 34.5q20 4 24.5 0t0.5 -25q-10 -23 -23.5 -41t-28.5 -34 q-6 -23 -17 -39.5t-28 -32.5q-31 -63 -60.5 -140t-54 -158t-40 -163t-19.5 -160q12 -94 43 -180q12 -33 41 -80t58.5 -95t53 -91t23.5 -72q-10 -41 -43.5 -73.5t-70.5 -49.5q-35 -4 -64.5 17.5t-54.5 58.5q-2 2 -4 2v2q-18 31 -47 62.5t-39 66.5q-41 121 -50.5 250z" />
<glyph unicode=")" horiz-adv-x="473" d="M25 1233q2 18 15 41.5t32.5 43t42 33t43.5 9.5q4 -4 7 -5t7 -3l-12 -13q4 -12 14 -24t21 -23q25 12 45 8t37.5 -22t29.5 -47t23 -64q29 -47 50 -99t38 -105q25 -86 29 -202t-15.5 -230.5t-64.5 -218t-117 -165.5l-33 -32l-4 -4l-8 -9l-2 -2l-2 -4l-4 -4 q-10 -12 -39 -36.5t-52.5 -39t-31.5 -8.5t24 53q4 4 4 5q4 8 7 10q35 49 56 87t34.5 75.5t25 83t25.5 108.5q8 35 20.5 75t14.5 81q-4 35 -10.5 70.5t-16.5 70.5q-2 10 -4 17.5t-4 17.5q-16 59 -34.5 114.5t-39.5 108.5q-4 8 -8 21q-8 8 -10 14v6q-20 49 -45 86 q-8 12 -23.5 26.5t-30 30t-24.5 32t-10 32.5z" />
<glyph unicode="*" horiz-adv-x="698" d="M27 709q-6 27 12 50t35 42q37 37 69 53q35 31 52 41q23 8 47 3t47 -15q-4 37 8 71q0 4 4 9v24l8 6q0 8 1 15.5t1 13.5v6q0 2 1 3t1 3q4 10 22.5 34t41 45.5t42 32.5t25.5 -5l2 2v-6q6 -41 4.5 -81t-6.5 -81q2 -33 2 -66v-61q27 18 53.5 35.5t53.5 40.5q12 10 24.5 20 t28.5 21q4 2 11.5 6t14.5 7t13 1t8 -12q-2 -4 -2 -9q0 -4 -2 -8q23 8 23 -2t-9.5 -26.5t-22.5 -35t-22 -26.5q-29 -29 -62.5 -52.5t-68.5 -45.5q-4 -4 -6 -4q4 -8 11 -15q12 -14 24 -28.5t25 -28.5q23 -23 45 -47.5t43 -48.5q0 -2 2 -2l-2 -2q0 -18 -16.5 -44t-39 -47.5 t-45 -32.5t-32.5 1l-86 92q-16 16 -30.5 31.5t-29.5 31.5q-8 -12 -14 -24t-14 -25q-12 -18 -18.5 -39.5t-22.5 -33.5q-6 -6 -2 8q-25 -31 -47.5 -60.5t-45.5 -58.5q-4 -2 -8 -2q-2 0 -6 -2q-14 0 -18 6q-2 2 -2 10q-16 -8 -29.5 -10t-9.5 21q31 72 69.5 140t85.5 134 q-14 4 -27.5 9t-25.5 9q-47 -6 -99.5 -7t-82.5 9z" />
<glyph unicode="+" horiz-adv-x="897" d="M31 713.5q12 21.5 32 42.5q6 14 20.5 29.5t30 28.5t30 24.5t22.5 15.5q33 16 71.5 17t77.5 -3l43 6q2 35 3 71t6 71q-6 27 -7.5 52.5t7.5 49.5q10 23 30.5 52.5t46.5 48.5q18 18 33 26q29 27 62 37q10 2 17 3t11 -11q0 -14 -5 -23.5t-9 -19.5q-8 -37 -14.5 -73t-12.5 -73 v-36q0 -16 2 -31q0 -12 1 -23.5t1 -21.5l13 -80q92 10 184 12q10 2 29 2q27 0 51 1t51 1q2 0 4 -1t6 -1q0 -2 1 -3t1 -3q4 -20 -7 -40.5t-29.5 -38t-39 -32t-36.5 -20.5q-14 -4 -28.5 -8t-31.5 -6q-33 -4 -64.5 -3t-62.5 -1q2 -10 3 -22.5t6 -22.5q8 -45 17 -82t10 -71 t-10 -65.5t-46 -66.5q-10 -8 -18.5 -16.5t-18.5 -14.5q-2 -4 -2 -16q0 -6 2 -8q-4 -2 -8 -7q-8 -16 -25.5 -38.5t-36 -41t-37 -26.5t-30.5 4q-4 12 -4 21l-17 -17v53v52t2 51q-4 59 -2 117.5t2 117.5v76q-12 -2 -23 -3t-22 -3q-72 -14 -140.5 -29.5t-139.5 -15.5 q-14 14 -2 35.5zM520 438q12 12 24.5 26t24.5 28q-12 -6 -23 -13.5t-22 -13.5q-4 -16 -4 -27z" />
<glyph unicode="," horiz-adv-x="557" d="M29 113q-4 29 5 60.5t19 59.5l51 33q37 55 111 88q59 35 121.5 39t103.5 -37h6l3 2v-4q10 -8 15 -17t7 -20q16 -18 10 -38q27 -72 35 -137.5t-8 -127t-58 -121t-118 -118.5q-18 -12 -41 -30.5t-47.5 -36t-51 -31t-51.5 -17.5q-18 0 -23 3t-1 18q2 23 16 42t27 37 q16 23 26.5 40.5t6.5 13.5q-2 -6 -5.5 -15.5t-5.5 -15.5l131 90q27 47 27 100q0 51 -14 105q-16 -10 -30.5 -17.5t-31.5 -13.5q-10 -6 -19 -11t-20 -9q-2 0 1 2t9.5 4t10.5 4t0 2q-35 -18 -73 -25.5t-69.5 -0.5t-52 32t-22.5 68z" />
<glyph unicode="-" d="M28 703.5q-3 7.5 0 17.5t10 20.5l11 16.5q18 25 43 54.5t58 39.5h2q14 14 29.5 25.5t31.5 17.5q61 23 136 38t152 22.5t152.5 5t139.5 -14.5q14 -4 13 -10t-5 -18q-2 -4 -4 -9.5t-4 -9.5q-6 -4 -12.5 -7t-12.5 -7q10 -2 18 -2t17 -2h24l4 -2q2 0 7 -5q10 -2 19 -4t20 -4 h2q2 -2 8 -2q4 -20 -8.5 -42.5t-33 -42t-44 -33t-41.5 -15.5q-23 2 -43 6t-43 8q-55 0 -117.5 -2l-125 -4t-123 -5t-111.5 -5q-88 -10 -152 -31q-14 -2 -17 5.5z" />
<glyph unicode="." horiz-adv-x="575" d="M46 99q1 46 22.5 91.5t58.5 77.5q25 33 59.5 59.5t73.5 41t79 12.5t75 -27q76 -53 97 -111.5t5 -110.5t-61 -97t-102.5 -73t-116 -34t-103.5 19q-47 25 -67.5 65.5t-19.5 86.5z" />
<glyph unicode="/" horiz-adv-x="1089" d="M27 -63q25 76 55.5 132t64.5 103q6 16 16.5 30.5t22.5 30.5q6 10 12.5 22.5t14.5 23.5q6 16 12 22q37 78 84 144.5t97 136.5q16 23 39.5 58.5t50.5 76.5q35 53 66.5 108.5t66.5 108.5q41 68 83 135.5t91 130.5q4 4 12 13.5t21 19.5q29 47 77 88q4 4 12.5 10t18.5 12.5 t19.5 9.5t15.5 -1q8 6 16.5 12t18.5 12t27.5 14.5t21.5 -10.5q4 -29 -9.5 -50t-33.5 -40q10 -8 -4.5 -27.5t-30.5 -39.5q-4 -8 -7 -16.5t-7 -16.5q-29 -51 -58.5 -100.5t-62.5 -96.5q-31 -82 -68 -159q-37 -74 -83 -142.5t-95 -135.5t-99 -133.5t-93 -135.5q-4 -4 -4 -6 l34 10q-20 -27 -39.5 -51.5t-42.5 -46.5q-6 -12 -12 -24.5t-14 -23.5q-20 -29 -49 -56.5t-64 -31.5h-8q-6 5 -6 21q0 6 4 14q-8 -8 -16.5 -15t-18.5 -16q-10 -16 -16 -32q-2 -2 -2 -6l-2 -3q-6 -8 -28 -33.5t-45.5 -46t-40.5 -26.5t-15 23zM244 147q6 10 13 16.5t13 14.5 q23 39 45.5 77t49.5 75q10 14 26 35q-23 -25 -45 -47.5t-45 -45.5q-16 -37 -37 -65q-4 -8 -7 -15.5t-7 -15.5q-2 -8 -3 -14.5t-3 -14.5zM874 1270l28 28t-17 -10q-6 -4 -6 -6t-5 -12zM995 1339q2 0 4 2q-2 -2 -4 -2z" />
<glyph unicode="0" horiz-adv-x="1196" d="M27 737q-6 72 39 159t114.5 168t148.5 144.5t138 87.5q59 25 119.5 31t124.5 2q16 -2 30.5 -3t28.5 -5q20 -4 33 -8q39 -16 78 -28.5t73 -35.5q31 -23 63 -57.5t57.5 -75.5t43 -83t23.5 -81q6 -43 15 -91t12 -97t-2 -96t-23 -90q-16 -35 -29.5 -69t-30.5 -65 q-4 -51 -20 -92q-14 -29 -29.5 -61.5t-38.5 -57.5q-39 -45 -101.5 -94t-134 -89t-147 -61.5t-141.5 -8.5q-31 6 -75 18t-88 28.5t-81 37t-53 45.5q-35 53 -41 118.5t-14 126.5l-13 105q0 4 -1 8t-1 8q-4 16 -6 27q-29 55 -47 114.5t-24 120.5zM240 639l19 -47.5t20 -44.5 q49 -78 107 -135.5t128 -92.5q29 -4 58.5 -9t55 -8t43 -5t19.5 0q35 10 63.5 33.5t57.5 46.5q-8 -23 -13 -44.5t-14 -43.5q63 12 123 39q14 4 23 12q6 16 8 43t2 59q-8 57 -19.5 108.5t-15.5 80.5q-12 68 -14 121t-4 95t-10.5 74.5t-32 61.5t-68.5 55.5t-121 55.5l-47 -50 q-37 33 -94 48.5t-111 3.5q-41 -16 -75 -39q-4 -4 -6.5 -7t-6.5 -8q-27 -33 -39 -66.5t-22 -74.5q-8 -31 -12 -103.5t-2 -158.5zM786 158q4 0 7 2q16 8 25 12t19.5 8t23.5 11.5t36 21.5q29 20 39 57q-4 -4 -8 -6q-51 -45 -142 -106z" />
<glyph unicode="1" horiz-adv-x="727" d="M28 878.5q5 14.5 18 32t28.5 32.5t19.5 20q29 25 78 68.5t105.5 90.5t115 88t103.5 62q57 49 107 83t83 40q2 -2 10 -2q10 -18 -1 -45t-27 -52q20 6 26 -12l-6 -18l2 2q-2 -2 -2 -4l-2 -2v-9l-2 -2q-20 -53 -33.5 -110.5t-29.5 -110.5h16q10 -37 8 -73.5t-8 -75.5 t-14.5 -76t-12.5 -74q-4 -20 -4 -31q-2 -102 -2 -204q0 -100 -26 -199q4 -86 12 -168l4 4q0 -4 -1 -6t-1 -6v-2l-2 -2q-4 -14 -21.5 -38t-38 -44.5t-41 -31.5t-32.5 1q-2 4 -2 16l-13 -12q-31 -31 -49 -41q-8 -4 -12 -4q-14 0 -12 23q0 4 1 8t1 8q-4 -2 -15 -2l-12 -12v73v5 q0 186 9 380.5t57 380.5q16 121 49 234q-80 -72 -170 -129q-10 -6 -28.5 -20.5t-40 -27t-42 -20.5t-35.5 -2l-10 -6q0 4 4 12v2q-12 -10 -24.5 -16t-26.5 -8q-16 0 -20 6q-2 4 -3 14q-20 -8 -28 -6q-12 4 -7 18.5z" />
<glyph unicode="2" horiz-adv-x="1251" d="M27 -113q-6 33 10 75t44 82t59.5 76t54.5 58l22 -22q29 27 53.5 49t42.5 39q47 41 103.5 87t118.5 97q41 45 82.5 90t82.5 92q57 66 124 134.5t126 144.5q57 111 58 223q0 4 -1 8t-1 8q-2 3 -2 5q-23 23 -53.5 38t-65.5 25q-59 -4 -126 -17.5t-132 -31.5 q-35 -23 -67 -43.5t-54 -36.5q-8 -6 -14.5 -11t-14.5 -12l-59 -106q-35 -16 -73 -34.5t-75 -14.5q-8 8 -4 20q10 37 49 80t93 86q-8 -4 -14.5 -6t-12.5 -4q-16 -10 -29.5 -21.5t-27.5 -21.5v6l-13 -16l-47 -72q-12 -4 -24.5 -8t-22.5 0q-14 0 -18 6q-2 68 43 128 t111.5 109.5t139 86t123.5 55.5q59 23 120 28t120 1q33 12 70 23t71.5 14t65.5 -6t51 -38q2 -4 4 -7t4 -7q47 -8 77 -27.5t26 -58.5q-4 -49 -30 -98t-56 -94q-29 -63 -64 -122t-53 -87q-53 -84 -118.5 -179.5t-139.5 -187.5t-155 -176t-167 -145q10 4 20.5 6t18.5 4 q68 14 156 31.5t179 23.5t175 -7t144 -61q4 -27 -14.5 -51t-43.5 -45q-10 -35 -47 -65.5t-63 -42.5q-16 -6 -45 -2t-61 12t-62.5 16t-50.5 11q-41 6 -100.5 5t-125 -8.5t-130 -20.5t-118.5 -32l-16 -33q-39 -16 -79 -37.5t-64 -17.5q-10 10 -7 21.5t11 23.5q-10 -4 -21.5 -6 t-21.5 -6q-20 0 -19 18q-2 0 -10 -4q-14 0 -20 4zM381 186q27 16 53 32t51 36q63 53 132 133t135 166q-39 -37 -79 -73t-81 -70q-2 -4 -8 -11q-51 -55 -101.5 -107t-101.5 -106z" />
<glyph unicode="3" horiz-adv-x="1169" d="M25 -100q6 4 11 10t9 10q-10 10 -3 29.5t21.5 39t30 36t21.5 22.5l8 8l8 8l31 -30q4 4 6 5t6 5q0 6 2 10q0 -4 2 -4q61 49 132 66.5t147 34.5q45 35 90 68.5t92 68.5q6 6 26.5 22.5t48 40t59.5 52t58 57.5q12 53 13 98q0 45 -25 111q-4 10 -14 17t-19 15h-2q0 2 -2 2 q-59 -6 -116.5 -12t-116.5 -16q-10 -4 -19.5 -5t-19.5 -3q-2 -2 -4 -2q-27 -16 -53.5 -29t-53.5 -27q-2 0 -2 -2h-2q-35 -23 -70.5 -40t-74.5 -19l-4 4q-4 -2 -13 -2q-14 -2 -17 5t0 16.5t10 19.5t12 16q68 92 168 145.5t212 79.5q51 29 102.5 55.5t102.5 55.5 q12 41 18.5 80t-3.5 80q-6 23 -19.5 38t-27.5 29q-47 18 -107.5 22.5t-124 -1.5t-122 -20.5t-101.5 -32.5l-6 -15q-47 -31 -68 -39l-18 -18q-12 12 -17 18h-2q-12 14 0.5 35t30.5 39l2 2q16 23 35.5 43.5t40.5 34.5q61 41 135 68q59 35 129 53t137 24q63 16 114.5 23.5 t92.5 -3.5t75 -46t64 -101q23 -53 14.5 -102t-37 -95t-75.5 -88t-100 -79q-8 -8 -15.5 -14.5t-15.5 -14.5q35 0 64.5 -2t58.5 -8q51 4 93 -4t44 -43q0 -23 -2 -33q23 -31 31 -80q4 -35 2 -72.5t-19 -72.5q-37 -76 -112.5 -155t-166.5 -150.5t-183.5 -132t-163.5 -99.5 q-84 -47 -164 -65.5t-172 -40.5q-6 0 -26.5 -7.5t-44 -12.5t-43 -3t-23.5 19z" />
<glyph unicode="4" horiz-adv-x="1140" d="M29 406.5q10 19.5 28 37.5q-4 12 6 29q-2 0 -3 -1t-3 -1q-23 -4 -19.5 12.5t17.5 34.5q-6 16 -5 40t6 48.5t10.5 44t7.5 27.5q0 12 1 25.5t3 25.5q4 78 16 153.5t35 151.5q2 10 3 22.5t5 24.5q4 37 15.5 73t21.5 73l-4 -2q2 4 3 9t3 9q0 2 1 3t1 3l2 2q8 12 27.5 38 t42 45.5t41 27.5t22.5 -12q-2 -4 -2 -11q16 6 21 -12q0 -12 -2 -16q10 16 23.5 35.5t30.5 36t35.5 26.5t39.5 6q8 -14 6 -38.5t-9 -50.5t-14.5 -49.5t-11.5 -35.5q-4 -10 -5 -18.5t-5 -16.5q-8 -66 -13.5 -131t-15.5 -128.5t-27.5 -122t-50.5 -109.5q-6 -8 -17 -22.5 t-28 -30.5q35 10 71 12t71 -4q43 6 88 11t92 9q6 43 15 87t20 87q2 133 19.5 256t64.5 205l53 23q20 23 43.5 37t46.5 10q10 -41 12 -78q14 10 26.5 11t16.5 -11q-4 -31 -15 -54.5t-26 -45.5q-4 -86 -18 -171t-21 -167q-4 -45 -9 -88t-9 -89q10 0 20.5 -1t20.5 -1 q55 2 108.5 -3t106.5 -21q47 -14 49 -45t-19.5 -62.5t-56 -57.5t-61.5 -30q-47 -10 -93 -11t-93 5q-8 -129 -5.5 -254t27.5 -248h2v-12q-4 -12 -20.5 -36.5t-38 -46t-43 -34t-33.5 -0.5q-4 20 -7 40t-7 40q-10 -12 -23 -22l-8 -8q-4 -2 -6 -4.5t-6 -4.5q-8 -4 -9 -4 q-18 -6 -30 2v78q-12 -4 -19 -4h-6l-6 6q-8 59 -4 120.5t14 123.5v16q0 47 1 94.5t3 94.5q0 25 1 50t3 50q-31 4 -61.5 6t-60.5 0q-59 -4 -125 -22.5t-129 -44.5l-31 -48q-27 -8 -43.5 -13t-28.5 -8t-25.5 -5t-33.5 -2q-14 12 -4 31.5z" />
<glyph unicode="5" horiz-adv-x="1060" d="M26 -209q5 21 20 44.5t31.5 43t22.5 25.5l37 -13q66 59 138.5 107.5t150.5 95.5q41 37 90 86t94 100.5t79 101.5t42 93q8 41 -11.5 76t-51.5 63q-10 8 -20.5 14.5t-20.5 10.5q-68 -4 -138.5 -20.5t-130.5 -38.5q6 -4 15.5 -2t19.5 2l-117 -136h-32q-14 0 -23 15 q-18 -16 -35.5 -24.5t-27.5 -2.5q-18 0 -29 19h-23q-2 0 -4 -2.5t-4 -2.5q-14 -2 -17 1.5t-1 17.5q8 23 35 55q-4 35 -5 78t-4 80q-8 80 -10 161t27 156v49q0 12 -1 24.5t-1 25.5q-10 -2 -19.5 -3t-19.5 -4q-20 -2 -23.5 6.5t6 22.5t27 32.5t33.5 33.5q2 4 3 7t5 7 q12 41 47 74q20 29 48 49t57 16q6 -6 8 -12t10 -10l-6 -6q90 29 190 41q119 41 235 67.5t187 26.5q4 -2 11 -2q0 -2 1 -3t1 -3v-4q12 2 24 3t25 5q23 -4 13.5 -23.5t-31 -42t-47 -42t-38.5 -25.5h-2q-47 -20 -92 -29q-63 -35 -133 -52.5t-143 -29.5l-47 -61 q-47 -6 -94.5 -8.5t-94.5 -6.5q10 -33 10 -71v-72q10 -74 18.5 -148.5t8.5 -148.5q27 20 57.5 35.5t65.5 27.5q72 33 148.5 49.5t156.5 12.5q16 -2 31.5 -4t32.5 -6q45 -4 84.5 -16.5t74.5 -39.5q23 -18 35 -41.5t29 -46.5q10 -14 14 -32.5t4 -38.5v-41q0 -18 2 -37 q4 -31 -10 -61.5t-36.5 -59.5t-48.5 -52.5t-48 -39.5q-68 -51 -141 -92q-63 -59 -136 -112.5t-148 -103t-147.5 -92.5t-138.5 -82q-29 -16 -55.5 -37.5t-54.5 -37.5q-35 -14 -36 -1t9 31q-2 0 -3 1t-3 1q-16 8 -11 29zM147 -109l9 5h-6zM649 236q23 16 42.5 30.5t41.5 30.5 q-10 -4 -20.5 -5t-20.5 -5q-10 -14 -21.5 -26.5t-21.5 -24.5zM780 336q10 8 20.5 17t20.5 20q39 67 47 108q-2 2 -2 6q-31 -76 -86 -151zM844 528l2 2v2q0 -2 -2 -2v-2z" />
<glyph unicode="6" horiz-adv-x="1218" d="M25 504q0 131 31.5 259t90 238.5t132.5 174.5q29 25 61 49q25 25 50.5 48t51.5 50q25 25 59 49.5t70.5 43t74.5 28.5t69 6q57 -6 112.5 -15.5t112.5 -17.5l-117 -135q-10 2 -22.5 3t-22.5 5l-43 -30l-4 -3q0 6 2 11q0 4 -3 3t-7 1q-33 4 -72 -2t-69 -13q-35 -8 -80 -24 t-90 -39l-23 -29q0 -2 -2 -4q-25 -49 -42 -109.5t-28 -113.5q-18 -82 -28 -163t-10 -163q78 78 164.5 141.5t156.5 92.5q49 20 103.5 22t107.5 11q45 4 94 -16.5t94 -53.5q10 -4 21.5 -8t21.5 -8q25 -12 42.5 -25.5t29.5 -36.5q16 -37 21 -82q12 -25 20 -51.5t21 -50.5 q23 -53 16.5 -116.5t-33 -124t-67.5 -112t-88 -79.5q-47 -29 -92.5 -60.5t-98.5 -48.5q-41 -12 -80 -14t-80 0q-16 -2 -35 -2h-32q-47 2 -98.5 8t-102.5 16q-25 4 -46.5 9.5t-43.5 15.5q-8 -8 -14.5 -15.5t-14.5 -13.5q-6 14 -13 28.5t-11 31.5q-18 12 -39 27.5t-43 37.5 q-61 51 -92 133l-2 -2v4q-41 102 -41 234zM285 532h4l18 25l-12 -12t-10 -13zM338 442q0 -127 37 -243q2 -2 4 -2q6 -4 13 -8.5t14 -8.5l2 -2q23 -8 49 -13t43 -9q14 -4 28.5 -7.5t30.5 -7.5q23 -2 45 -2q23 0 49 -2q55 -6 113 -6q31 4 61.5 8t59.5 15q16 72 31.5 136 t17.5 123.5t-17.5 118t-70.5 119.5l-2 -2q-2 4 -4 6t-4 7q0 6 4 18q-41 8 -85 6t-85 -8q-131 -20 -213 -63.5t-121 -141.5v-31zM895 158q23 8 46.5 17t45.5 24l12 39q-29 -20 -53 -41t-51 -39z" />
<glyph unicode="7" horiz-adv-x="1296" d="M30 1141.5q9 19.5 29.5 40t44 37t37.5 22.5q0 2 2 4h7q25 6 50 11.5t50 9.5q23 10 44 21t50 18q55 12 111.5 17t111.5 17l-20 -26q88 12 176 15t176 1q47 -4 97.5 -9t99.5 -11q41 2 79.5 1t79.5 -5q23 -4 14 -24.5t-32 -43.5t-48.5 -43t-35.5 -25h-2v-2h-2l-4 -4h4 q6 -14 0 -31.5t-18.5 -35t-25.5 -30.5l-24 -24q-43 -43 -73.5 -68.5t-55.5 -47.5q-63 -104 -115.5 -212t-99.5 -218q-31 -117 -64.5 -229.5t-68.5 -225.5l-2 -2q-12 -47 -27.5 -101.5t-11.5 -101.5l21 17q0 -53 -33 -97.5t-78 -66.5q-10 -4 -19.5 -8.5t-19.5 6.5 q-6 37 -4 73q-23 -12 -35 0q-10 10 -6 26.5t6 29.5q2 74 10.5 142.5t22.5 133.5q-2 23 -1 42.5t5 41.5q18 96 57 216t92.5 245t119 246t139.5 217q-41 4 -79 13t-71 13q-6 0 -11 1t-11 1q-57 -8 -113.5 -16t-114.5 -18q-27 -4 -67.5 -15.5t-85.5 -21.5t-89 -16.5t-75 -2.5 h-2h-2q0 2 -2 2q-12 10 -3 28.5t27 39.5q-4 4 -6 8q-51 -6 -102 -6q-12 12 -3 31.5z" />
<glyph unicode="8" horiz-adv-x="968" d="M45 780q-51 182 21.5 300t238.5 204q31 16 63.5 32.5t66.5 29t68 16.5t66 -4q39 -4 88.5 -16.5t96.5 -31t86 -41t59 -46.5q25 -31 32 -82t2 -108.5t-20.5 -109t-35.5 -81.5q-35 -47 -71 -78t-75 -51q-4 -4 -6 -7.5t-6 -7.5q-6 -2 -12.5 -4t-12.5 -4q90 -33 148 -78 q55 -45 78.5 -107.5t21.5 -129t-27.5 -134t-67.5 -125t-97.5 -100.5t-116.5 -59q-72 -18 -164 -5t-178 50q-10 -10 -20.5 -19.5t-20.5 -19.5q-25 37 -41 84q-39 29 -67.5 62.5t-43 73.5t-9.5 85t32 94q41 72 93 140.5t118 128.5q-33 10 -62 18l-24 6q-4 -6 -10.5 -12 t-10.5 -10q-12 10 -26.5 18t-24.5 19q-45 12 -79 34.5t-50 75.5zM243 1052.5q-1 -44.5 5 -91t18.5 -85t26.5 -57.5q6 -12 14 -18q23 -6 45.5 -10.5t44.5 -8.5q25 -8 54.5 -15t60.5 -17q16 8 35 14q31 10 64.5 16t68.5 13q6 33 11 80t5 92q0 47 -8 86t-29 55l-14 -12 q-2 10 -3 19t3 20q2 4 6 11t8 15q-10 4 -20.5 9.5t-20.5 9.5q-20 8 -40.5 15t-42.5 15l-23 -24q-37 35 -80 41h-8q-25 2 -55 -4l-84 -99l-29 4q-12 -29 -13 -73.5zM329.5 367.5q-12.5 -95.5 10.5 -181.5q51 -31 113.5 -53t121.5 -39h-4q31 -6 62 -9t65 1h9q20 53 23 109.5 t-6 111.5t-28.5 108.5t-44.5 102.5v2q-53 27 -113.5 48.5t-121.5 39.5q-8 -4 -14.5 -8t-14.5 -8q-4 -14 -10 -25.5t-10 -23.5q-25 -80 -37.5 -175.5z" />
<glyph unicode="9" horiz-adv-x="1150" d="M25 895q0 84 33.5 164t93 153.5t133 127t155.5 84t160 24.5q41 -4 105.5 -13.5t123.5 -31.5q10 -4 20.5 -6t20.5 -4q20 -4 42 -7.5t43.5 -9.5t41 -16t33.5 -27q16 -23 29.5 -80t21.5 -118q10 10 21.5 18t23.5 18q-10 -45 -18 -91t-14 -93q-2 -16 -3 -30.5t-6 -28.5 q-16 -123 -41.5 -243t-89.5 -224q-41 -66 -85 -128.5t-107 -109.5q-6 -10 -13.5 -20t-13.5 -21q-20 -27 -41.5 -48t-44.5 -42q-6 -4 -14 -13t-16.5 -16.5t-11.5 -10.5t1 3v2q2 0 2 2q-18 -16 -41.5 -33.5t-38 -22.5t-15.5 5t26 49q0 2 2 2v2q4 4 8 19q-25 -33 -55 -64 q-6 -10 -13.5 -17t-13.5 -17q-6 -6 -26.5 -22.5t-40 -28t-31.5 -11.5q-10 0 2 29q-2 -4 1 6t10 25.5t15.5 30t12.5 20.5q31 41 66.5 77.5t70.5 73.5q55 86 100 180.5t80 194.5l-14 -7t-15 -7q-29 -16 -56.5 -32.5t-57.5 -23.5q-45 -10 -82 6.5t-78 28.5q-51 16 -103.5 32.5 t-99.5 40t-87 57.5t-68 85q-43 74 -43 158zM201 1167q16 18 37 37q29 35 67 68q2 4 3 5t3 5q-22 -11 -45 -31q-20 -18 -36.5 -39.5t-28.5 -44.5zM315 1053q12 -49 26.5 -103.5t34 -103.5t47.5 -87t69 -54q2 -14 -5 -33q12 -4 23.5 -6t24.5 -7q18 -4 36.5 -12l37 -16 t37 -11.5t36.5 1.5q16 4 35.5 13t42.5 19q23 80 37 150q6 37 13 82t7 90q0 47 -12 89t-43 71q-14 12 -2 33.5t35 43.5q-33 33 -99 60q-39 4 -69.5 7t-46.5 1q-92 -12 -162 -53l-60 -88q-2 0 -4 -2l-20 -15q-6 -16 -10.5 -33.5t-8.5 -35.5z" />
<glyph unicode=":" horiz-adv-x="628" d="M28 835.5q-5 16.5 1 32.5q12 33 44.5 85.5t78 101.5t95.5 87t97 40q27 16 56.5 22t52.5 -22q43 -12 75 -49q53 -61 36 -127t-71.5 -120.5t-127 -88t-127.5 -33.5q-2 0 -32 -2t-65 0t-65.5 11t-36.5 30q-6 16 -11 32.5zM116 302q7 46 33.5 91t65.5 78q29 33 66.5 59.5 t77.5 41t80 12.5t73 -27q70 -53 85 -111.5t-7.5 -110.5t-73.5 -97t-110.5 -73t-120 -33t-101.5 18q-45 25 -60 65.5t-8 86.5z" />
<glyph unicode=";" horiz-adv-x="557" d="M27 897q2 27 30 61q10 20 26.5 40t27.5 30q6 8 13 15.5t15 15.5q20 31 48 56.5t56.5 45t59.5 30.5t57 9q12 -2 25.5 -9t20.5 -11q4 -4 6 -7.5t6 -7.5q29 -4 53 -20t18 -49q-6 -29 -20 -52q10 -43 -29 -100t-97 -105t-122.5 -71t-107.5 4q-43 25 -39 88q-2 2 -4 2l-2 2 q-43 6 -41 33zM118 313q11 47 39.5 97.5t71.5 96.5t87 74.5t87 34t72 -27.5q6 4 12 4t13 2q4 0 5 -1t5 -1q8 -23 -8 -55q4 0 5 -1t5 -1q4 -2 5 -9.5t1 -3.5q2 -29 -20 -55l-6 -18v-5h12q6 -2 13 -3t13 -3q0 -4 1 -5t1 -5q-10 -86 -49 -183.5t-82 -191.5q-16 -41 -31.5 -75.5 t-29.5 -63.5q-4 -6 -25.5 -32.5t-46 -48t-42 -30t-15.5 22.5q2 4 2 6t2 6q0 4 2 4q14 35 32.5 75t37.5 83q10 23 17 45.5t15 44.5q0 51 4.5 97t20.5 89q-35 -29 -73 -43t-72 -6q-23 -10 -45 -10q-20 0 -29 16q-18 33 -7 80z" />
<glyph unicode="&#x3c;" horiz-adv-x="841" d="M25 598q0 23 23.5 56.5t51.5 54.5q29 31 67 68.5t83 78.5q63 63 128.5 124.5t133.5 123.5q25 23 49.5 45t48.5 45q18 25 38 50.5t41.5 47t45 34.5t49.5 13q4 0 5.5 -1t5.5 -1q0 -4 1 -6t1 -6q20 4 20 -8t-10 -27.5t-23.5 -31t-17.5 -21.5q-2 0 -2 -2q-8 -10 -13.5 -16.5 t-9.5 -10.5q-16 -14 -30.5 -26.5t-30.5 -26.5q-33 -33 -64.5 -65.5t-66.5 -65.5q-51 -47 -105.5 -93t-97.5 -100q-20 -25 -47 -62.5t-57 -76.5h4l-21 -24q29 -16 58.5 -33t50.5 -33q115 -100 229.5 -198.5t222.5 -204.5q12 -12 21 -19l-4 -4q2 -20 -11.5 -41.5t-33 -40 t-42 -31t-40.5 -14.5q-39 37 -80 70t-82 69q-59 53 -116.5 108.5t-123.5 104.5q-16 12 -40.5 23.5t-49 24t-45 28t-30.5 33.5l12 12q-10 6 -21.5 11.5t-21.5 13.5q-12 -4 -17 -4q-14 -2 -17 1t-1 17q0 4 4 12q-6 6 -12 11.5t-10 13.5z" />
<glyph unicode="=" horiz-adv-x="872" d="M27.5 503.5q7.5 18.5 29 42t48 46t32.5 26.5q37 18 77 34t79 30l-21 -29l50 13q53 10 112.5 18t120.5 12q16 2 33 2q18 0 35 2q25 2 57.5 4.5t64 0t59 -11.5t44.5 -34q-35 -33 -66.5 -63.5t-66.5 -63.5q-6 8 -13.5 13.5t-15.5 9.5q-8 -6 -29 -14q-70 -18 -140.5 -20.5 t-141.5 -2.5q-70 0 -139.5 -6t-139.5 -31q-23 -2 -22 11q-16 -4 -23 -5q-31 -2 -23.5 16.5zM29 900q8 18 24.5 35t34.5 32.5t27 21.5q47 35 98 50.5t106.5 20.5t111.5 2t112 -9l4 2l-2 -2h4q55 4 110.5 5t110.5 -1q23 -6 8 -31h27q23 -4 12.5 -24.5t-33 -43t-48 -42 t-36.5 -23.5q-51 -10 -102 -15.5t-102 -9.5q-92 -18 -186.5 -33.5t-182.5 7.5q-23 -10 -42 -13.5t-30 2.5q-16 8 -6 35q-4 0 -16 4q-12 12 -4 30z" />
<glyph unicode="&#x3e;" horiz-adv-x="897" d="M31 166q-2 8 6 29q61 96 122.5 150t129.5 99q18 16 35.5 33t33.5 33q66 61 132.5 123.5t140.5 118.5q-23 23 -42.5 43t-33.5 32q-74 55 -162 112.5t-176 86.5q-18 6 -42.5 11t-49.5 13.5t-47.5 19.5t-36.5 28q-25 29 -9.5 62.5t50.5 60t82 38t86 -3.5l-47 -49 q10 -8 22 -10q35 -14 71 -22.5t71 -24.5q123 -59 237.5 -135t208.5 -176q4 4 10 5t11 5q20 4 24 0t0 -25l-6 -12q4 0 8 -1t10 -3q4 -20 -7 -41t-29.5 -38t-40 -31.5t-37.5 -20.5q-18 -4 -25 0q-6 0 -10 2l-6 6h-2q-4 -2 -7.5 -3t-7.5 -3q-59 -66 -122.5 -124t-122.5 -116 q-80 -78 -162 -158.5t-180 -136.5q-39 -16 -37 0.5t16 38.5q-2 0 -4 -2q-12 -8 -24.5 -14t-20.5 -7t-10 7z" />
<glyph unicode="?" horiz-adv-x="882" d="M28 968.5q7 26.5 22.5 56.5t33.5 55.5t29 37.5q25 29 55.5 58.5t64.5 54.5q59 49 124 85t106 44q51 8 72.5 12t35.5 4q16 0 38 -4t73 -10q27 -4 59.5 -23.5t42.5 -29.5q47 -41 62.5 -96.5t9.5 -115t-29.5 -122t-56.5 -119.5t-68.5 -107.5t-66.5 -84.5q-8 -10 -15.5 -17.5 l-15.5 -15.5q-25 -35 -45 -67t-35 -60q-14 -31 -10 -71t4 -73l-33 -28l4 -4q8 8 15 12q-6 -47 -35 -84t-72 -59q-23 -12 -30 -9q-18 -10 -31 2q-10 16 -15.5 34t-7.5 36q-27 16 -27.5 51t11.5 74t29.5 75t27.5 52q6 10 12.5 17.5t12.5 17.5q31 51 69.5 98t83.5 98 q10 23 19.5 44.5t19.5 43.5l-12 -22q4 10 8 18.5t4 3.5q12 27 27.5 63t28 70.5t18.5 64.5t0 46q-14 37 -44 56.5t-64.5 27.5t-73.5 8h-70q-29 0 -59.5 1t-57.5 -15q-4 -4 -8 -5t-8 -5q0 -18 2 -26.5t3 -12.5t3 -9t2 -18q2 0 2 -2h2q-10 -4 -18 -6l-16 -4l-41 -94 q-2 -2 -2 -4l-2 -4h2q-4 -2 -5.5 -3.5t-5.5 -3.5q-12 -14 -29.5 -30.5t-35 -30.5t-33.5 -20.5t-27 -0.5h-2q-14 0 -18 7q-10 16 -6 45q-14 16 -7 42.5zM197 963l4 4zM340 -43l82 72q16 12 22 18l31 27v-11q10 4 17 -4l2 2q16 12 31.5 23.5t37.5 7.5q8 -10 13.5 -22.5 t9.5 -22.5q31 18 37 -6v-10q-4 -45 -40 -80t-71 -57q-10 -4 -19.5 -8.5t-17.5 5.5q-6 6 -10 12.5t-8 14.5q-6 -4 -11.5 -6t-11.5 -6q-23 -23 -45 -36t-35 -1q-12 16 -12 43q0 25 -2 45zM457 303q4 4 9 8t11 8h-6q-4 -4 -7 -8t-7 -8zM498 602q10 10 21 19.5t22 19.5 q29 37 57 75t51 77q-8 -10 -15 -17.5t-16 -15.5q-25 -39 -54 -77t-66 -81zM551 788q0 2 2 7v-2q-2 -4 -2 -5zM553 795q0 2 2 4zM555 799l4 10q-2 -4 -2 -6t-2 -4z" />
<glyph unicode="@" horiz-adv-x="1230" d="M31 401q-12 104 1 199.5t48 183.5q10 57 18 88q25 72 75 141.5t108 119.5q119 102 231 141q4 2 8 3t8 3q55 20 110.5 35.5t115.5 17.5q98 2 189 -40t155.5 -112.5t92.5 -162.5t3 -195q-16 -55 -30.5 -109.5t-49.5 -101.5q-41 -59 -90 -117.5t-115 -93.5 q-18 -12 -42.5 -22t-45 -13.5t-33 4t-8.5 29.5q-4 0 -5 -1t-5 -1q-16 -14 -30.5 -19t-24.5 5q-4 8 -4 14q-4 0 -4 4q-6 0 -11 7q-8 31 -10 60.5t0 59.5q-37 -20 -76 -32q-31 -10 -73 -17q-53 -12 -102.5 -7t-86.5 36q-35 27 -43 59.5t0 67.5q-2 53 24.5 105.5t69.5 96.5 t98.5 76.5t110.5 47.5q43 20 90 26q18 0 39 -10q29 29 68 39h6q2 -2 10 -2q10 -31 13 -62q23 10 28 -6l2 2v-4q0 -4 4 -20.5t9 -26.5l-17 -14q0 -18 -2 -27q2 -4 2 -8q0 -2 2 -6q6 10 12.5 17t12.5 18q2 -20 8 -43t2 -43q-4 -29 -14.5 -53.5t-24.5 -49.5q4 -39 5 -76t-3 -69 q4 0 21 -4l37 18q82 41 110.5 123t7.5 170q-18 78 -85.5 142.5t-158 106.5t-190.5 55t-186 -11q-49 -29 -88 -76q-29 -35 -55.5 -68.5t-45.5 -74.5q-6 -10 -10 -21.5t-8 -23.5q-8 -41 -10 -82t-2 -82q-2 -100 0 -172t22.5 -130.5t67.5 -112.5t135 -120q72 -53 153.5 -71.5 t167.5 8.5q43 12 82 31.5t72 54.5q10 10 16.5 24.5t22.5 20.5h2q25 27 49.5 51.5t48.5 50.5q12 -10 11.5 -25.5t-8 -30.5t-17.5 -29.5t-16 -20.5q-4 -4 -7.5 -8.5t-7.5 -8.5q23 16 45.5 34t44.5 36q-18 -76 -78.5 -133.5t-137.5 -99t-157.5 -72.5t-138.5 -53 q-49 -20 -105 -15.5t-108 21.5q-45 12 -80.5 40.5t-74.5 53.5q-37 23 -66 69t-50.5 99t-35.5 105.5t-18 88.5zM451 694q12 -29 41.5 -41t62.5 -11t65.5 13.5t51.5 30.5q4 16 6 23l-2 -2q0 18 4 28t18 31l-4 4h8v4q0 23 -2 46.5t-8 47.5l-28 -20l-21 -21q-2 0 -4 1t-4 1 l-17 -10l-20 -20q-4 8 -10 14t-10 14q-59 0 -97 -26q-18 -25 -26.5 -52.5t-3.5 -54.5zM932 160l2 2v2q0 -2 -2 -2v-2z" />
<glyph unicode="A" horiz-adv-x="1460" d="M28 18q3 33 12 74t23.5 86t28.5 85t25.5 68.5t13.5 35.5q6 16 13.5 33.5t13.5 33.5q4 10 6 20.5t6 20.5q41 168 87 338t105 336l-4 -2l7.5 15t7.5 16q4 12 10 25.5t10 25.5q4 10 20.5 30.5t37 41t40 36t29.5 11.5q37 41 90 49q10 -2 13 -13q-4 -23 -13.5 -40t-21.5 -33 v-6q-4 -25 -4 -50t-4 -47q6 25 25.5 49.5t43 44t47 28.5t39.5 3q6 -2 23.5 -33.5t39 -74.5t45 -89t40.5 -81q18 -35 35 -70q70 -129 137 -255t145 -249q23 -37 54.5 -85t65.5 -99t63.5 -102.5t46.5 -94.5l6 -6l-6 -6q-4 -18 -21.5 -43t-39 -44t-42 -28.5t-31.5 0.5 q-20 20 -37.5 40t-33.5 40q-18 -12 -41 -18l-10 -10q-8 8 -13 14q-18 6 -36.5 23.5t-35 37t-31 40t-24.5 34.5q-63 80 -123.5 163t-115.5 169q-37 -23 -77 -44.5t-77 -38.5t-66.5 -29.5t-48.5 -18.5l80 121q-63 -29 -124.5 -64t-121.5 -63q-12 -55 -23 -109.5t-22 -107.5 q-10 -53 -17 -98.5t-28 -86.5v-2h-2q-6 -12 -13 -25.5t-17 -25.5l-19.5 -19.5t-28.5 -25.5q-16 -11 -30 -17q-5 -2 -10 -2q-9 0 -15 7q-2 24 -2 47t2 46q4 46 15 93q-27 -43 -78 -68q-10 -4 -19.5 -8t-19.5 6q-6 9 -6 29q0 7 1 16zM406 537q55 31 115.5 53t125.5 45 q14 4 27.5 9t30.5 9q-4 4 -5 9q-16 27 -36.5 60.5t-37 69t-26.5 72.5q-6 23 -6 45q0 13 2 27q6 14 19.5 34.5t29.5 37.5q-6 18 -11 35.5t-9 35.5q0 20 20 51l-12 25q-82 -145 -132 -302t-95 -316z" />
<glyph unicode="B" horiz-adv-x="1150" d="M24 48v5q0 13 4 29q5 18 14 35.5t13 23.5q35 43 83 76q32 22 68 22q19 0 38 -6q-14 -16 -28.5 -30.5t-27.5 -30.5q16 -2 34 -3q50 0 120 17q-8 66 -23.5 129.5t-19.5 104.5q-16 102 -19.5 203.5t-13.5 205.5q-10 80 -28.5 163t-18.5 167q-12 -4 -24.5 -6t-28.5 -6 q-24 -29 -52 -53q-24 -21 -52 -22q-5 0 -9 1l-8 6q-4 12 -4 24q-1 23 15 45q24 34 63 62.5t84 50t73 31.5l134 121q2 -23 5 -43t9 -41q80 13 177 21q58 4 115 4q38 0 76 -1q94 -5 175.5 -24.5t132.5 -58.5q0 -4 1 -5t1 -5q-8 -61 -45 -113.5t-88 -99t-110.5 -84 t-117.5 -70.5q47 5 93 5q56 0 108 -7q96 -12 145 -57q23 -20 29 -48q4 -19 4 -38q0 -10 -1 -19q-3 -29 -12 -57.5t-20 -50.5q-35 -86 -105.5 -162t-158.5 -138.5t-183 -112.5t-179 -87q-12 -16 -28.5 -35.5t-34 -34t-33 -19.5t-25.5 5q-2 2 -2 6l53 47l-51 -41q4 16 4 25 q-72 -28 -150 -48q-39 -10 -77 -10q-39 0 -76 11q-16 6 -17 21zM457 1196l6 -35q10 -74 15 -148.5t14 -150.5q72 43 150.5 78t150.5 76q41 25 79.5 55.5t79.5 58.5q-43 31 -101 47.5t-125 22.5q-50 4 -101 4h-35q-68 -2 -133 -8zM502 727q10 -113 25.5 -222.5t17.5 -219.5 v-9q-2 -4 -4 -11t-6 -13q55 25 110 52.5t103.5 57t88.5 59.5t66 56q37 37 53 75q15 34 15 81v12q0 41 -45 61.5t-103.5 29.5t-113.5 9t-80 -2q-35 -4 -66 -8t-61 -8z" />
<glyph unicode="C" horiz-adv-x="1107" d="M25 572v15q-1 109 27 215q30 112 90.5 214t146.5 176q59 51 127.5 74.5t140.5 23.5t141.5 -20.5t128.5 -61.5q4 37 19.5 72t46.5 66l33 -35q10 18 21 35.5t28 33.5l2 2q2 0 -3 -13q-7 -17 -7 -28q-4 -18 -3 -53t3 -51q4 -55 12 -108.5t14 -106.5q0 -2 2 -2l-2 -2 q0 -2 1 -3t1 -3q-2 -12 -18 -37t-37.5 -47.5t-43.5 -34.5t-36 0v2q-39 82 -113.5 147.5t-166.5 94.5l-64 -60q-6 12 -7 14.5t-28 -8.5q-68 -53 -100.5 -125.5t-41.5 -153.5q-5 -49 -5 -99q0 -33 2 -67q6 -85 16 -161q4 -20 4 -41q0 -18 4 -37q8 -27 21.5 -50t24.5 -50 q0 -2 4 -6l-2 -2q0 -12 -11 -33q94 -42 205 -42h5q114 1 227 48q23 8 43 31.5t39.5 49.5t36 47.5t26.5 25.5q6 2 -1 -12.5t-15 -24.5l110 74q-4 -10 -10 -22.5t-10 -16.5q-14 -20 -21.5 -28.5t-12.5 -14.5t-11.5 -13.5t-20.5 -23.5q-49 -57 -102.5 -110.5t-120.5 -84.5 q-90 -41 -196 -53q-37 -4 -74 -4q-68 0 -132 14q-100 22 -180 83t-116 165q-39 108 -41 226zM1073 455q6 13 8 13q1 0 0 -7z" />
<glyph unicode="D" horiz-adv-x="1216" d="M33 33q23 41 58.5 76.5t82.5 46.5q47 23 98 37q-10 47 -11 100v35q0 36 1 72q2 54 6 107.5t4 98.5q0 66 -4 134.5t-10 136.5q0 4 -6 46t-13.5 94t-12.5 101q-4 35 -4 55q0 8 1 13q-29 -4 -56.5 -11.5t-51.5 -15.5l-11 -14q-16 -6 -30.5 -10.5t-30.5 -4.5q-12 12 -4 31 t24.5 36t35 32.5t26.5 21.5q86 61 207 77q60 8 120 7q62 0 126 -8q124 -16 239 -60t191 -102q43 -35 85 -86t67 -109q26 -60 31 -122q1 -9 1 -18q0 -53 -25 -101q-53 -111 -132 -201t-175 -163.5t-203.5 -130t-220.5 -99.5q-96 -35 -190 -60.5t-185 -70.5q-17 -8 -26 -8 q-10 0 -10 11q0 9 8 26zM457 1167q0 -117 6 -233q4 -88 11 -176t18 -174q6 -53 20 -122t18 -120q2 -16 -1 -35.5t-7 -40.5q78 29 165 68t163 92v2q4 25 5 43t3 33.5t2 34.5v43q-4 125 -34.5 242.5t-69.5 236.5l35 33q-76 41 -161 63.5t-173 32.5v-23z" />
<glyph unicode="E" horiz-adv-x="989" d="M25 774q0 86 2 171q1 28 1 57q0 57 -3 114q10 6 20 12.5t21 12.5q-4 8 -3 14l-32 -14l2 4t13 18.5t26.5 29.5t33 29.5t29.5 18.5q10 10 19.5 16.5t15.5 10.5q33 18 68.5 31.5t72.5 23.5q2 0 4 -1t7 -1q2 -6 3 -11t3 -12q78 20 166 27.5t173 8.5h42q63 0 121 -2 q78 -3 135 -3l-45 -51q12 0 28 -4h8q4 -20 -7 -41t-29.5 -39t-39 -32.5t-36.5 -20.5q-30 -5 -60 -5h-10h-23q-23 0 -46 -1q-176 -14 -349 -84l17 24q-16 -4 -28.5 -6t-25.5 -6q8 -66 14.5 -129.5t12.5 -128.5q41 20 97.5 39.5t113.5 35t110.5 24.5t86.5 9q16 -2 13 -16 t-14.5 -29.5t-23.5 -29t-16 -17.5q-27 -27 -54 -39q-8 -12 -16 -23l-16 -22q-66 -8 -137.5 -26.5t-131.5 -53.5l-2 -4q4 -53 5 -108.5t6 -110.5q0 -35 2 -70.5t4 -70.5l2 2l-2 -4v-51q35 4 64.5 12t62 18.5t70.5 20.5t85 16q104 12 211 12h49q14 0 31 -2q12 -4 11 -11 t-3 -17q-14 -47 -45 -74l-4 -8l-4 -8q-10 -16 -22.5 -30.5t-26.5 -29.5v17q-10 -10 -21.5 -22.5t-23.5 -24.5q6 4 12 7t2 -1q-43 -29 -49 -22t4 30q-10 4 -28.5 5t-39 0t-38 -3t-27.5 -2q-61 -6 -120.5 -17.5t-119.5 -27.5q-25 -6 -57.5 -18.5t-66.5 -24.5q-35 -18 -74 -21 q-20 -6 -43 -6q-8 -4 -18.5 -7t-20.5 -9q-25 -28 -51 -46q-14 -9 -25 -10q-9 0 -16 7q0 209 -2 414.5t-4 416.5zM948 1274l2 2z" />
<glyph unicode="F" horiz-adv-x="1110" d="M29 962q-2 2 -2 7q0 7 7 21q11 20 30.5 45.5t27.5 33.5q27 25 64 47q0 2 1 4t1 4q-23 -10 -42.5 -17t-37.5 -15h4l-16 -7l12 7q-41 -18 -40 -4t21.5 39.5t48 52t37.5 32.5l25 13q0 6 4 18l133 103q-10 -37 -12 -70h2q41 35 55 18q4 2 10.5 4t12.5 5q90 12 178 26 t168 30.5t146.5 35t113.5 39.5q33 -23 58.5 -50.5t43.5 -37.5q-6 -31 -20 -45.5t-36.5 -22.5t-56.5 -17.5t-79 -31.5q-82 -29 -160 -49.5t-151 -36.5q-47 -12 -94.5 -24.5t-94.5 -24.5q0 -33 -1 -68t-3 -67.5t-2 -59.5v-43v-2l8 8q2 -20 7.5 -51t11.5 -72q59 29 120.5 53.5 t122.5 49.5l-41 -60q76 18 152 29.5t149 15.5q23 -4 14 -24.5t-32 -43t-48.5 -43t-35.5 -24.5l-49 -12q-41 -37 -59 -45q-63 -29 -130 -43t-135 -29h-4q6 -51 12.5 -101t8.5 -94q1 -22 1 -42t-1 -37q-2 -35 -11 -53q-6 -10 -19 -28t-30 -34q2 -10 3 -17t3 -16q4 -20 9.5 -49 t9.5 -49q2 -12 6 -34.5t2 -16.5q2 -16 -14.5 -42t-39 -48.5t-44.5 -34.5q-11 -6 -20 -6t-15 6q-16 35 -27.5 74t-17.5 79q-14 -18 -32.5 -34.5t-34 -25.5t-24.5 -7t-7 20q0 8 1 13.5t1 9.5q2 8 2 27v12q0 8 -1 23.5t-1 39.5v68v82q-12 47 -18.5 93t-10.5 93l-37 -6 q-18 -2 -19 9.5t7 24.5t19.5 27.5t15.5 18.5l12 12q-1 27 -1 55v28q1 42 5 83q-6 82 -6 162q0 82 10 164q-16 -6 -29.5 -13.5t-25.5 -13.5q-43 -29 -49 -23zM59 1083l7 2q-2 0 -3.5 -1t-3.5 -1zM86 1094l4 2q-2 0 -4 -2z" />
<glyph unicode="G" horiz-adv-x="1574" d="M30 670q17 135 75.5 256t149.5 225t202 184q76 53 171 83q79 25 158 25q15 0 31 -1q33 -2 57.5 -6t55.5 -11q16 -4 25.5 -2t31.5 11q-4 -29 -19.5 -50.5t-33.5 -42.5q-35 -35 -64.5 -44t-62.5 -5l-16 -16q-14 4 -29 4q-27 0 -60 -12q-49 -19 -100 -51l-12 -23 q-12 -6 -25.5 -11t-23.5 -9q-14 -10 -26.5 -22.5t-25.5 -23.5q-14 -20 -24 -47.5t-16.5 -53.5t-10.5 -48.5t-4 -32.5q-8 -63 -8 -132q0 -21 1 -42q3 -92 24.5 -181t62.5 -170t107 -138h24t25 -2l-19 -23q29 -18 63 -29.5t64 -25.5q66 16 127.5 46t120.5 56q14 10 27.5 22.5 t25.5 28.5l-2 -2q-6 -6 2 11q10 84 21.5 164.5t21.5 164.5q4 31 9.5 67t9.5 73q-47 -20 -92 -39t-91 -41q-59 -31 -117.5 -61.5t-119.5 -57.5q-23 -2 -19.5 12.5t15.5 32.5t28.5 35.5t20.5 21.5l25 19l2 4l4 2q2 0 6 2l2 2q2 0 4 2q-14 0 -25 6q-18 8 -12 28.5t22.5 43 t36 43t29.5 29.5q84 66 194.5 100.5t215.5 40.5l-10 -12q12 4 16 -13q0 -4 1 -7t1 -7q16 4 31.5 6t31.5 6q96 43 209 70q-27 -35 -52 -68t-50 -65l-43 -13q-16 -14 -28.5 -23t-16.5 -13q-18 -10 -45 -21q6 -29 -2 -60.5t-17 -60.5l-28 -20q-4 -12 -4 -25q0 -12 -2 -24 q0 -10 -2.5 -30t-4.5 -41.5t-3 -40.5t-1 -30q-6 -92 -8 -180t-6 -178q-2 -51 -4 -102.5t-13.5 -98.5t-37 -88t-74.5 -70l-20 -8q-2 -1 -5 -1q-6 0 -12 7q-12 23 -15 57q-2 25 -2 52v17q1 36 4 70t3 58q2 41 4 84t6 84q-51 -41 -100 -71.5t-84 -44.5q-49 -20 -98.5 -42 t-99.5 -37.5t-101 -20.5q-20 -2 -40 -2q-33 0 -67 5q-37 6 -70.5 25.5t-68.5 32.5q-70 23 -117 41t-79.5 46.5t-54 74t-42.5 120.5q-25 94 -25 187q0 43 6 86zM160 737q-1 -18 -1 -37q0 -52 8 -116q11 -86 48 -162q-30 131 -30 235q0 36 3 69q15 126 82 235q4 16 9.5 32.5 t9.5 32.5l65 45l39 39q41 66 101 117q23 18 50 32.5t56 28.5q6 4 23 17q-25 -2 -48.5 -7.5t-48.5 -13.5q-86 -29 -150.5 -86t-110.5 -131t-72.5 -159t-32.5 -171z" />
<glyph unicode="H" horiz-adv-x="1177" d="M29 520q-4 2 -4 9t4 18q0 211 24 416q6 45 11.5 101t16.5 112.5t31.5 107.5t55.5 86q16 16 39.5 35.5t50.5 15.5q12 -14 12 -28q16 16 35 32.5t33 24.5q9 5 16 5q4 0 6 -1q8 -4 0 -29q-4 -8 -8 -15t-8 -15q-6 -14 -13 -29.5t-12 -34.5q4 -10 12.5 -19t16.5 -18l-45 -43 q-20 -115 -27.5 -258t-9.5 -270q27 12 53.5 19.5t55.5 13.5q119 31 241 41q88 7 171 7q33 0 65 -1l-8 -10h16q-1 44 -1 87q0 76 4 150q7 116 34 213v25q4 18 21.5 41.5t38 44t41 33t28.5 4.5l6 6v-19q2 -2 2 -4t2 -6v-18l56 32q-4 -10 -13 -26q10 -39 11 -82q0 -43 -4.5 -86 t-9.5 -86t-5 -82q-4 -115 -4 -227q0 -113 2 -226q2 -18 3 -35.5t5 -33.5q8 -80 19.5 -160t25.5 -158q0 -6 4 -22q8 -29 14.5 -57.5t10.5 -57.5l2 -4l-2 -2q0 -2 1 -3t1 -3q-2 -12 -18.5 -36t-36.5 -45q-22 -22 -42 -35q-12 -7 -21 -7q-7 0 -13 4q-4 0 -4 -4q0 4 -1 5t-1 3 q-8 27 -14.5 53.5t-12.5 53.5q-16 45 -33 83q-10 -2 -20 5l-2 -2v4q-27 35 -41 102.5t-22.5 142t-12.5 145t-8 113.5l20 17q-2 8 -2 14q0 8 -2 17q-31 -20 -51 -21q-72 -2 -138.5 -3t-133 -6t-135 -14.5t-142.5 -25.5v-72q0 -29 -4 -85q-4 -57 -5 -117v-15q0 -52 6 -99 q7 -54 28 -83q2 -2 8 -2l-16 -19q4 -16 5 -31.5t3 -31.5q-4 -12 -20.5 -37t-37 -46.5t-42 -34.5t-33.5 -3h-2v2q-2 4 -4 9t-5 10q-31 -27 -49 -15l-4 -4v14q-6 70 -22.5 136.5t-24.5 138.5q-10 78 -13 155.5t-5 155.5z" />
<glyph unicode="I" horiz-adv-x="839" d="M31 1247q10 21 31.5 41.5t45 37.5t37.5 22l2 2h3q16 4 33.5 5t33.5 3q20 4 39.5 9t38.5 9q92 18 180 26q28 3 57 3q61 0 123 -12l-16 -19q2 0 4 1t4 1q25 4 50.5 9.5t54.5 11.5l-4 -4q14 6 27 12t30 6q2 -2 10 -2v-4q-35 -33 -66.5 -63.5t-64.5 -61.5l4 -4 q-10 0 -20.5 -6t-22.5 -10t-25.5 -6.5t-25.5 -4.5q-2 -63 -14.5 -125.5t-18.5 -119.5q-4 -41 -8 -74l-8 -66q0 -49 -1 -99t-3 -99l-6 -86q2 -14 2 -29q0 -12 2 -27q4 -84 4 -168q0 -82 14 -163l4 2v-15l-2 -2q-4 -8 -9 -19.5t-15 -23.5q10 4 21 5t22 3l2 2h8l2 -2 q16 4 33.5 5.5t33.5 3.5q16 4 45 8q4 0 17.5 -1t23.5 -1q2 0 4.5 1t4.5 1h8l-2 -2q14 -6 3 -27.5t-32.5 -44.5t-48.5 -41t-45 -20q-27 -2 -53.5 -4.5t-53.5 -6.5q-16 -4 -28 -4q-27 -12 -56.5 -17t-62.5 -13.5t-66.5 -21.5t-70.5 -44q-27 -18 -43 -18q-18 -16 -39 -25.5 t-39 -9.5q-10 10 -6 18t10 19q27 53 68 91t90 66q-11 205 -11 409q0 89 2 179q7 293 21 590q0 8 10 29q-29 -4 -57.5 -9.5t-56.5 -9.5q-41 -8 -80 -18.5t-80 -10.5q-7 7 -7 16q0 7 5 17zM170 -70l27 13q10 12 21 23l22 22v6q-4 -2 -13.5 -5t-13.5 -7l-12 -13 q-8 -8 -11.5 -11t-5.5 -6t-5 -7t-9 -15z" />
<glyph unicode="J" horiz-adv-x="1157" d="M25 403l104 91q6 4 14 12l17 14v-2q25 16 51 12q27 -20 46 -74.5t40.5 -115.5t51.5 -114.5t75 -71.5q14 -6 45 -5t45 3q63 10 97 44.5t55 88.5q4 10 5 22t5 23l-2 2q0 2 -2 4l6 6q10 53 16 105.5t15 105.5q0 -10 -1 -23.5t1 -5.5v17q0 8 2 16h-2q2 0 2 2q2 25 2 49 q0 27 2 54v14q-4 39 -4 76v77q-4 41 -10.5 84t-9.5 85q-1 21 -1 42t1 42q3 42 16 81q-10 -2 -19 -2q-8 0 -18 -2q-16 -4 -34 -7t-34 -5q-31 -2 -20 20q-35 -6 -67 -10t-64 -4q-10 8 -5 22.5t17 30t29.5 30.5t31.5 28v8q12 10 25.5 18t25.5 19q25 25 56 43t65 37l-14 -27 q6 2 23 6q14 4 27 8t28 8q8 4 15 5.5t16 5.5q16 12 33.5 20t33.5 4l2 2v-6q72 18 142 23q11 1 21 1q57 0 107 -24q2 -6 2 -12q0 -8 -3 -15q-5 -12 -13 -22q4 -10 -6 -26.5t-24.5 -32t-28 -27.5t-17.5 -16q-27 -23 -56.5 -37.5t-63.5 -24.5v-47q0 -23 2 -45q2 -104 4 -214 v-26q0 -96 -13 -190q2 -37 6.5 -74t14.5 -65q4 -16 10 -35t8 -35v-11q0 -106 -36 -216q-37 -117 -109 -201q-68 -80 -157 -125t-182 -49h-17q-84 0 -163 36q-87 40 -153 130q-61 86 -80.5 176t-29.5 192zM438 18q49 -16 103 -16q11 -1 21 -1q47 0 87 15q27 10 49.5 24.5 t46.5 27.5q8 14 14.5 28.5t10.5 24.5q10 29 19.5 62.5t15.5 62.5q7 35 7 67v9q-1 36 -7 75q-8 -29 -23 -63q-12 -37 -30.5 -86t-45 -93t-62.5 -75t-81 -31q-6 4 -6 21q0 6 2 10q-29 -20 -59.5 -35.5t-61.5 -26.5z" />
<glyph unicode="K" horiz-adv-x="1187" d="M25 1186q2 12 4 24.5t6 24.5q6 14 17 32.5t26.5 35t32 30t34.5 17.5q14 16 31 33.5t32 27.5q14 10 26 11h2q10 0 12 -15v-27l-4 -2q-3 -31 -3 -62v-16q1 -38 3 -75q16 6 22 -13q-4 -41 -11 -80.5t-11 -80.5q0 -4 -1 -9.5t-1 -9.5q-2 -53 -2 -104v-103l6 -104 q117 111 239.5 212t251.5 202q45 35 90 69.5t94.5 63t101.5 50t110 28.5q12 -2 12 -13q0 -10 -6 -21.5t-14.5 -21.5t-12.5 -14q-49 -57 -108.5 -97t-122.5 -79q-4 -4 -7.5 -8.5t-7.5 -8.5q-20 -29 -53 -60.5t-68 -59.5q-59 -57 -117.5 -113.5t-117.5 -112.5h2 q178 -78 332.5 -180t277.5 -256q4 -2 5 -3t6 -3q-2 -2 -4.5 -3t-4.5 -3q0 -10 -4 -18.5t-8 -18.5q18 -23 31.5 -45.5t17.5 -44.5h2l-2 -2q0 -16 -2 -25q-2 -4 -4 -7t-4 -7q0 -4 -1 -10.5t-1 -12.5q-10 -41 -44 -73.5t-71 -49.5q-25 -6 -45 5.5t-36.5 32t-31 43t-24.5 38.5 q6 4 11 10.5t12 12.5q-57 41 -121 72.5t-125.5 64.5t-115.5 69.5t-91 88.5q0 12 2 16q-51 23 -102.5 43.5t-102.5 40.5q4 -35 7 -66.5t8 -66.5q4 -37 9 -87t12 -103.5t14.5 -105.5t15.5 -93l10 8q4 -25 7 -48.5t5 -47.5q-4 -12 -20.5 -36t-37 -45.5t-42.5 -34.5 q-12 -7 -21 -7q-7 0 -12 4q-2 0 -2 -2v4q-14 27 -23.5 69t-17.5 93q-10 -4 -18 -6t-17 -4l-4 4q-12 -6 -22 -2l-9 -9q-2 6 -2 15v12q-16 100 -27 201.5t-22 206.5l15 12l-7 98q-4 -4 -6 -4q-27 -2 -18.5 18.5t22.5 40.5q-6 123 -6 248q0 39 2 94.5t2 112.5q0 59 -4 114.5 t-14 98.5z" />
<glyph unicode="L" horiz-adv-x="1212" d="M27 78v11q-1 90 31 174q34 89 67 177q16 94 43 160v2l4 8l4 8t10.5 13.5t18.5 21.5q4 23 7 43.5t7 40.5v51q-14 -10 -26.5 -14t-22.5 6q-2 6 -1 23.5t5 36t9 37t7 28.5q4 45 4 84v10q0 9 -1 17q0 34 2 67q-4 29 -7.5 55.5t0.5 53.5q-4 16 -10 25q4 4 8 6t9 6l6 18l-17 -8 l4 8q10 16 31 41q12 27 37 51q18 18 38.5 35t49.5 21q2 -2 10 -2q8 -23 -1 -45.5t-17 -44.5q23 18 45 28q6 2 13 3t14 -1q16 -14 30 -39l-26 -24h2q10 -39 9 -79q0 -25 -3 -51q-10 -67 -27 -132q16 4 19 -15q-16 -139 -19 -276q-2 -64 -2 -129q0 -74 2 -150q2 -72 6 -148 q1 -25 1 -50q0 -50 -5 -99q4 2 7.5 3t7.5 3q55 19 110 25q40 4 80 4h28q54 -2 107 -6q35 -3 70 -3q17 0 35 1h4q29 6 55.5 12t54.5 10q8 2 15.5 3.5l17.5 3.5q6 4 13.5 6t15.5 6l-4 -8q41 8 84 13q20 2 35 2q19 0 33 -3q22 -5 21 -25q0 -25 -52 -77l-21 18 q-16 -23 -39.5 -42t-40.5 -30q-70 -41 -173 -45q-69 -3 -140 -3q-36 0 -72 1q-23 -6 -45 -11t-45 -13q-39 -10 -82 -26.5t-87 -31t-89 -24.5q-32 -7 -62 -7q-12 0 -24 1l-6 6q-13 -4 -27 -6q-7 -1 -12.5 -1t-9.5 1q-16 2 -14.5 17t11 32.5t20.5 32t13 16.5 q-20 -18 -40.5 -28.5t-30.5 -0.5q-12 20 -14.5 42t-0.5 44v56q-4 -4 -16 -13q-10 -8 -28.5 -19t-30.5 1z" />
<glyph unicode="M" horiz-adv-x="1277" d="M28 -32q-1 28 -1 60q0 41 2 86q4 79 15 165t28 172q-2 53 -2 104v107q0 45 1 88t10 80.5t29.5 71.5t59.5 63q4 23 9 43t11 43q4 12 8.5 24t8.5 25q-2 10 -3 18t-1 19l24 20q4 20 5 38.5t-5 39.5l133 127q10 -31 8.5 -58.5t-12.5 -56.5h19q41 -104 63.5 -212.5 t50.5 -217.5q12 -41 23.5 -79t22.5 -72q12 -43 30 -78v4q6 29 13.5 55.5t17.5 54.5q10 31 22.5 63t24.5 62q2 2 1 3t1 4q6 18 16.5 43.5t19.5 53t13 54.5t-4 47l74 70q4 10 9 19t9 20q31 63 66 121.5t84 109.5q14 16 29.5 27.5t33.5 21.5q4 2 9 2q6 0 10 2q6 2 12 2 q6 -4 10 -10q4 -23 -7 -62.5t-28 -78.5q16 -29 27.5 -99.5t18 -149.5t10.5 -150.5t6 -104.5q6 -102 13 -204.5t26 -202.5l2 -3q18 -63 46 -120.5t50 -116.5q4 -4 5 -6t5 -6q-4 -4 -6 -5.5t-4 -3.5q-4 -14 -12 -26q12 -27 33 -51l-15 -15q14 -39 26.5 -80t20.5 -82 q-4 -12 -20 -36.5t-37.5 -46t-43.5 -33.5q-11 -6 -19 -7q-9 0 -15 7v-2v4q-43 92 -74.5 187t-66.5 188q-18 47 -40 100t-39 107.5t-29.5 110.5t-12.5 110q-4 8 -4 12l6 6q10 27 31 53q-2 14 -4 28.5t-4 31.5q-12 66 -22.5 132t-16.5 134q-27 -53 -51.5 -108.5t-41 -109.5 t-23.5 -106q-3 -24 -3 -49q0 -27 4 -53l18 12q-16 -45 -43.5 -78.5t-68.5 -56.5q-10 -4 -19.5 -8t-19.5 6q-6 23 -6 43l-8 -8q0 -4 4 -8l-6 -6q-2 -2 -3 -9q-6 -8 -22 -29.5t-35.5 -42t-40 -30.5t-33.5 2q-45 102 -85 207.5t-72 216.5q-10 -68 -17.5 -134.5t-13.5 -133.5 q0 -104 2 -206t2 -206q0 -4 2 -4l-2 -2q-2 -10 -14.5 -29.5t-29.5 -39t-35.5 -36t-35.5 -18.5v-2q-6 -6 -19 -19.5t-28.5 -25.5t-30 -17.5t-24.5 5.5q-12 49 -15 115zM711 498l12 10h-10q0 -2 -1 -4t-1 -6zM1024 1430l2 -3q-2 0 -2 3z" />
<glyph unicode="N" horiz-adv-x="1107" d="M28 768v40q0 160 7 325q0 16 -1 50t-1 72q0 41 3 81t11 67q0 4 -1 9t-1 9l14 9q12 16 32 38.5t39.5 40t34.5 21.5q3 1 5 1q11 0 14 -15q4 -23 6.5 -44.5t6.5 -44.5q23 12 45 11q2 -2 4 -2t4 -2l-6 -7q4 -10 7 -25.5t7 -21.5q10 -31 21 -51q6 2 11 3t11 1q2 4 10 13 q0 -4 1 -7.5t1 -7.5q16 -25 24.5 -57.5t14.5 -63.5q35 -90 79 -174t91 -170q29 -53 57.5 -108.5t59.5 -108.5q41 -57 86 -113.5t90 -109.5q-3 47 -3 95v23v40q0 40 -1 80q-2 47 -7 113.5t-10.5 141t-5.5 150.5q0 78 10.5 148.5t34 128t64.5 92.5q14 12 30.5 23.5t37.5 6.5 q12 -8 13 -40v-16q0 -25 -2 -53q-3 -38 -9 -74t-9 -52q2 -47 3 -82t4 -39q10 -121 29.5 -240.5t38 -239.5t33.5 -240t17 -240q-6 -18 -32 -56q4 -4 6 -4l-4 -4q2 -20 -11.5 -41.5t-33 -40t-42 -31t-40.5 -14.5q-10 10 -20.5 19.5t-20.5 19.5q-10 8 -23 23q-6 6 -11 13t-9 15 q-37 43 -70 87t-67 89q-27 29 -52 64q-8 8 -10 14q-47 59 -92 118.5t-86 123.5q-33 49 -59.5 102l-53.5 107q-14 27 -27.5 51t-25.5 51q12 -80 22.5 -166t16.5 -169t7 -161v-23q0 -66 -5 -124q-6 -27 -26.5 -53.5t-47.5 -46.5q-4 -51 -22.5 -96.5t-57.5 -84.5 q-16 -16 -34.5 -28t-40.5 -15q-25 6 -27 39t-2 52v223q0 51 1 102t1 103l-2 -2q-53 180 -54 360z" />
<glyph unicode="O" horiz-adv-x="1204" d="M31 794q8 92 36.5 176.5t79.5 151.5q35 47 76 89t82 87q31 35 92.5 70t132 56.5t140.5 21.5t118 -35l13 12q117 -39 196.5 -105.5t118.5 -189.5q8 -28 8 -55v-11v-10q0 -28 9 -55q13 -59 33 -139q13 -53 14 -114q0 -31 -4 -64q-14 -127 -82 -250t-170.5 -214t-231.5 -139 q-86 -32 -175 -32q-44 0 -89 8q-74 12 -133 49t-104.5 89.5t-77 117t-50.5 133.5q-23 80 -31 170q-4 46 -5 93q0 45 4 89zM199 1032q61 98 149 168q29 23 82 54.5t119 58.5q-43 0 -90 -15.5t-89 -39t-74 -51t-48 -56.5q-29 -51 -49 -119zM323 756q3 -76 18 -152t46 -142.5 t82 -113.5q16 -16 34.5 -26.5t37.5 -20.5q47 0 100 9t102.5 26.5t87 40t54.5 51.5q43 78 50 182q2 28 2 56q-1 78 -15 156q-20 106 -63.5 203.5t-104.5 158.5q-10 10 -24.5 16t-29.5 12l-12 -12q-27 26 -69 26q-15 0 -31 -4q-64 -12 -129 -42l-17 -27q-41 -18 -63.5 -45 t-33.5 -59.5t-15 -71.5t-6 -82q-2 -36 -2 -76q0 -30 1 -63zM571 186q32 -4 62 -4q57 0 109 14q79 22 140.5 71.5t101.5 122.5t52 161q-18 -47 -45 -90q-16 -23 -39.5 -47.5t-48 -48t-46 -43t-36.5 -33.5q-25 -23 -94.5 -53t-155.5 -50z" />
<glyph unicode="P" horiz-adv-x="1056" d="M32 1076q-8 34 -8 67q0 39 11 76v2h2q14 41 45 71q16 16 38.5 36t51.5 15q6 -8 12.5 -14t12.5 -12q27 20 55 20q12 4 24.5 9.5t22.5 9.5q39 18 79 31.5t83 17.5q36 3 73.5 3t77.5 -3q78 -6 152 -29.5t138.5 -64.5t107.5 -103q21 -30 21 -66q-1 -4 -1 -8q-2 -42 -17.5 -85 t-37 -82t-37.5 -66q-29 -47 -53.5 -88t-50.5 -80q-70 -152 -202 -247t-313 -126q2 -86 3 -172v-172v-4l-3 -2q-8 -16 -30.5 -46t-46.5 -50q-23 -29 -51.5 -51.5t-45.5 -12.5q-4 0 -4 -4v7q-2 6 -3 11t-3 11q-8 -8 -16 -15t-17 -18q-14 29 -16 80q-1 20 -1 41q0 31 2 65 q3 54 8 103t7 74q5 96 5 191q0 86 -4 172q-9 182 -40 362q-13 72 -31 146zM303 893q4 -66 6 -128.5t4 -127.5q12 4 13 4l-13 -14q0 -8 1 -15.5t1 -17.5q4 8 8.5 15t6.5 12q2 6 6 -6.5t12 -16.5q15 -9 35 -9h4q23 1 41 3q51 2 101.5 7t99.5 22q35 10 57 22q6 4 9 8t7 8 q8 10 15.5 20.5t15.5 20.5q25 59 33 125q5 38 5 75q0 28 -3 56q-6 66 -28.5 125.5t-61.5 104.5l33 31q-92 39 -200 48q-46 4 -88 4q-55 0 -101 -7q-4 -92 -9.5 -184.5t-9.5 -184.5z" />
<glyph unicode="Q" horiz-adv-x="1181" d="M30 633q11 98 43.5 195.5t82.5 185.5q27 47 63.5 88t71.5 84q20 25 57 56.5t83 62t96.5 55t95.5 35.5q49 25 96 32q13 2 25 2q33 0 63 -14q23 -12 44 -24.5t44 -24.5l-21 -20q37 -18 55.5 -26.5t31 -24t23.5 -46t36 -92.5q6 -16 12 -31.5t10 -31.5q37 -74 54.5 -157 t19.5 -165q31 -102 39 -202q1 -17 1 -34q0 -77 -30 -133q-6 -12 -20 -39.5t-31.5 -59.5t-38 -64.5t-39.5 -55.5q20 -35 35 -65q16 -37 29.5 -76t32.5 -74q8 -12 10 -14q-2 -2 -4 -3t-4 -3q-4 -18 -20.5 -42t-37 -42.5t-40.5 -28.5q-11 -5 -19 -5t-14 5v-2q-2 4 -3 5t-4 5 q-23 35 -54.5 92.5t-65.5 124.5q-23 -16 -46.5 -30.5t-50.5 -20.5q-23 -6 -45 -8t-45 -2q-77 -15 -153 -15h-25q-88 3 -162 29q-53 16 -93 59.5t-71 88.5q-18 27 -33.5 52.5t-25.5 53.5q-43 80 -56 174q-8 50 -8 102q0 44 6 89zM228 774q3 -57 5 -100q2 -59 3.5 -114.5 t7.5 -104.5t21.5 -93.5t43.5 -82.5q47 -41 106.5 -73t137.5 -52q44 -13 104 -13q6 0 13 1q67 1 121 12q-27 57 -50.5 113.5t-40 108.5t-24.5 95q-5 25 -5 45q0 16 3 29q6 16 20.5 37.5t31.5 40t37.5 30t41.5 6.5q14 -6 17 -18t3 -25v-18t9 -6q8 -92 41.5 -170t76.5 -154 q14 41 20.5 87t10.5 83q2 17 2 40q0 34 -4 81q-6 78 -20 170q-39 109 -102.5 206t-149.5 157q-29 18 -63 27t-68 20q-47 -8 -93.5 -26.5t-83.5 -35.5q-59 -29 -101 -79t-71 -113q-2 -31 -2 -63q0 -24 1 -48zM371 1141q8 4 14 10t14 10q41 29 107.5 58.5t138.5 46.5l19 20 q-14 2 -28 2q-27 0 -56 -8l-11 -12q-16 0 -26 -2q-47 -20 -90 -53t-82 -72z" />
<glyph unicode="R" horiz-adv-x="1036" d="M26 1182q8 18 29 41.5t47.5 46t32.5 26.5q2 2 4 2t4 2q23 20 43.5 34t49.5 20l-17 -21q53 20 107.5 33.5t107.5 24.5q31 6 50.5 8t37.5 4q12 1 24 1h12q20 -1 52 -1q76 -4 122 -32t69 -73q16 -12 22 -18q16 -23 13.5 -51.5t5.5 -50.5q10 -23 20 -43.5t12 -44.5 q0 -33 -19 -64t-36 -53q-23 -35 -51.5 -62.5t-60.5 -52.5l6 -10q31 -18 56.5 -43t43.5 -43q63 -68 96 -126t48.5 -115.5t17.5 -116t4 -123.5q19 -61 29 -121q4 -23 4 -42q0 -31 -11 -52q-10 -23 -25 -39.5t-32 -32.5q-6 -6 -16 -15.5t-22 -17.5t-24 -10h-5q-9 0 -15 6 q-8 35 -9 75t-1 79q-12 55 -30.5 110t-35.5 109q12 12 24.5 23.5t25.5 23.5q-10 37 -21 65q-12 29 -41 70t-63.5 83t-70.5 77t-65 51q-31 0 -51 12q-6 4 -6 19q-57 -23 -116.5 -42.5t-112.5 -37.5q-2 -2 -8 -2v-78q0 -37 2 -74q2 -18 3 -35.5t5 -35.5q6 -51 17 -101.5 t22 -101.5q2 -10 4 -22.5t6 -26.5q4 -29 7 -57.5t3 -57.5v-6l-4 -4q-6 -14 -22.5 -37t-36 -42.5t-39 -29.5t-31.5 0h-2v2q-2 23 -3 44.5t-5 43.5q-20 -20 -40 -29.5t-32 3.5q-8 20 -10 39.5t-4 42.5q-8 41 -9 96v36q0 35 1 66q-6 123 -7 242q0 119 5 239v64q-5 45 -7 91 q-1 18 0 35q0 28 2 56q-2 20 -2 39v41q-4 16 -6 30.5t-4 31.5q-27 -8 -45 -11q-25 -2 -25 10q1 3 2 7zM287 803q8 0 14 1t14 1q10 6 23.5 12t34.5 17q31 16 73.5 40.5t73.5 45.5q25 16 58.5 38.5t61.5 50t42 61.5q7 16 7 33q0 19 -9 40q-8 16 -12 22q-29 12 -66 19.5 t-49 11.5q-61 10 -131 13h-22q-57 0 -103 -13q2 -4 4 -7t4 -7l-6 -6q4 -16 9 -32t7 -32q1 -13 1 -26q0 -24 -4 -46q-7 -36 -11 -71q-4 -41 -7 -83t-7 -83zM549 860q63 23 118.5 49.5t71.5 61.5q-4 10 -7 20t-7 21q-35 -41 -81 -79t-95 -73z" />
<glyph unicode="S" horiz-adv-x="1193" d="M25 10q16 16 32.5 30.5t32.5 31.5q-6 18 -18 37q2 18 15 40.5t32.5 43t42 34t43.5 9.5l2 2q0 -4 4 -9q12 -16 25 -16l-15 -16q2 -12 10 -23q8 -16 33 -31l4 4q80 -16 148 -18h23q57 0 112 8q33 31 63.5 62.5t65.5 64.5l2 2q4 4 9 9.5t11 9.5l11 10q16 16 33.5 32.5 t35.5 32.5q6 6 13.5 11.5t13.5 11.5q17 64 17 128v7q-1 68 -27 150h-6l-5 -4v2q-74 -14 -145.5 -37t-144 -42.5t-144.5 -29.5q-32 -5 -65 -5q-39 0 -78 7q-23 4 -43.5 14.5t-40.5 20.5q-25 10 -34 33.5t-5 52.5q-8 27 -3 57.5t17 65.5q2 31 5.5 61.5t8.5 58t9 47t6 27.5 q2 6 8 18.5t13.5 25t13.5 21.5l6 9q31 51 76 91t95 72t104.5 59.5t105.5 54.5q47 25 92 51t100 33q8 1 15 1q16 1 34 -3q24 -4 50 -11q12 -2 25.5 -3t27.5 -3q35 6 73 7h15q31 0 62 -3l-117 -135q-16 0 -25 2l-4 -6q-14 -2 -27.5 -4t-29.5 -6h-6q-55 -10 -121 -28.5 t-133 -45.5q-80 -53 -160 -127q-27 -73 -43 -147q-9 -43 -9 -84q0 -31 5 -62h12q51 0 109 14q64 16 128 35t128 33q45 10 88 10q18 0 35 -2q16 -4 36.5 -9t40.5 -9q37 4 66 4q15 0 28 -1q39 -3 64 -26q23 -4 29 -12q25 -41 27 -79q0 -7 1 -13q0 -31 -10 -60 q0 -51 -22.5 -102t-57.5 -98q-27 -49 -66.5 -95.5t-82.5 -88.5t-86 -79.5t-76 -70.5q-66 -72 -120 -107.5t-116 -46.5q-55 -23 -112 -34q-4 0 -9 -1.5t-10 -1.5q-16 -12 -22 -18q0 4 2 7t2 7q-41 -6 -74 -6t-64.5 4t-64.5 14.5t-76 22.5q-23 8 -44 16.5t-35 28.5zM236 850 q4 -20 12 -31l18 86q-18 -26 -30 -55zM254 1044q43 53 100 101q4 6 7.5 12t7.5 12q-29 -16 -51.5 -31.5t-36.5 -25.5q-15 -15 -27 -68zM659 170l93 53q6 14 11 27.5t11 28.5q-31 -27 -58.5 -54.5t-56.5 -54.5zM940 487q12 10 23.5 20.5t23.5 20.5q-2 35 -18 74q-4 4 -5 9 t-6 10q-2 -66 -18 -134z" />
<glyph unicode="T" horiz-adv-x="1355" d="M26 1164q8 18 30 42.5t48.5 46t32.5 25.5q4 2 10.5 3t16.5 5q12 12 23.5 22.5t15.5 14.5q10 8 24.5 14t30.5 11q14 8 27.5 16t29.5 16q35 16 66 17h70l-27 -31q90 0 181 -6q55 -4 99 -4q29 0 54 2q49 4 97 5t99 5q23 0 44.5 2t43.5 -2q2 0 3.5 -1t3.5 -1h4h8l-2 -2 q16 -10 -2 -39q10 0 18 -1t19 -3q24 2 62 3h25q25 0 50 -1q37 -2 64.5 -8t33.5 -21q1 -6 1 -12q0 -15 -8 -26q-11 -15 -24 -31q-53 -66 -101 -77q-21 -5 -44 -5q-29 0 -59 8q-29 -23 -54 -33h-10q2 2 6 10l-8 -10q-18 14 -48 21.5t-64 10.5q-25 2 -51 2h-17q-35 -1 -64 -1 q-4 -29 -11 -56.5t-11 -56.5q-2 -4 -2 -10q0 -4 -2 -8q-1 -37 -1 -76t1 -80q2 -82 7 -164t11 -157.5t12 -134.5q10 -82 26.5 -161t21.5 -163q-4 -16 -26 -46t-48 -52q0 -4 1 -9.5t1 -9.5q-2 -12 -18.5 -34.5t-36 -44t-41 -35t-35.5 -5.5l-2 -2q0 -2 -2 -4q0 4 -1 6t-1 5 q-33 137 -45 283q-13 146 -15 294q-1 50 -1 98q0 99 3 197q4 147 4 287q0 25 24 58.5t52 59.5q2 4 4 9.5t4 9.5q-6 0 -13 -1t-13 -1q-59 -10 -112.5 -20.5t-96.5 -16.5q-53 -8 -109 -8q-53 0 -106 -2h-8q-29 -10 -57.5 -20.5t-49.5 -6.5l-6 6v6q2 25 15.5 45.5t33.5 38.5 q-23 -6 -43 -12t-43 -8q-24 -2 -24 9q-1 2 1 6z" />
<glyph unicode="U" horiz-adv-x="1224" d="M30 1026q-7 41 -6 83q0 49 9 99q10 23 24.5 44.5t36.5 37.5q8 18 26.5 42t39 42.5t38 26.5t23.5 -4h2l4 4q2 2 4 3t5 3q2 0 3 1t3 1q4 2 6 4t6 2l2 2q10 4 16 -2l4 -4q0 -4 3 -6v-35l65 64q8 -25 8 -49q0 -17 -4 -33q-10 -39 -12 -82q-4 -59 -5 -110.5t-1 -110.5 q0 -94 1 -187.5t12 -185.5t33.5 -182.5t63.5 -174.5q14 -12 28.5 -21t31.5 -19l30 20v14q70 -35 147 -47t154 -12q15 80 19 150q3 48 3 95q0 21 -1 43q-2 68 -6 140t-6 152q-1 31 -1 61q0 61 5 120q4 44 4 89.5t-4 91.5l112 96q0 2 1 4t1 4q16 37 49 72t74 45h4q2 0 3.5 -1 t3.5 -1l38 33q4 -100 13.5 -201.5t18.5 -202.5q10 -100 16 -200q3 -52 3 -105q0 -49 -3 -98q-2 -20 4 -37.5t12 -36.5q6 -24 6 -49q0 -8 -1 -18q-3 -34 -14 -70.5t-27.5 -68t-35.5 -58.5q-39 -61 -93 -113.5t-116.5 -92.5t-133 -64.5t-142.5 -30.5q-73 -16 -141 -18h-16 q-58 0 -107 12q-70 18 -119 63t-80 107q-35 68 -52.5 171t-23.5 224q-12 72 -21 142.5t-20 142.5q-13 90 -27 180z" />
<glyph unicode="V" horiz-adv-x="1347" d="M25 1280q2 0 2 2q4 18 17 41t32.5 42t41.5 31q17 9 33 10q5 0 9 -1q25 -57 39 -111q12 8 18 11q18 25 45 43t51 24h6q10 -2 13 -12v-25q14 -39 26.5 -76.5t26.5 -72.5q23 -63 39 -107.5t37 -105.5q43 -129 83 -257t91 -255q27 -66 61 -137q10 43 19.5 73.5t13.5 40.5 q49 168 116.5 330t145.5 322q29 61 60.5 122.5t85.5 108.5q14 12 30.5 23.5t36.5 7.5q12 -12 13 -39q41 41 77 55q20 4 24 0q2 -2 3 -9q0 -6 -2 -16q-23 -66 -61.5 -119t-79.5 -106q-4 -10 -6.5 -19t-4.5 -14q-37 -117 -84 -228.5t-94 -223.5l86 26q-45 -59 -92 -118.5 t-84 -124.5q-18 -33 -31.5 -68t-27.5 -69q-4 -12 -6.5 -24.5t-6.5 -25.5q-4 -18 -11 -33.5t-17 -31.5q-2 -2 -2 -4q-4 -4 -7.5 -10.5t-7.5 -10.5q6 -16 11.5 -29.5t11.5 -29.5l4 -4l-2 -2q2 -16 -14.5 -42t-38.5 -48q-24 -21 -46 -33q-12 -7 -21 -7q-8 0 -13 5v-2q0 2 -2 2 v2q-10 12 -18.5 25.5t-18.5 27.5q-8 -4 -14 -4q-23 -23 -46.5 -35t-35.5 -2v-2q0 2 -2 2v2q-16 16 -21.5 34.5t-5.5 41.5l4 4q-25 74 -56.5 147.5t-66.5 147.5t-69.5 145.5t-63.5 141.5q-37 86 -70.5 171t-62.5 173q-16 47 -27.5 95t-27.5 95q-14 29 -27.5 54.5t-15.5 60.5z M324 1360l2 2q-2 0 -2 -2zM1194 1319l2 2z" />
<glyph unicode="W" horiz-adv-x="1259" d="M25 1225q4 2 8 6q6 16 18 35.5t28.5 36t35 27.5t37.5 11q2 2 3 4.5t5 4.5q0 -6 2 -9l24 -67l-8 -8q51 -221 98.5 -440.5t94.5 -442.5l-2 2q0 2 -2 4l4 -8q0 -4 1 -7t1 -7q16 -45 32.5 -88t32.5 -86q4 23 10.5 45t12.5 45q4 16 8 24q8 84 35.5 154.5t97.5 99.5 q16 16 34.5 26.5t39.5 6.5q8 -4 10 -8q6 4 12.5 7t12.5 7q2 0 3 1t3 1q6 2 13 3t13 -1q12 -25 20.5 -52.5t18.5 -51.5q29 -78 63 -154t64 -151q4 -8 8.5 -15.5t8.5 -15.5q4 51 9 99t9 89q6 102 10 217t16.5 229.5t37 222t69.5 193.5q4 6 22.5 28t40 41.5t40 27.5t22.5 -13 q0 -10 -1 -21t-3 -22q6 2 23 2q6 -12 8 -25t6 -26l-29 -26q-2 -16 -3 -31.5t-1 -28.5q-8 -66 -18 -130t-19 -130q-16 -117 -29.5 -233.5t-29.5 -233.5q-2 -14 -4 -27.5t-4 -27.5q3 -47 3 -98v-26q-1 -64 -18 -103q-6 -14 -16 -27.5t-20 -26.5l-7 -55q-4 -10 -18 -30.5 t-31 -41.5q-6 -23 -17 -44t-32 -42q-16 -14 -36.5 -30.5t-43.5 -16.5q-10 0 -24.5 18.5t-27.5 41t-22.5 42t-9.5 21.5q-47 88 -86 179t-74 186q-4 10 -8 21l-8 22q-4 -86 -6 -170t-16 -170q-2 -12 -19.5 -37t-39 -47.5t-43 -33.5t-34.5 1q-4 4 -4 8q-4 0 -4 -4q-16 8 -20 37 q-35 -31 -56 -25q-23 -16 -38 -12l-5 -4q-4 8 -8 25q-4 10 -6 18t-6 16q-59 188 -110.5 379t-92.5 385q-8 35 -18 84t-16.5 101.5t-7.5 101.5v7q0 44 11 77q-10 37 -17 75t-17 74q0 2 -4 11z" />
<glyph unicode="X" horiz-adv-x="1093" d="M26 -122q3 18 25.5 49.5t69.5 72.5q2 2 3 4t3 4q27 70 61 144q31 84 76 172q74 156 172 315q-35 53 -66.5 107.5t-60.5 113.5l-21.5 43t-42 82t-53 100.5t-54 99.5t-46.5 78.5t-31 36.5q-12 8 -4 29q-8 23 -8 45q-1 21 7 42q16 42 44 72q26 30 58 42q15 6 26 6 q13 0 23 -8q18 -14 33.5 -44t29 -64t26.5 -65.5t26 -54.5q43 -78 89 -154.5t87 -156.5q16 -37 32.5 -73.5t32.5 -73.5q39 59 77 116.5t79 114.5q29 45 66.5 103.5t84.5 105.5q35 47 74 80q8 14 21.5 31.5t29 33t34 24.5t36.5 5q2 -4 2 -10q0 -4 2 -8l-10 -11q2 0 6 5 q-10 -18 -18.5 -36t-18.5 -34q0 -4 -2 -8t-2 -11q-78 -135 -161 -261t-167 -255l2 -2q-2 4 -11 -26.5t-32 -65.5q-8 -10 -14 -21.5t-14 -21.5q8 -16 15 -31.5t17 -31.5q53 -78 105.5 -154t105.5 -154q25 -39 47.5 -76.5t45.5 -78.5q29 -35 55 -74t41 -80l2 -2l-2 -2 q0 -18 -16.5 -43.5t-39 -47t-45 -33t-32.5 -1.5q-27 41 -51.5 81t-47.5 79q-4 6 -8 11t-8 11q-53 72 -105.5 145t-99.5 150q-23 35 -43 72t-39 74q-4 4 -12 16q0 -2 -1 -3t-1 -3q-18 -35 -45 -80t-52.5 -94t-48 -99.5t-34.5 -95.5l30 19q-14 -27 -25 -49.5t-28 -44.5 q-4 -4 -26.5 -29t-44.5 -41q-4 -6 -9.5 -11t-9.5 -12q-8 -20 -10 -30q-4 -6 -25.5 -32t-45.5 -47q-24 -22 -42 -30q-4 -2 -7 -2q-11 0 -9 25v2q-27 -14 -41 -9q-12 4 -12 17q0 4 1 7z" />
<glyph unicode="Y" horiz-adv-x="952" d="M25 1202q4 31 23.5 53.5t41.5 42.5q45 39 62 39q29 18 55 17q72 -131 162 -245t186 -228q16 -23 35.5 -43.5t38.5 -42.5q12 53 39 90q-6 86 -10.5 172t-4.5 172q-2 2 -2 4l2 2q2 16 14.5 37.5t30 40t39 32t39.5 13.5q4 4 6 7t6 7v-18q8 -14 19 -21l-19 -18 q4 -217 25 -427t45 -421q2 -14 10.5 -70.5t16.5 -124.5l24 25q4 -18 11.5 -37.5t7.5 -38.5q-2 -23 -11.5 -42t-23.5 -38q0 -29 -2 -51t-8 -33q-6 -8 -22.5 -29.5t-36 -42t-40 -30.5t-32.5 2q-12 14 -23 39l-6 -6q-16 -10 -34.5 -21.5t-41.5 -23.5q-51 -47 -117.5 -98.5 t-136 -91.5t-136.5 -59q-36 -11 -68 -11q-27 0 -52 8q-41 14 -58.5 44t-35.5 62q4 43 44 81t79 48h8h2v-2q14 -4 27.5 -10t29.5 -8q10 -1 20 -1q34 0 77 10q57 13 114.5 33.5t111.5 43t93 41.5q8 16 14.5 31.5t10.5 19.5q-10 78 -17.5 154.5t-11.5 154.5q-8 37 -15 76 t-12 78q-4 -6 -10 -12.5t-10 -10.5q-39 20 -80 66q-59 49 -107.5 114.5t-91.5 124.5q-68 86 -130 174.5t-128 174.5l-6 -4q-8 8 -16 12t-14 14z" />
<glyph unicode="Z" horiz-adv-x="1320" d="M25 420l51 59q4 35 31.5 61.5t56.5 49.5q33 20 56.5 19t51.5 -3l238 66l6 6q49 66 98.5 132.5t106.5 125.5q49 53 105.5 94t115.5 82l43 49q-135 -10 -270 -30.5t-260 -43.5q-18 -4 -47 -9t-59 -10t-59.5 -11t-51.5 -17q-4 -4 -9.5 -5t-9.5 -5q-31 -14 -37 -9t2 21 l-12 -10q-2 8 -2 16q0 32 27 58q-16 -4 -33 -6t-33 -2l-6 6q-2 2 -2 6q2 29 20.5 51.5t38.5 40.5h-2q-29 -4 -59.5 -7t-59.5 -3l-6 6q0 2 -1 3t-1 3q4 41 38 74t69 51q26 8 60 11q14 1 29 1q19 0 38 -2q41 6 83 11.5t85 9.5q35 2 69 2h70q127 25 248 33q69 5 126 5 q43 0 79 -3q8 0 28.5 -3t46 -6.5t54 -7.5t53.5 -10q4 0 9 1t9 1l-4 -4q14 -4 24.5 -8t14.5 -8q2 -2 -3 -1t-7 1l-43 -49q16 2 33 2h34l-116 -136h-41q-31 -45 -70 -85t-80 -76q-55 -72 -111.5 -141.5t-111.5 -141.5q33 4 64.5 7t66.5 7q35 2 53 2q20 0 37 -1t36 -2t56 -3h23 q16 0 32.5 -3t28 -9t11.5 -21q-2 -18 -13.5 -35.5t-21.5 -31.5q-27 -33 -46.5 -46.5t-39 -16.5t-43 1.5t-58.5 6.5q-37 4 -63.5 6t-52 3t-52.5 1h-61l-68 -6q-25 -33 -43 -62q-59 -86 -101 -173t-83 -181q-4 -12 -9 -24.5t-11 -22.5q37 29 74.5 53.5t82.5 44.5q63 29 127 39 t127.5 14t128.5 4q66 0 133 7q53 4 106.5 16t108.5 14l-106 -123q25 -2 47.5 -12t46.5 -18q4 -16 -3 -32.5t-19.5 -31t-26.5 -26t-25 -21.5q-14 -12 -39 -22v-4h-6q-54 -21 -119 -21h-12q-72 2 -133 4q-182 -33 -344 -68.5t-330 -89.5l-14 -18q-12 -2 -23.5 -3t-21.5 -3 q-26 -34 -54 -58q-23 -19 -45 -19q-6 0 -12 1q-8 8 -4 19v6q-23 -6 -19.5 7t19.5 34q2 14 3 26.5t5 24.5q29 102 95.5 218t152.5 232q27 39 53.5 77t55.5 79q2 4 4 6t4 6q-37 -43 -78 -84l-18 -18q-16 -16 -33.5 -30.5t-34.5 -28.5q-41 -29 -52 -18t17 52q29 41 60.5 81 t66.5 79q-39 -12 -80 -29.5t-82.5 -32t-83.5 -24.5t-83 -10z" />
<glyph unicode="[" horiz-adv-x="675" d="M27 568.5q-2 70.5 1 154.5t16 171t40 153q2 41 -1 78.5t-1 74.5t15.5 73t45.5 70q23 25 46.5 39.5t58.5 14.5l-33 -39q31 10 62.5 18t66.5 17l-18 -23q45 2 89 -1t89 -1q47 14 87 23.5t58 -0.5q4 -20 -7 -41t-29.5 -38.5t-39 -31.5t-36.5 -20q-35 -16 -71 -21.5t-71 -5.5 q-33 -10 -65.5 -17.5t-61.5 -11.5q-2 -23 -5 -43t-7 -41q-2 -86 -5 -169t-5 -169l6 -252q2 -70 -1 -141.5t7 -142.5q0 -4 2 -6l-2 -2v-2q2 0 2 -3q-4 -14 -14 -28v-53q-4 -16 -21 -39q-6 -25 -20 -41q6 6 14 10l2 2h2q8 4 15.5 6t15.5 6q20 8 37.5 17.5t40.5 17.5 q74 27 152.5 35t154.5 -19q4 -20 -7 -36.5t-24 -30.5q-27 -33 -54.5 -49.5t-58 -24.5t-65.5 -11t-72 -9q-63 -10 -124.5 -25.5t-122.5 -32.5h-2q-4 0 -7 -2v2q-14 0 -16 9.5t6 21.5t22.5 27.5t28.5 29.5q4 6 9.5 10.5t7.5 8.5q-27 -14 -49 -23q-12 -4 -21 4q-12 16 -19.5 48 t-12.5 68t-7 66.5t-4 45.5q-2 18 -5 48t-5 60.5t-4 60t-2 50.5q-2 35 -4 105.5z" />
<glyph unicode="\" horiz-adv-x="980" d="M25 1329l2 2q2 18 14 40t30.5 41.5t40 31.5t42.5 10l4 4v-4h2q31 -35 61.5 -74t52.5 -82q29 -59 48.5 -120.5t48.5 -120.5q16 -33 29.5 -64.5t29.5 -64.5q23 -37 37 -63.5t18 -30.5q51 -88 105.5 -171t111.5 -167q66 -82 128.5 -164t117.5 -170q4 -2 5 -4t3 -4 q0 -14 -4 -23q2 -4 2 -6t2 -6q-4 -12 -20 -37t-37.5 -46.5t-43 -33.5t-34.5 -2v2q-12 16 -23.5 33.5t-23.5 34.5q-10 10 -14 16h-2q0 2 -2 2l-2 2q-92 98 -179 213q-94 121 -172.5 247t-152.5 257q-31 51 -62.5 101t-64.5 100q-18 25 -34.5 51t-29.5 55q-4 10 -5 23.5 t-3 27.5q-4 10 -7 18.5t-7 18.5q0 14 5 25.5t13 21.5q-20 39 -28 78q-2 0 -2 2z" />
<glyph unicode="]" horiz-adv-x="604" d="M31 1266.5q10 19.5 29.5 39t41 37t31.5 23.5q43 14 101.5 25.5t120 16.5t118.5 2t100 -19q0 -4 1 -5.5t1 -5.5q0 -6 3 -8q-6 -25 -23 -47v-12q16 6 23 -13q4 -23 -2.5 -45t-10.5 -45q-4 -4 -6 -4q4 -78 7 -155.5t1 -155.5q-8 -180 -20 -358.5t-17 -360.5l2 -2v-6 q-2 -2 -2 -6l2 2q-2 0 -2 -2v-2v-31q8 4 15.5 8t15.5 8q-8 -14 -15 -25t-16 -22v-2q-2 -8 -12 -24q-2 -2 -2 -4t-2 -5q-2 -4 -3 -5t-3 -5q-4 -4 -7 -9t-7 -9t-5 -4q-6 -6 -8 -11q-4 -2 -5 -4t-3 -4q-6 -8 -13 -13t-14 -9l-4 -4l-8 -4t-20 -9h-6q-4 2 -7.5 3t-5.5 4v43 q-53 -12 -105 -11.5t-85 -9.5q-23 -10 -44.5 -21.5t-43.5 -19.5q-14 0 -21 6q-4 12 -4 19q-18 -2 -29 4q-10 10 -6 19t11 20q41 70 96 103.5t133 45.5l-29 -37q23 8 40.5 14.5t31.5 12.5q-8 90 -2 189.5t18.5 198.5t26.5 195.5t18 182.5q4 80 7.5 148.5t11.5 152.5q0 2 4 10 h-25q-39 -2 -83 -9t-88 -13t-87 -8.5t-82 6.5q-10 4 -11 6t-13 6l-2 2q-12 12 -2 31.5zM334 156l8 4z" />
<glyph unicode="^" horiz-adv-x="610" d="M26 662.5q-1 15.5 4 34t13 37t16 32.5q4 14 8.5 26.5t10.5 26.5l-6 -2q4 8 9 16.5t11 18.5q18 41 40 85t44 87q10 59 23.5 115.5t60.5 113.5q16 18 39 43t51 31q16 12 32.5 20.5t35.5 4.5q10 -14 6 -37l35 26q-2 -10 -3 -18t-1 -16q2 -2 2 -4t2 -5q4 -29 8 -54t8 -54 l12 -49q16 -47 35 -92t31 -86q6 -25 8 -49.5t4 -49.5q10 -29 16.5 -55.5t2.5 -52.5q-2 -12 -19.5 -37t-39 -47.5t-43 -33.5t-33.5 1q-10 23 -13.5 45.5t-5.5 44.5q-10 29 -21.5 54.5t-21.5 54.5q-18 53 -28.5 108t-16.5 111l-12 43q-14 -27 -29.5 -53.5t-32.5 -55.5 l-21 -52.5t-28 -64.5q-10 -23 -17 -41t-16 -36q0 -2 1 -3t1 -3h-4q-12 -29 -27.5 -55.5t-41.5 -53.5q-16 -16 -34.5 -28.5t-41.5 -14.5q-12 8 -13 23.5z" />
<glyph unicode="_" horiz-adv-x="946" d="M27.5 1q5.5 17 24 39.5t40 42t25.5 23.5q10 6 21.5 12.5t23.5 12.5l-6 -10q59 12 111 27.5t116 11.5q4 0 8 -1t8 -1q66 16 132.5 19t127.5 5q45 0 99.5 -1t97.5 -21q12 -6 18 -25q12 -4 22.5 -9t21.5 -11h2l-2 -2h2q4 -20 -8.5 -44t-33 -43.5t-44 -32.5t-41.5 -16 q-45 0 -93 7q-78 -27 -156.5 -11.5t-156.5 31.5q-2 0 -14.5 -1t-25.5 -3t-25.5 -4t-16.5 -2q-41 -16 -83 -31.5t-85 -11.5l-2 2v-2q-12 -10 -28.5 -15.5t-30.5 1.5l-6 6v6q0 23 14 45q-20 -4 -35 -8q-27 -2 -21.5 15z" />
<glyph unicode="`" horiz-adv-x="612" d="M25 1282q2 23 14 41t29 35l6 6q16 16 38.5 35.5t51.5 15.5q2 -6 8 -8l35 27q-4 -59 40 -113.5t107.5 -106t128 -99.5t101.5 -95q2 -2 4 -2l-2 -2q4 -20 -9.5 -43t-34 -41.5t-43 -31.5t-40.5 -15q-8 4 -15 10q-31 -20 -47 -8v2q-31 41 -89 91t-116.5 102.5t-106.5 103.5 t-60 96z" />
<glyph unicode="a" horiz-adv-x="985" d="M25 246q2 24 10 51q-7 29 -7 52q0 15 3 28q12 45 38.5 85t61.5 77q29 49 67 94t82 81t93 59.5t98 31.5q57 39 121 65q35 14 64 15q25 0 46 -11q57 -33 91 -77q23 -6 41 -19l12 -12t12 -14q23 20 41.5 28t22.5 -12q8 -60 10 -118q1 -29 1 -58.5t-1 -59.5q2 -8 3 -14t1 -12 q0 -39 5 -82q1 -9 1 -18q0 -32 -14 -58q0 -10 -1 -21.5t-1 -21.5q10 -78 12 -143q4 -20 7 -40t5 -38q2 -12 11 -23l-9 -8q0 -37 -8 -70.5t-33 -64.5q-6 -6 -19 -19.5t-28 -25.5q-16 -11 -30 -17q-5 -2 -10 -2q-9 0 -15 7q-2 2 -2 4l-2 2q-2 0 -4 -2h-6q-14 0 -19 4 q-10 31 -10 72q0 39 -4 67q-4 31 -7 61.5t-7 63.5q-53 -35 -117 -59.5t-135 -44.5q-12 -4 -23.5 -7.5t-23.5 -7.5q-31 -16 -63 -29.5t-63.5 -19.5t-62.5 -2t-61 27q-55 39 -100.5 93t-67.5 118q-6 16 -6 35v10zM195 455q-1 -12 -1 -24q0 -49 13 -97q12 -18 27.5 -43 t34 -46.5t39.5 -38t46 -18.5q11 -2 25 -2q20 0 47 4q47 6 102.5 19.5t110.5 36t94 51.5q-4 47 -7 96t-7 99q-2 16 -2 32q0 18 -2 35l-8 -6q-2 10 -2 22v23q-4 10 -9.5 19.5t-9.5 19.5l-18 -16q-6 10 -6 22q0 14 -5 25q-37 12 -69.5 19t-63.5 9q-29 0 -56.5 -4t-55.5 -10 q-82 -33 -162 -143q-29 -35 -55 -84z" />
<glyph unicode="b" horiz-adv-x="866" d="M28 186q-2 42 -2 86q0 77 5 159q8 128 22.5 247t22.5 190q4 25 6 50.5t6 52.5q-4 53 -8 114.5t-14 116.5q-4 0 -9.5 3t-3.5 3q-4 4 -4 19q6 27 21.5 45t31.5 39q16 16 39 35.5t49 15.5q12 14 27.5 27.5t29 21.5t23.5 8t13 -14v-21q10 4 14 5q6 0 10 -13 q-4 -104 -20.5 -203.5t-32.5 -199.5q0 -10 1 -19.5t1 -19.5q2 -59 4 -117.5t6 -118.5q72 53 150 93t174 40q39 -2 72.5 -26.5t62.5 -46.5q49 -43 77 -94q28 -52 36 -107q2 -16 3 -33q-1 -38 -13 -78q-18 -56 -62 -110q-57 -66 -113.5 -123t-132.5 -102q-6 -4 -13 -8.5 t-13 -8.5q-41 -35 -82 -61.5t-76 -46.5q-29 -16 -61.5 -23.5t-63.5 -15.5q-14 -3 -27 -3q-12 0 -26 3q-26 6 -54 10l-18 39h-6q-14 0 -19 6q-29 68 -33 184zM279 539q6 -78 13 -155t15 -155q4 -12 16.5 -24t0.5 -29q-5 -8 -9 -14q0 -6 1 -12.5t2 -12.5q59 23 118.5 43.5 t116.5 48.5l9 4.5l9 4.5q8 10 15.5 21t13.5 22q12 20 21 41q0 31 -3.5 62.5t-13.5 59.5q-28 90 -102 115q-38 13 -80 13q-38 0 -78 -11q-18 -4 -33.5 -10t-31.5 -12z" />
<glyph unicode="c" horiz-adv-x="1056" d="M28 364q-2 15 -2 30q0 60 30 123q38 79 126 167q61 84 149.5 138.5t217.5 95.5q27 8 61 12q23 3 48 3q12 0 24 -1q31 8 70 10h19q29 0 56 -4q10 16 31 39.5t40.5 42t36.5 24.5q4 2 7 2q11 0 14 -16q3 -26 3 -52q0 -13 -1 -26q-2 -39 -10 -78q4 -10 8.5 -18t6.5 -18 q-10 -39 -39 -68q-4 -33 -10.5 -63.5t-20.5 -61.5l-12 -18v-4q10 -16 22 -24.5t25 -20.5q-35 -33 -67 -64t-66 -63q-12 12 -27.5 21t-19.5 26q-2 4 -2 12q0 21 12 68q-2 20 1 46.5t7 55.5q-4 12 -7 24.5t-11 22.5q-4 4 -7.5 6t-7.5 6q-25 10 -47 21.5t-45 15.5q-39 8 -90 8 q-55 -29 -106.5 -64.5t-94.5 -76.5q-76 -68 -106 -111q-19 -28 -18 -57q0 -16 5 -33q16 -20 37 -42.5t47 -53.5q10 -12 19.5 -26.5t21.5 -30.5q23 -23 60 -45q16 -12 34.5 -20.5t36.5 -14.5q39 -8 79 -8h16q48 2 96 8q104 25 203 82q6 4 13 9t15 9q8 8 10.5 11.5t4.5 5.5 l6 6l12 12q6 6 25.5 21.5t38.5 25.5l8 8l4 -4q14 2 14 -14q0 -5 -2 -12q-25 -68 -75 -121t-117 -92q-45 -39 -96.5 -77t-101.5 -64.5t-96 -40.5q-32 -9 -59 -9q-12 0 -24 2q-59 12 -110.5 39t-98.5 62q-102 78 -158 150t-66 146z" />
<glyph unicode="d" horiz-adv-x="1042" d="M33 123q-7 19 -7 40q0 25 10 54q19 53 54 105q10 23 20.5 42t18.5 33q35 70 93.5 133.5t127 116.5t145 95t148.5 69q27 10 66 11h9q35 0 68 -7q2 35 4.5 70t6.5 69q4 53 8 103.5t16 97.5v15q1 64 15 122q16 64 79 115q12 10 26.5 20.5t31.5 10.5q12 4 23 4h8 q12 -10 13 -39v-12q0 -25 -3 -56q2 -20 -1 -46.5t-9.5 -55.5t-14.5 -57.5t-16 -55.5q0 -10 -1 -20t-3 -21q-2 -23 -2 -47v-43q-4 -104 -6.5 -204.5t-6.5 -202.5q2 -31 5.5 -60.5t7.5 -58.5l4 2q-4 -4 -4 -6q0 -16 2 -25q2 -23 3 -44t5 -44l12 -86q4 -25 2 -51.5t0 -50.5 q8 -31 8 -45q-2 -12 -17 -34t-33.5 -43.5t-39 -34.5t-37.5 -9q-6 -4 -14 0q-2 -4 -4 -5t-4 -5v14q-2 6 -4 13t-4 16q-8 -2 -17 2l-2 -2v6q-18 61 -24 133q-55 -59 -117 -88q-94 -47 -181 -68.5t-192 -32.5q-15 -1 -30 -1q-28 0 -55 4q-42 8 -78.5 26.5t-66.5 48t-46 70.5z M195 342q51 72 125.5 147.5t162.5 137.5q-43 -12 -91 -48t-120 -116q-14 -16 -31.5 -36.5t-33.5 -43.5q-8 -20 -12 -41zM272 304v-11q0 -41 25 -82q20 -33 57 -34h10q31 0 58 5q27 6 72 21.5t97 39t104 51t93 54.5q-10 74 -14 146q-2 36 -2 73t2 74h-10l-12 -8q-2 0 -2 -2 q-4 2 -11 8q-10 -2 -20 -3t-21 -1q-49 -10 -106 -32.5t-111.5 -54.5t-100.5 -71t-75 -83t-33 -90z" />
<glyph unicode="e" horiz-adv-x="1032" d="M29 362q-5 18 -5 36q0 20 6 40q11 39 17 80q6 43 31.5 86t54.5 80q51 68 104.5 113t112 73.5t127 44t150.5 23.5q12 0 47 -4t74.5 -14.5t73.5 -29t40 -44.5q20 -23 35 -53q27 -57 27 -106q0 -28 -9 -54q10 -2 19.5 -4t17.5 -6q4 -18 -5 -37t-24.5 -35t-34 -29.5 t-30.5 -21.5q-35 -20 -84 -23.5t-96 -3.5q-86 -10 -167 -28.5t-163 -38.5q-39 -10 -77 -22.5t-76 -23.5q37 -96 116 -159q72 -41 162 -51q57 -7 112 -7q31 0 62 2l68 19q4 2 -3 0t-17.5 -4t-17.5 -4t-1 0q55 14 113.5 26.5t113.5 32.5q16 12 33.5 25.5t40.5 21.5q6 2 13 3 t14 -1q4 -16 4 -24q-10 -37 -39 -65t-58 -48q-39 -20 -80 -37q-2 -2 -4 -2q-47 -29 -102 -44t-109 -24q-49 -8 -106 -12q-63 -10 -118 -10q-40 0 -74 5q-82 13 -144 69q-41 25 -70.5 60.5t-44.5 84.5q-6 14 -6 27q0 14 2 28q-14 39 -26 90zM188 539q0 -14 2.5 -26.5 t6.5 -27.5q35 16 71.5 28.5t75.5 23.5q78 25 157 42t132 31q35 10 69.5 18.5t69.5 14.5q-2 6 -4 11t-4 12q-25 53 -70 80.5t-104 31.5q-16 2 -32 2q-46 0 -90 -13q-60 -17 -113.5 -51t-96.5 -79t-70 -98zM215 684q27 25 53.5 46.5t55.5 41.5q-66 -27 -99 -74q-4 -4 -5 -7 t-5 -7z" />
<glyph unicode="f" horiz-adv-x="1062" d="M33 600q4 37 31.5 64.5t56.5 50.5q37 25 83 41t97 26q0 12 1 24.5t1 27.5v18q0 32 -5 64q-3 16 -3 31q0 26 8 52q10 27 35 58l-4 4q-4 23 2 43t18.5 38.5t28.5 35t31 30.5l2 2q41 57 98 96.5t123 67.5q55 23 126 24h4q69 0 122 -30q12 -8 35.5 -35.5t45 -62.5t32.5 -71 q6 -17 6 -31q0 -15 -7 -27q-18 -33 -50.5 -68t-73.5 -39q-18 10 -32 30.5t-30 37.5q-10 6 -18.5 13t-18.5 11q-23 -4 -48 9.5t-48 21.5q-23 -14 -46.5 -26.5t-47.5 -24.5q-8 -10 -13.5 -22.5t-9.5 -24.5q8 -20 7 -54t-5 -71t-10 -72t-10 -59q25 1 49 1h24q35 -1 68 -1h29 q25 0 49.5 -2t44.5 -10.5t20 -24.5l-135 -117v2q-18 -16 -37.5 -25.5t-35.5 -9.5q-23 2 -43.5 4.5t-42.5 6.5q-1 -39 -1 -78t1 -78q2 -78 8 -156q4 -45 16 -87t12 -87q-4 -12 -10 -25.5t-16 -27.5q4 -29 7 -58.5t7 -58.5q-4 -12 -20.5 -36.5t-38 -46t-42.5 -34.5 q-11 -6 -19 -6q-9 0 -15 7q-6 10 -9 20t-7 21q2 4 4 5t4 5q-2 12 -4 24.5t-6 26.5q-23 -31 -53.5 -53.5t-47.5 -7.5q0 2 -1 3t-1 3q-2 0 -4 2q0 2 -1 3t-1 3q0 4 4 4q-8 39 -8 80v17q1 17 1 33q0 33 -3 65q-4 59 -6 117q-1 20 -1 40q0 39 3 78l6 4q-1 45 -1 91v45 q1 69 3 137q-16 -4 -31.5 -7.5t-32.5 -7.5q-29 -8 -55 -11t-53 -15l-4 -5q-2 2 -4 3q-2 0 -4 2q-6 4 -7 10q-18 -4 -34.5 -5t-30.5 3l-6 6q-2 2 -2 6z" />
<glyph unicode="g" horiz-adv-x="1146" d="M25 -436q12 29 25 55.5t26 54.5q90 61 162.5 88t146.5 38.5t156 14.5t190 19q25 4 49.5 9t50.5 10q0 29 2.5 56.5l4.5 49.5v113q0 59 4 118q-47 -33 -98.5 -61.5t-104.5 -48t-109 -26.5q-22 -3 -45 -3q-33 0 -65 6q-23 4 -43.5 20.5t-36.5 33.5q-4 0 -8 1t-8 1 q-20 0 -50 6t-60 16t-55.5 26.5t-37.5 41.5l-49 -37q6 33 12 65.5t14 65.5v16t4 19q29 102 107 181t180 132q53 37 102.5 66.5t90.5 46.5q45 18 103 35.5t119 22.5q20 2 40 2q39 0 78 -7q57 -10 100 -47q25 -20 38 -49t30 -56q8 -20 10 -30h8q13 -4 13 -10q0 -4 -5 -19 q-4 -10 -10 -19.5t-10 -19.5l-6 -4q-2 -2 -3 -4q4 -10 5.5 -18.5t3.5 -18.5v-8q0 -33 -14 -66q-15 -36 -38 -69q-4 -18 -6 -38t-4 -38q-6 -55 -15 -118.5t-12 -126.5q-1 -17 -1 -34q0 -45 6 -90q8 -61 32 -114l3 -2h-3q4 -23 -13 -48.5t-42 -46.5q-20 -25 -44.5 -45 t-55.5 -24q-123 -2 -243 -8.5t-240 -10.5q-47 0 -92 1h-13q-39 0 -78 -5q-23 -4 -44 -7t-42 -9h-4q-4 -6 -10 -12.5t-12 -12.5q-4 2 -6.5 4t-6.5 4q-6 6 -6 15q-33 -18 -67 -43zM303 440q-2 -16 -2 -29q0 -19 5 -33q9 -24 28.5 -40t44 -29.5t49.5 -32.5q6 -6 13.5 -12 t15.5 -14q55 2 115.5 14t113.5 28.5t98 36t70 33.5q6 2 18 11q10 29 22.5 56.5t23.5 55.5q-35 33 -76 56.5t-54 29.5q-25 8 -65 13l-18 -17q-9 13 -11 21q-24 2 -49 2q-39 0 -81 -4q-72 -6 -138 -23q-16 -10 -36.5 -23.5t-39 -28.5t-32 -33.5t-15.5 -37.5z" />
<glyph unicode="h" horiz-adv-x="937" d="M82 686q0 90 3 183.5t10.5 185.5t15.5 176q-2 10 -4.5 17t-4.5 14l-8 -5q2 4 3 10.5t5 10.5q6 16 20.5 37.5t32 40t38 30t40.5 7.5q4 -8 5.5 -15.5t5.5 -17.5q23 25 46 40q14 9 23 9q6 0 11 -4l4 4v-18h-2q-4 -47 -10.5 -88t-10.5 -89q-2 -27 -2 -54q0 -20 1 -40 q3 -47 3 -94q-2 -53 -4 -104.5t-4 -104.5h2q12 -31 19.5 -64.5t11.5 -70.5q55 37 117 61q51 25 104 43.5t109 24.5q37 6 59 4h2q2 0 3 -1t5 -1q2 -10 0 -17.5t-6 -17.5q16 4 37.5 7t42.5 6q31 20 39 2h10q20 -4 11 -21.5t-13 -28.5q-2 -2 -3 -4t-3 -4t-6 -2q-2 -37 -3 -73 q0 -55 6 -109q9 -90 13 -182v-50q2 -6 2 -12q0 -4 2 -10q6 -43 18 -97q7 -32 6 -60q0 -20 -3 -40v-16q-2 -12 -19.5 -36.5t-39 -47.5t-43 -34t-34.5 1q-14 27 -18 60q-2 0 -4 -2q0 29 -12 59q-2 6 -3 11t-3 11q-4 0 -8.5 1.5t-6.5 5.5v32q-2 6 -3 11.5t-3 11.5 q-10 37 -23.5 97.5t-23.5 124.5q-9 66 -15 128q-4 46 -5 80q0 12 1 23v2q0 2 1.5 4t1.5 4q-25 6 -48 6l-73 -19q-41 -20 -82 -45.5t-84 -50.5q-2 -51 -4 -100t-2 -94q2 -12 3 -23.5t5 -23.5q-2 4 -2 8t2 0q12 -47 22 -107q3 -18 2 -35q0 -40 -16 -73q-18 -33 -51 -68 t-74 -39q-14 6 -20 35q-23 -32 -57 -58q-21 -16 -34 -16q-9 0 -16 6q-4 27 0 54.5t8 54.5q0 236 -12 475q-6 80 -6 168z" />
<glyph unicode="i" horiz-adv-x="415" d="M76 547q0 35 1 64.5t7 55t20.5 49t42.5 48.5q10 8 23.5 18.5t30.5 16.5l47 45q4 -12 7 -25.5t5 -25.5q20 16 36.5 21t20.5 -13q-2 -16 -3 -31.5t-1 -32.5q-2 -81 -3 -163v-55q0 -54 1 -109q6 -80 17.5 -160t29.5 -164q2 0 7 4q0 -4 -1.5 -9t-1.5 -9q-4 -12 -19 -35 t-35.5 -44.5t-41 -34.5t-35.5 -7q-17 -15 -33 -21q-6 -3 -11 -2q-8 0 -15 6q-2 6 -3 11.5t-3 11.5q-31 -20 -45 -6q-2 10 -2 22q0 10 -2 23q-6 14 -11.5 40.5t-7.5 56.5t-4 56.5t-2 38.5q-2 29 -2 56v55q-2 23 -3 47t-1 47q-6 51 -6 101q0 30 2 59zM104 975q0 74 27 139 l10 8q2 4 2 8q0 6 2 11q16 37 49 71.5t74 44.5h4q10 -2 13 -12v-26q16 12 27.5 14t15.5 -14q4 -33 4 -62t10 -31l-35 -41q-4 -29 -12 -56.5t-25 -49.5q-4 -6 -10 -15.5t-16 -19.5q-2 -2 -2 -4v-2l-2 -2q0 -2 -2 -2v-2q-6 -8 -22.5 -29.5t-36 -42t-39.5 -30.5q-10 -5 -18 -5 q-9 0 -16 6q-2 70 -2 144z" />
<glyph unicode="j" horiz-adv-x="755" d="M29 -240q8 25 28 50q4 20 16.5 35.5t26.5 29.5q31 33 49.5 47.5t29.5 15.5t20.5 -10.5t21.5 -27.5q10 -4 20.5 -7.5t18.5 -7.5q47 -25 88 -57.5t88 -38.5q0 2 2 2q27 23 40.5 68t21.5 94q-13 108 -13 218q0 28 1 55q4 139 18 276q-8 94 -19.5 188t-27.5 187q0 2 -1 3 t-1 3l2 2q2 18 15 40.5t32.5 42t42 32t43.5 8.5q6 -19 16 -39l2 2q2 0 4 2q4 4 14.5 12t22 14.5t21.5 6.5t12 -13q4 -182 16 -361q10 -136 10 -274q0 -44 -1 -88q-2 -29 -2 -61q0 -33 -2 -68q2 -2 2 -4l2 -2q16 -51 20 -92q1 -13 1 -25q0 -27 -6 -53q-9 -37 -33.5 -71.5 t-65.5 -73.5q-20 -16 -46 -40t-55 -46q-33 -37 -70.5 -68t-78.5 -50t-87 -26q-14 -1 -28 -1q-34 0 -70 10q-45 12 -88 41.5t-67 70.5q-9 15 -9 30q0 9 3 19zM429 1192q5 43 7 76l135 116q0 -4 -1 -7t-1 -7q16 16 38 32q18 14 37 14q4 0 9 -1q14 -6 10 -26.5t-6 -30.5 q-4 -16 -4 -27h6q6 -4 9.5 -9t7.5 -9q-10 -8 -17.5 -15.5l-15.5 -15.5q-2 -4 -14 -20l2 2q-4 -4 -4 -7l-2 -2q-14 -16 -30.5 -32.5t-33.5 -30.5q-10 -10 -22.5 -20.5t-22.5 -14.5q-23 -23 -46 -38q-13 -8 -22 -8q-8 0 -14 7q-7 21 -7 47q0 13 2 27z" />
<glyph unicode="k" horiz-adv-x="864" d="M26 477q0 14 21 47l2 2q0 2 2 4q2 190 19 385q4 57 11 113.5t17 114.5q2 12 5 26.5t8 28.5l-13 -8q4 49 21 90l8 16q4 23 13.5 44.5t25.5 43.5q4 4 20.5 21.5t36 33t35.5 21.5t21 -12v-18t-3 -19q10 10 30 28.5t38 30.5q17 12 28 12h2q12 -1 5 -30l-12 -25l-7 -4 q0 -2 -2 -2l2 2l-6 -8l2 4q-16 -35 -25 -86t-15.5 -104t-8.5 -103.5t-6 -85.5q-14 -147 -25 -295l5 5q10 6 19 13t19 15v-2q84 61 176.5 123t184.5 109q33 20 64.5 39.5t66.5 35.5q12 4 18.5 5.5t10.5 -13.5q-10 -47 -47 -83t-78 -56q-45 -55 -93.5 -97t-107.5 -79l-16 -25 q16 16 35.5 28.5t41.5 8.5q14 -29 23.5 -68.5t18 -84t16.5 -87.5t20 -77q10 -23 17.5 -43.5t15.5 -42.5q41 -92 83 -181.5t52 -189.5v-6q-2 -12 -18.5 -35t-35.5 -44.5t-40.5 -34.5t-36.5 -5l-4 -6q0 4 -1 6t-1 4q-43 86 -69.5 177t-59.5 184q-10 23 -18.5 44t-16.5 44 q-2 2 -2 4q-4 8 -4 10q-18 39 -45 79t-51.5 80t-45 82t-26.5 87v2q-43 -27 -76 -54q-1 -38 -1 -75q1 -89 7 -175q10 -124 37 -247l4 4q0 -4 -1 -9t-1 -10q-4 -12 -19 -35.5t-36 -45.5l-2 -3q-10 -16 -26.5 -35.5t-33 -33.5t-32.5 -20.5t-27 3.5v-2q0 2 -2 5v2l-2 -2 q0 -2 -2 -5q-2 8 -6 21q-27 74 -43 153q-10 -2 -21 5q0 -2 -2 -2v4q-6 90 -8 178t-2 180q-25 -11 -25 6z" />
<glyph unicode="l" horiz-adv-x="425" d="M84 671q2 107 10 218v35q0 18 2 34q3 58 3 122v32v10q0 76 14 144q4 10 24.5 35.5t42.5 48.5q4 10 8.5 19t10.5 20q20 29 47.5 57.5t64.5 38.5h11q10 -4 12 -12q4 -23 4 -47q0 -28 -5 -56q-9 -54 -18 -100q-14 -92 -30.5 -182.5t-30.5 -182.5v-38q0 -165 16 -327 q18 -180 49 -358l11 8q0 -8 -1 -14t-1 -14q-4 -12 -18.5 -34t-35.5 -44q2 -10 2 -23v-20q0 -8 3 -12q-4 -2 -5.5 -4t-5.5 -5q-8 -14 -24.5 -35.5t-35 -40t-35.5 -27.5q-8 -4 -15 -4q-8 0 -15 5q-2 0 -2 -2v4q-10 61 -18 122.5t-14 123.5q-2 10 -3.5 19.5t-3.5 19.5 q-10 61 -13 123q-2 37 -2 75q0 25 1 50q-4 83 -4 164v54z" />
<glyph unicode="m" horiz-adv-x="1267" d="M60 502q-4 41 -3 83q0 91 17 185l133 102q-2 -4 -2 -10q0 -4 -2 -8q19 20 41 34q17 10 35 10q5 0 10 -1q12 -12 11 -36.5t-7 -54.5t-14.5 -58.5t-12.5 -49.5q2 4 10 13q25 29 48.5 53t52.5 47q90 66 142 72q6 1 11 1q44 0 70 -42q35 8 60.5 10t33.5 -8q37 -47 54 -111 q47 25 104 51.5t118.5 45t121.5 21.5h13q53 0 101 -22v-4q6 -2 6 -14q0 -7 -2 -16q-20 -63 -23 -130q-2 -34 -1 -67q0 -32 1 -66q3 -66 5 -134v-23q0 -56 -8 -111q-4 -25 -5 -40t-4.5 -26.5t-8.5 -22.5t-17 -28q-6 -10 -25.5 -27.5t-36.5 -31.5v2v-2q0 -2 -1 -3t-1 -3 q-10 -8 -14 -8q10 8 14 14l-14 -14q-10 -10 -23.5 -22.5t-23.5 -20.5t-13 -11.5t7 3.5q-10 -10 -27.5 -18.5t-27.5 1.5q0 20 1 73.5t6 122t11 145.5t15.5 146.5t21.5 124t24 78.5h-8q-45 -4 -88 -16t-84 -23q-14 -4 -42.5 -13t-55.5 -19q3 -38 3 -78q0 -20 -1 -40 q-2 -61 -8 -121t-11.5 -115.5t-7.5 -102.5l11 8q0 -53 -40 -95t-85 -61q-16 0 -21 5q-23 -29 -51.5 -50.5t-44.5 -7.5q-9 75 -9 149v15q1 82 4 164t4 165v15q0 75 -9 150q-8 53 -23 84q-45 -10 -88 -26.5t-72 -31.5q-16 -23 -32.5 -44t-32.5 -42q-8 -102 -8 -211v-43 q2 -131 24 -243q2 2 4 3t4 3q0 -8 -1 -15.5t-1 -13.5q-4 -12 -20 -37.5t-38 -47.5q-20 -22 -42 -34q-11 -6 -20 -6q-8 0 -15 6q-6 20 -9 43t-7 45q-20 -8 -33 2q-4 53 -4 109q0 55 -4 111q-8 135 -20 266zM748 731q-1 -6 -1 -9q0 -5 2 -6h1l5 3q3 4 3 8q0 6 -10 4zM772 739 q3 0 3 2h-1z" />
<glyph unicode="n" horiz-adv-x="991" d="M92 430v54q0 79 4 157q6 104 21 197v16l4 2q6 12 26.5 38t42.5 45t40 27q5 2 9 3q10 0 13 -15q0 -35 -1 -68.5t-3 -68.5q20 23 44.5 40t51.5 13q5 -23 5 -47q0 -15 -2 -31q-5 -42 -9 -83q41 37 87 70.5t97 58.5q50 26 104 40q47 13 94 13h13q16 0 35.5 -1t36.5 -11 q41 -31 56.5 -81t21.5 -98q10 -68 16 -136t8 -136q0 -30 -4 -66q-2 -18 -2 -34t2 -31q3 -39 13 -80q6 -25 6 -50q0 -15 -2 -30q-20 -16 -39 -29.5t-37 -29.5q-12 -16 -27.5 -32.5t-30 -27t-28 -13.5t-21.5 5q-2 4 -2 15l2 2q0 10 1 18t3 18q-16 -16 -33.5 -22t-27.5 6 q-2 2 -2 8l4 4q-8 -2 -7 6.5t6 19.5t11 23.5t8 20.5q6 29 15.5 59.5t15.5 59.5q7 40 7 83q0 39 -6 79q-13 84 -42 157q-23 53 -49 85t-59 48q-61 0 -127 -33.5t-121 -66.5q0 -115 11 -226.5t48 -219.5l4 4q0 -10 1 -15.5t3 -11.5q4 -4 5 -10q2 -2 2 -4l2 -2q4 -14 -11.5 -40 t-37 -47.5t-45 -34.5t-35.5 -7l-2 -2q0 2 -3 2v2q-20 43 -36 96q-10 -14 -24.5 -30.5t-29 -28t-28 -16.5t-23.5 -1l-4 -4q-2 6 -2 21q-14 92 -24.5 195.5t-12.5 209.5z" />
<glyph unicode="o" horiz-adv-x="1028" d="M28 273q0 8 -1 16q0 61 17 121q19 68 58 134t91 120q4 4 8 9t8 9q25 27 57.5 56.5t69.5 53.5t77 40q32 12 63 13q8 0 16 -1q25 -4 46 -8.5t44 -8.5q16 2 32 2q60 0 111 -30q29 -18 58.5 -36t54.5 -40q43 -45 73.5 -96.5t44.5 -106.5q4 -8 8.5 -14t8.5 -14q19 -38 27 -86 q3 -18 3 -34q0 -29 -10 -55q-25 -74 -39 -112.5t-35.5 -66t-54.5 -56.5t-94 -84q-23 -23 -51.5 -38t-59.5 -21q-33 -7 -67 -7h-12q-40 2 -80 5q-47 2 -84 3t-70 5t-66.5 16t-74.5 37q-2 0 -4 2q-101 51 -140 143q-31 61 -33 130zM199 373q2 -82 50 -139.5t135 -81.5 q50 -14 109 -15q43 0 91 8q20 4 49 10.5t59.5 17.5t58 26.5t46.5 33.5q29 32 29 72q0 9 -2 17q-8 50 -38 92q-37 49 -92 96t-119.5 79t-132.5 43q-22 4 -44 4q-44 0 -85 -15q-35 -29 -59 -72q-55 -91 -55 -170v-6zM739 63q23 4 35 13q14 12 30.5 24.5t26.5 28.5q2 2 3 4 q0 2 2 6q-23 -23 -48.5 -41t-48.5 -35z" />
<glyph unicode="p" horiz-adv-x="954" d="M27 632q-1 13 -1 24q0 21 5 38q2 10 13 28.5t26.5 39t33 39t35.5 26.5q6 8 12.5 15.5t16.5 15.5q6 4 16.5 13.5t21.5 15.5t23.5 9t20.5 -5q2 -2 2 -4l2 -2q35 16 69.5 27.5t71.5 21.5q78 23 143 25h5q63 0 123 -54q4 -2 8 -2t8 -2q78 -27 132 -88t83 -138t32 -162v-18 q0 -75 -22 -141q-10 -31 -30.5 -59.5t-47 -56t-54 -50t-50.5 -41.5q-78 -61 -174 -100t-189 -76q0 -41 -1 -85q-1 -22 -1 -44t1 -44q1 -44 9.5 -87t26.5 -80q-20 -18 -39.5 -36.5t-38.5 -36.5v-21v-2h-2q-4 -14 -20 -37.5t-36.5 -45t-42.5 -32.5q-10 -6 -19 -6q-8 0 -15 6 q-2 4 -2 9q0 4 -2 8q-8 -4 -16 4q-10 10 -10 29v34q-10 23 -15.5 40.5t-13.5 49.5q-23 78 -31 159t-10 161q-2 35 -3 67.5t-1 67.5q-4 31 -6 62.5t-6 64.5q-4 39 -5.5 78t-3.5 80q-8 59 -15 118.5t-11 118.5q-2 25 -6 61zM332 452q6 -143 16 -288q18 8 28.5 11t20 5t19.5 3 t26 7q41 35 84 68t78 68.5t56 73.5q18 35 18 75v8q-4 45 -29.5 114t-66.5 128q-4 4 -8.5 6t-8.5 6q-14 10 -27.5 17.5t-27.5 15.5q-10 1 -20 1q-16 0 -32 -2q-26 -3 -57 -7q-41 -8 -48 -10t-15 -9q-8 -98 -8 -194q0 -49 2 -97zM492 121q31 12 76.5 29.5t89.5 38t79 44 t43 48.5q10 23 13.5 47t3.5 47q-25 -37 -58.5 -69t-74.5 -60q-31 -23 -61 -40.5t-60 -35.5q-6 -4 -13.5 -7t-13.5 -7q-6 -10 -12 -17.5t-12 -17.5z" />
<glyph unicode="q" horiz-adv-x="1200" d="M31 299q-6 17 -6 36q0 25 10 53q18 50 51 99.5t72 92.5t65 65q12 10 25.5 21.5t27.5 21.5q35 43 73 83t76 69.5t74 47.5q29 14 53 14q6 0 11 -1q29 -4 57.5 -10t57.5 -10l-35 -39q55 10 110 10l62 -3q86 -9 158 -52q35 -23 66.5 -53.5t54.5 -65.5q6 -12 13 -23.5 t11 -21.5q14 6 20.5 2t0.5 -29q-2 -2 -2 -4t-2 -4q12 -29 18 -51q8 2 12 1t9 -11v-8q0 -17 -5 -50q4 -27 4 -54q0 -34 -7 -65q-13 -57 -44 -106q-10 -68 -21 -154t-17 -174q-4 -65 -4 -127q0 -23 1 -45q2 -84 17 -147q-20 -18 -40 -37t-40 -39q-4 -12 -4 -23v-16l-13 -6 q-10 -18 -26.5 -38.5t-33.5 -37t-35 -22.5q-6 -2 -12 -2q-9 0 -15 6v37q0 16 -2 34l-3 2v23q0 12 3 23q-4 53 -7 108v42q0 34 2 67q0 33 3.5 63.5t7.5 61.5q0 59 2 114.5t8 110.5q-20 -10 -51 -21q-72 -25 -148 -34t-147 -17q-66 -10 -133 -10q-68 0 -131 16q-72 16 -111 50 t-55 81q-23 18 -31 33q-29 39 -35 86q-14 18 -20 37zM233 340q16 -12 31 -22.5t25 -14.5q86 -66 161 -86q49 -13 98 -13q26 0 53 4q75 11 155 48t172 82q-4 25 -7 50.5t-6 49.5q-33 68 -96 115t-140 71.5t-157 25.5q-4 1 -9 1q-74 0 -136 -22q-45 -16 -68.5 -39t-46.5 -51 q-30 -89 -30 -171q0 -14 1 -28z" />
<glyph unicode="r" horiz-adv-x="942" d="M47 625l53 45v30l4 2q8 18 27 42t39 42.5t38.5 26.5t24.5 -2l3 2v-39q12 18 29.5 33.5t35.5 30.5l-6 -70q14 18 27.5 34.5t29.5 31.5q6 4 0 -9.5t-6 -21.5q-6 -31 -6 -60q-2 -18 -3 -35.5t-1 -33.5q41 45 90 83t102.5 60.5t109.5 25.5h11q50 0 99 -24q12 -8 20 -16 q27 -6 50.5 -19.5t39.5 -38.5q23 -35 30 -74.5t13 -80.5q-12 0 -23.5 -1t-23.5 1l-47 -107l12 9q-12 -10 -27.5 -17.5t-25.5 2.5q-4 10 -5 22.5t-3 22.5q-6 -2 -19 -2q-12 4 -24 15q-6 0 -10 6l-5 8q-10 10 -20 19.5t-27 17.5q-33 12 -75 14h-16q-36 0 -72 -7 q-44 -9 -83.5 -27.5t-68.5 -45.5q0 -59 12 -137q14 -51 30.5 -100.5t33.5 -96.5l-21 -20q10 -45 21.5 -83t21.5 -67q-4 -4 -5 -6t-5 -4q4 -8 8 -10v-2l12 -12q4 4 9 6q-2 -4 -2 -8q0 -6 -2 -11q-2 -12 -19.5 -36.5t-39.5 -46.5q-20 -22 -42 -34q-11 -6 -20 -6t-15 7 q-20 20 -34.5 48.5t-26.5 63.5q-23 -29 -49.5 -52.5t-46.5 -16.5q-2 -4 -4 -5.5t-4 -5.5q0 4 -1.5 8.5t-1.5 8.5q-20 35 -24 80t-8 84q-6 47 -10.5 93t-6.5 93q-18 92 -32.5 184t-18.5 189z" />
<glyph unicode="s" horiz-adv-x="1050" d="M32 -30q3 12 10 24t16.5 22.5t15.5 16.5l43 37q-18 12 -4 43.5t43 61.5q30 29 68 47q18 8 35 9q18 0 34 -10q-8 -8 -15.5 -15t-13.5 -16q16 -6 37 -6h37q25 -1 50 -1h25q38 1 74 3q20 10 41 11q20 0 41 3t42.5 13t43.5 37l39 26q-2 2 -15 19.5t-13 19.5 q-45 10 -92.5 19.5t-86 18.5t-64.5 15.5t-30 8.5q-10 8 -7 20.5t13 26.5q-29 2 -57.5 4t-56.5 6l-2 -4q-8 2 -14.5 3t-14.5 3q-23 2 -44.5 4t-43.5 6q-12 10 -4 29t26 37q-14 2 -26 3t-25 -1q-27 -6 -59 -6q-4 0 -9.5 3t-2.5 1q-10 10 -6.5 19.5t8.5 19.5q16 33 38.5 54.5 t51.5 37.5q-6 10 -4 19l-31 -7q-23 -4 -21 8.5t11 28.5q43 74 119.5 118t168 67.5t184.5 28.5q42 2 81 2q47 0 90 -3q29 -2 53 -12q23 0 42 -3t34 -11q23 -2 44 -5.5t38 -13.5q4 -16 -4.5 -31.5t-20.5 -30t-25.5 -25.5t-23.5 -21q-33 -23 -69 -31t-72 -10l-25 -23 q-6 8 -14 25q-35 2 -69 5t-66 5q-45 -8 -86 -18q0 -12 1 -23.5t3 -24.5q47 -10 92 -21t84 -20q49 -16 95 -25t85 -19.5t68.5 -23.5t48.5 -38q37 -35 46 -88q3 -19 3 -38q0 -33 -10 -65q7 -5 7 -13q1 -8 -9 -22q-18 -26 -48 -48q-27 -35 -60.5 -59.5t-74.5 -43.5 q-74 -51 -168 -86q-72 -33 -145 -55q-94 -38 -182 -58q-41 -10 -75 -9q-38 0 -67 12q-8 8 -4 18q6 25 15 37q-35 -10 -70 -21.5t-59 -15.5q-10 -6 -11 -2q-6 -2 -12 -2h-8q-6 6 -6 13q0 3 1 6z" />
<glyph unicode="t" horiz-adv-x="999" d="M90 592q16 66 59.5 91.5t96.5 35.5q37 12 74.5 22.5t76.5 18.5v51q0 27 4 51q2 16 20.5 44t43.5 50q10 39 48 71t73 42q14 -2 21 -15.5t10.5 -33t3.5 -39.5v-39q2 -4 2 -12q0 -12 1 -23.5t1 -23.5q4 -25 6 -50.5t6 -50.5q35 4 69 6l30 2q19 0 38 -2q16 2 29 3q14 0 31 2 l-7 -7q18 -2 37 -3t37 -5h12l-4 -4h2h2q13 -4 13 -14q0 -6 -3 -12q-10 -20 -32.5 -42t-47 -41.5t-34.5 -23.5q-2 0 -4 -1t-4 -1h-10q-20 -2 -39 -3t-37 -1q-16 -2 -30.5 -3t-29.5 -3q7 -63 11 -126q3 -44 2 -86v-38q-2 -49 -3 -112.5t-1 -123.5q4 -33 6 -64.5t2 -62.5 q-2 -12 -18.5 -35.5t-37 -45t-42 -35t-35.5 -2.5l-2 -2v4q-2 10 -3.5 17t-3.5 15q-12 -14 -25 -27.5t-27 -21.5q-12 -8 -24 -11q-3 -1 -7 -1q-8 0 -13 6q-25 66 -25.5 136.5t-2.5 140.5q-6 111 -10 218q-2 68 -2 138q0 40 1 80q-16 -4 -29.5 -6t-29.5 -4h-2l-37 -43 q-41 -1 -84 -5q-12 -1 -25 -1q-30 0 -57 8q-10 8 -4 28h-2q0 2 2 2q-6 4 -6 9q-4 0 -6 -2.5t-6 -2.5q-13 -3 -17 1q-2 2 -3 9q0 4 1 9z" />
<glyph unicode="u" horiz-adv-x="948" d="M68 578q-2 25 -3 51q0 29 3 59v2q0 4 1 6t1 6q6 16 19 37t30.5 39.5t37 29.5t40.5 9q35 41 86 62q10 4 17 5h1q6 0 10 -14q2 -18 -3 -39.5t-11 -44.5q25 20 43 24.5t10 -30.5q-18 -52 -23 -114q-3 -35 -3 -70q0 -28 2 -58q4 -66 14 -131t20 -120l4 -13q5 -14 12 -32.5 t15 -40t17 -39.5q59 7 120 7h16h28q54 0 102 3q10 45 17 89t9 89q-4 33 -6 64.5t-6 60.5q-4 18 -10 37.5t-16 40.5l16 16q-4 39 -14 85q-6 25 -6 48q0 19 4 37v4l2 2q0 4 2 7q6 16 20 36.5t31.5 39t38 29.5t41.5 7q12 -29 20 -59.5t14 -63.5q10 6 19 7q10 0 14 -11l2 2 q0 -2 -2 -2v-2l2 -2q3 -35 3 -70q0 -17 -1 -35q-2 -52 -2 -106q16 -120 26 -236q4 -43 3 -87q0 -74 -10 -148v-2v-2q-2 0 -2 -2q-6 -14 -22.5 -37.5t-36.5 -43.5q-22 -22 -42 -32q-10 -5 -17 -4q-9 0 -15 6q-4 23 -5.5 43.5t-3.5 40.5q-4 0 -6 -1t-4 -1l-2 -2q-20 4 -29 6 q-23 -16 -38 -20t-11 23v2q-18 -2 -74.5 -11.5t-124.5 -17.5q-66 -8 -130 -10h-21q-48 0 -72 8q-10 -2 -22 -3t-23 -1q-8 8 -4 20q2 4 3 8.5t3 8.5q-31 8 -49 34.5t-30.5 58.5t-17.5 65.5t-7 58.5q-6 56 -6 113t6 114q-10 53 -14 107z" />
<glyph unicode="v" horiz-adv-x="985" d="M27 741q6 14 18 34t28.5 37t36 30.5t37.5 13.5q4 4 7 4q18 18 39.5 30.5t42.5 8.5l-3 6q0 4 3 2q0 -6 2 -8q4 -18 9 -37.5t11 -40.5q35 -63 57.5 -134t38.5 -142q2 -2 2 -4l2 -2q43 -70 88.5 -143.5t79.5 -143.5q10 -16 17.5 -32.5t17.5 -33.5q23 86 49.5 171t61.5 165v4 q4 10 17 27.5t30 34.5q25 86 57.5 164.5t81.5 128.5q16 15 40 35q20 16 41 17q4 0 9 -1q11 -9 11 -31q0 -6 -1 -13q-4 -32 -16 -46q-4 -14 -6 -28.5t-6 -29.5q-10 -41 -22.5 -77.5t-28.5 -75.5q-27 -68 -55.5 -134.5t-57.5 -134.5q-27 -66 -49.5 -136t-61.5 -128 q-4 -4 -21.5 -23.5t-38 -38t-37.5 -26.5t-21 6q-6 -6 -17 -10q-24 -29 -50 -47q-14 -10 -25 -10q-10 0 -17 8q-25 25 -49 59q0 2 -2 2v2q-47 59 -76 129t-47 142q-8 18 -14 41q-23 43 -46.5 87t-39.5 91q-4 6 -7.5 11t-5.5 9q-14 23 -35.5 47.5t-39.5 52.5q-19 28 -30 56 q-9 24 -9 47v8z" />
<glyph unicode="w" horiz-adv-x="1239" d="M25 668l45 43q-2 10 -2 20v21v10l2 2q4 18 18 39.5t32 38.5q18 18 40 30q16 9 31 8q5 0 10 -1v-2l2 2v-17q4 -23 8 -43t8 -43q12 14 27.5 28.5t29 25t23.5 13.5t16 -5q2 0 7 4q-2 -6 -3 -17q6 -53 11.5 -107t11.5 -108q4 -20 7 -40.5t7 -43.5q16 -63 35 -124.5t29 -122.5 q23 49 45 97t49 95q27 55 59.5 106.5t79.5 94.5q0 2 4 6t20.5 17.5t33 23.5t28.5 10t9 -20l40 32q-4 -39 -4 -77q0 -37 2 -78h11v-4l2 2v-4q23 -47 36 -100.5t25 -100.5q8 -33 15.5 -64.5t17.5 -64.5q10 57 24.5 113.5t32.5 111.5q12 53 31.5 103.5t50.5 99.5 q23 59 53.5 106t69.5 70q12 6 21.5 11t25.5 1q6 -6 10 -8q0 -4 1 -5t1 -5q-6 -66 -28.5 -129.5t-42.5 -124.5q-16 -41 -28.5 -84t-27.5 -84q-8 -47 -18 -98.5t-27 -98.5q-6 -53 -19 -103t-38 -97q-4 -4 -13 -17.5t-26 -29.5q-6 -14 -21.5 -36t-35 -40.5t-39 -29.5t-31.5 -5 q0 -2 -2 -2v-2q0 2 -1 3t-1 3q-74 129 -115 287.5t-49 316.5q-12 -39 -24.5 -77t-24.5 -74l12 8q-12 -51 -24 -108.5t-31.5 -111t-50.5 -99.5t-82 -74q-16 -6 -28.5 -9.5t-8.5 19.5q0 12 2 18q-23 -25 -48.5 -43t-41.5 -2q-4 23 1 45.5t13 44.5q-10 0 -14 2l-6 -6v10 q-2 4 -2 13q-2 0 -2 2q-29 -27 -66 -43q-4 0 -6 -2q-14 0 -20 6q-23 45 -40.5 104.5t-30.5 125t-23.5 136t-18.5 138.5q-12 47 -26.5 90t-34.5 78z" />
<glyph unicode="x" horiz-adv-x="968" d="M27 -156q-1 7 -1 14q0 16 7 36q10 28 25.5 54.5t33 50.5t29.5 38q37 51 77 98t81 94q23 27 45 52.5t45 52.5q-41 51 -85 109.5t-82 113.5t-65.5 105.5t-34.5 82.5l134 127q4 -16 12 -35.5t18 -41.5q18 10 37 6q29 -6 59.5 -34t61.5 -68t60.5 -90t56.5 -99l61 68 q39 45 78 88t84 82q33 35 68.5 62.5t74.5 35.5q14 -4 13.5 -10.5t-5.5 -18.5q-2 -2 -2 -8q13 6 23 3q6 -2 6 -11q0 -6 -2 -15q-29 -68 -77 -127t-103 -112q-35 -41 -73 -81t-75 -79q29 -35 54.5 -70.5t54.5 -70.5q27 -37 56.5 -83t64.5 -87l4 4q10 -12 19 -24.5t20 -26.5 q4 -16 -12.5 -42t-40 -49.5t-47 -36t-33.5 0.5q-27 27 -51.5 58.5t-47.5 62.5q-14 -6 -30 -7q-18 10 -40 36t-43.5 55.5t-40 58.5t-30.5 45q-4 4 -7 8t-7 8q-35 -37 -66 -74.5t-59 -76.5q-4 -4 -14.5 -20.5t-20.5 -35.5l12 9q-35 -59 -69.5 -102.5t-75.5 -51.5h-6l-4 2 q-6 0 -11 4v13q0 2 2 4v2q-6 -4 -11 -5t-9 -6h-6q-29 -33 -72 -49q-14 0 -18 4z" />
<glyph unicode="y" horiz-adv-x="1042" d="M25 684l2 2q4 25 26.5 56.5t50.5 50.5q16 20 39 35.5t45 11.5q4 -10 5 -19v-16l-11 -8v-4q0 -4 1 -6.5t1 -6.5q27 12 45 11q53 -43 92 -94.5t70 -106.5t58.5 -113.5t54.5 -118.5q6 -6 10 -14q18 -20 35.5 -38.5t34.5 -35.5q16 33 33.5 64t35.5 59q18 41 39 79t43 75 q23 53 49 104q12 25 38 53.5t48 51.5l37 49q4 4 23.5 24.5t41 36t36.5 17.5h1q8 0 8 -12q0 -7 -3 -19q-33 -74 -72 -143.5t-70 -143.5q-47 -109 -87 -218t-80 -220q4 -12 8 -29h2l-2 -2q0 -14 -2 -22q-16 -29 -43 -60q-4 -10 -9 -22q-10 -23 -17 -41.5t-15 -34.5 q-10 -27 -18.5 -47.5t-16.5 -39.5t-17.5 -44t-23.5 -59q-16 -43 -25.5 -87.5t-38.5 -84.5q-4 -4 -23.5 -26t-42 -40t-38.5 -24h-5q-11 0 -9 22q0 4 1 6t1 4q-20 -10 -41 -10q-6 4 -6 18q8 47 24.5 92.5t38.5 88.5q0 29 10.5 69.5t22.5 81.5t25.5 77t21.5 54l6 19 q-16 16 -41.5 53t-55.5 84t-60.5 98t-57.5 98q-16 23 -31.5 44.5t-29.5 44.5q-61 66 -107.5 133t-62.5 137q0 2 -1 3t-1 3z" />
<glyph unicode="z" horiz-adv-x="1124" d="M25 6q2 27 22 53q-6 -4 -16 -14l-4 4q4 41 38.5 74t69.5 51q20 10 39 18.5t41 18.5l18 18q27 23 55.5 45.5t57.5 44.5q92 98 193.5 198.5t205.5 178.5q-23 2 -43 4t-43 5q-94 -16 -186 -32t-186 -18q-10 10 -6 23q-59 -16 -118 -28q-40 -8 -79 -9q-19 0 -37 2 q-12 12 -4 30.5t24.5 36t35 33t26.5 21.5q98 66 229 82q95 12 195 12q38 0 76 -2q29 4 58.5 7t60.5 7q29 6 58.5 11.5t59.5 11.5q46 7 96 19q37 9 73 9q12 0 24 -1q10 -4 11 -8.5t-1 -12.5q0 -4 -2 -6q-12 -43 -49 -76q4 -10 -7.5 -28.5t-29.5 -36.5q8 -2 2 -27 q-10 -27 -30.5 -50.5t-43.5 -39.5q-12 -8 -22 -14q-14 -10 -31 -21l-16 -12q-10 -6 -21.5 -14.5t-19.5 -14.5q-31 -23 -61.5 -44t-59.5 -44q-47 -35 -92 -66.5t-92 -64.5q-23 -18 -43.5 -35.5t-40.5 -36.5q66 16 133 24.5t135 12.5q53 16 110.5 29.5t112.5 22t107 10.5h15 q42 0 75 -9q0 -4 1 -5t1 -5v-8q-10 -41 -44 -72.5t-71 -48.5q-82 -33 -189.5 -39t-211.5 -10q-57 -16 -112.5 -34.5t-111.5 -41.5q-18 -6 -49.5 -22.5t-65.5 -30.5t-63.5 -22.5t-44.5 -0.5q-6 4 -6 9q-27 -23 -51 -37q-12 -4 -22 -7q-3 -1 -6 -1q-6 0 -9 6q-10 -4 -14 -1 t-4 19z" />
<glyph unicode="|" horiz-adv-x="311" d="M26 607q1 87 5 175q0 18 1 37t1 39q0 82 1 165t11 167q-2 8 -2 14t-2 15l8 4q4 31 12 61v68v6l2 4q0 2 3 6q4 10 12 23q4 8 16 20q12 16 23 27l4 4q35 31 53 37q8 2 14 0h2q20 4 31 2q12 -23 8 -86q0 -2 1 -3t1 -6h15q4 -6 3 -34.5t-3 -68.5t-6 -84t-8.5 -83t-7.5 -66.5 t-3 -31.5q-14 -244 6 -490q4 -55 12.5 -110.5t16.5 -99.5t14 -70.5t6 -22.5q6 -25 9.5 -50t-9.5 -48q-2 -4 -3 -5t-3 -5q6 -27 2 -56v-2h-2q-4 -20 -12 -34q-6 -8 -20.5 -25.5t-33 -34t-35.5 -26t-30 1.5q-31 -20 -45 -7q-27 41 -38 91.5t-14 103.5t-1 105.5t0 97.5 q0 8 -1 15t-1 15q-2 16 -3 35t-3 35q-8 88 -7 175z" />
<glyph unicode="~" horiz-adv-x="1155" d="M27 416q4 23 21.5 53.5t43.5 65.5q23 57 48.5 117.5t57 116.5t71.5 106.5t91 89.5q18 14 38 27.5t41.5 20.5t44 5t44.5 -21q10 -10 20.5 -21t20.5 -22q25 -25 45.5 -53.5t38.5 -60.5q25 -35 47.5 -70t47.5 -68v-2q25 27 55.5 57.5t64 62.5t67.5 61.5t64 54.5l13 12h6 q29 23 51.5 35t38.5 12q-8 -12 -4 -14t11 -3t12.5 -6t0.5 -24q-8 -25 -26.5 -50.5t-41 -50t-48 -48t-47.5 -45.5q-8 -10 -16.5 -20.5t-16.5 -20.5q-23 -41 -46.5 -80t-45.5 -76q-23 -29 -50.5 -56.5t-64.5 -31.5q-2 0 -10 4q-29 -18 -47 -18q-2 0 -4 2l-7 -6l-30 18 q-82 37 -154 102.5t-123 141.5q-10 -16 -22.5 -29.5t-22.5 -30.5l-31 -37l11 5q0 -25 -22.5 -59t-55.5 -67.5t-65.5 -60t-55.5 -35.5q-12 -4 -20 4q0 2 -3 3v2q-16 -10 -28 -11.5t-8 19.5z" />
<glyph unicode="&#xad;" d="M28 703.5q-3 7.5 0 17.5t10 20.5l11 16.5q18 25 43 54.5t58 39.5h2q14 14 29.5 25.5t31.5 17.5q61 23 136 38t152 22.5t152.5 5t139.5 -14.5q14 -4 13 -10t-5 -18q-2 -4 -4 -9.5t-4 -9.5q-6 -4 -12.5 -7t-12.5 -7q10 -2 18 -2t17 -2h24l4 -2q2 0 7 -5q10 -2 19 -4t20 -4 h2q2 -2 8 -2q4 -20 -8.5 -42.5t-33 -42t-44 -33t-41.5 -15.5q-23 2 -43 6t-43 8q-55 0 -117.5 -2l-125 -4t-123 -5t-111.5 -5q-88 -10 -152 -31q-14 -2 -17 5.5z" />
<glyph unicode="&#x2000;" horiz-adv-x="838" />
<glyph unicode="&#x2001;" horiz-adv-x="1677" />
<glyph unicode="&#x2002;" horiz-adv-x="838" />
<glyph unicode="&#x2003;" horiz-adv-x="1677" />
<glyph unicode="&#x2004;" horiz-adv-x="559" />
<glyph unicode="&#x2005;" horiz-adv-x="419" />
<glyph unicode="&#x2006;" horiz-adv-x="279" />
<glyph unicode="&#x2007;" horiz-adv-x="279" />
<glyph unicode="&#x2008;" horiz-adv-x="209" />
<glyph unicode="&#x2009;" horiz-adv-x="335" />
<glyph unicode="&#x200a;" horiz-adv-x="93" />
<glyph unicode="&#x2010;" d="M28 703.5q-3 7.5 0 17.5t10 20.5l11 16.5q18 25 43 54.5t58 39.5h2q14 14 29.5 25.5t31.5 17.5q61 23 136 38t152 22.5t152.5 5t139.5 -14.5q14 -4 13 -10t-5 -18q-2 -4 -4 -9.5t-4 -9.5q-6 -4 -12.5 -7t-12.5 -7q10 -2 18 -2t17 -2h24l4 -2q2 0 7 -5q10 -2 19 -4t20 -4 h2q2 -2 8 -2q4 -20 -8.5 -42.5t-33 -42t-44 -33t-41.5 -15.5q-23 2 -43 6t-43 8q-55 0 -117.5 -2l-125 -4t-123 -5t-111.5 -5q-88 -10 -152 -31q-14 -2 -17 5.5z" />
<glyph unicode="&#x2011;" d="M28 703.5q-3 7.5 0 17.5t10 20.5l11 16.5q18 25 43 54.5t58 39.5h2q14 14 29.5 25.5t31.5 17.5q61 23 136 38t152 22.5t152.5 5t139.5 -14.5q14 -4 13 -10t-5 -18q-2 -4 -4 -9.5t-4 -9.5q-6 -4 -12.5 -7t-12.5 -7q10 -2 18 -2t17 -2h24l4 -2q2 0 7 -5q10 -2 19 -4t20 -4 h2q2 -2 8 -2q4 -20 -8.5 -42.5t-33 -42t-44 -33t-41.5 -15.5q-23 2 -43 6t-43 8q-55 0 -117.5 -2l-125 -4t-123 -5t-111.5 -5q-88 -10 -152 -31q-14 -2 -17 5.5z" />
<glyph unicode="&#x2012;" d="M28 703.5q-3 7.5 0 17.5t10 20.5l11 16.5q18 25 43 54.5t58 39.5h2q14 14 29.5 25.5t31.5 17.5q61 23 136 38t152 22.5t152.5 5t139.5 -14.5q14 -4 13 -10t-5 -18q-2 -4 -4 -9.5t-4 -9.5q-6 -4 -12.5 -7t-12.5 -7q10 -2 18 -2t17 -2h24l4 -2q2 0 7 -5q10 -2 19 -4t20 -4 h2q2 -2 8 -2q4 -20 -8.5 -42.5t-33 -42t-44 -33t-41.5 -15.5q-23 2 -43 6t-43 8q-55 0 -117.5 -2l-125 -4t-123 -5t-111.5 -5q-88 -10 -152 -31q-14 -2 -17 5.5z" />
<glyph unicode="&#x2013;" horiz-adv-x="1075" d="M27.5 703.5q-3.5 7.5 0 17.5t12 20.5t13.5 16.5q21 25 51 54.5t69 39.5h2q17 14 35.5 25.5t37.5 17.5q72 23 161 38t181 22.5t181.5 5t165.5 -14.5q17 -4 15.5 -10t-5.5 -18q-3 -4 -5.5 -9.5t-4.5 -9.5q-7 -4 -14.5 -7t-15.5 -7q12 -2 22 -2q9 0 20 -2h29l4 -2q3 0 9 -5 l22 -4t24 -4h2q3 -2 10 -2q5 -20 -10 -42.5t-39.5 -42t-52.5 -33t-49 -15.5q-27 2 -51 6t-51 8q-66 0 -140 -2t-148.5 -4t-146.5 -5t-132 -5q-105 -10 -181 -31q-17 -2 -20.5 5.5z" />
<glyph unicode="&#x2014;" horiz-adv-x="2099" d="M29.5 703.5q-7.5 7.5 0 17.5t24 20.5t25.5 16.5q43 25 102.5 54.5t138.5 39.5h4q34 14 70.5 25.5t74.5 17.5q145 23 323.5 38t361.5 22.5t362.5 5t331.5 -14.5q34 -4 31.5 -10t-12.5 -18q-5 -4 -9.5 -9.5t-9.5 -9.5q-14 -4 -29.5 -7t-29.5 -7q24 -2 43 -2t40 -2h57l10 -2 q4 0 16 -5q24 -2 45.5 -4t47.5 -4h5q4 -2 19 -2q9 -20 -20.5 -42.5t-78.5 -42t-104.5 -33t-98.5 -15.5q-55 2 -102.5 6t-102.5 8q-130 0 -279 -2t-297.5 -4t-292 -5t-265.5 -5q-209 -10 -361 -31q-33 -2 -40.5 5.5z" />
<glyph unicode="&#x2018;" horiz-adv-x="374" d="M31.5 1043q17.5 77 60.5 149q35 84 96.5 146.5t139.5 72.5l8 -18q18 -4 14 -18.5t-19.5 -33t-35 -36t-31.5 -29.5q-14 -12 -26.5 -23.5t-26.5 -21.5q-4 -16 -4 -25q2 -25 11 -46t20.5 -43.5t22.5 -45t13 -47.5q6 -4 12.5 -5t12.5 -5q-6 -6 -12 -12.5t-11 -12.5 q-4 -35 -34.5 -70.5t-68.5 -55t-76 -13.5t-56 55q-27 61 -9.5 138z" />
<glyph unicode="&#x2019;" horiz-adv-x="385" d="M27 1247q2 13 12 33q10 16 26.5 36.5t36.5 37.5q18 33 51 60.5t62 23.5l4 4v-6q94 -39 122.5 -119t8.5 -166q-2 -25 -10 -46.5t-18 -41.5q-6 -45 -22.5 -88t-40 -77t-56.5 -55.5t-74 -21.5q-6 4 -6 21q0 6 2 12q2 4 4 9t4 9q10 23 23 46q-16 -4 -21 -5q-18 0 -25.5 18.5 t-9.5 42t1 47t5 36.5q0 -4 -1 -9.5t-1 -9.5q2 25 2 52q0 29 -4 55t-16 50t-35 38l-18 -19q-8 20 -6 33z" />
<glyph unicode="&#x201c;" horiz-adv-x="761" d="M26 997.5q1 24.5 3 40.5q10 102 42.5 173t104.5 143q14 12 28.5 24.5t31.5 20.5q39 35 80.5 49t82.5 -2q0 -18 -2 -27q-14 -37 -47 -69q-23 -43 -54.5 -75t-59.5 -52q0 -2 -1.5 -3t-1.5 -3q-10 -23 -8 -50.5t6 -50.5q6 -57 24.5 -102t10.5 -90l-2 -11q-6 -27 -28 -55 q-20 -23 -43 -42t-54 -23q-16 12 -32.5 21t-26.5 26q-8 10 -14 26q-16 12 -24.5 35t-12.5 47.5t-3 49zM392 884q1 40 5 66q6 47 19 94q0 137 104 246q25 35 53.5 63.5t63.5 49.5q12 6 21.5 11t25.5 1q6 -4 8 -14l31 6q14 -4 13 -11t-5 -18q-16 -41 -52 -70.5t-71 -52.5 q-4 -4 -6 -5t-4 -3q-31 -47 -32 -99t3 -106q6 -18 17 -38l-13 -13q2 -29 0 -57.5t-10 -56.5q-10 -27 -31.5 -50.5t-44.5 -40.5q-41 -31 -61 -19.5t-27.5 44.5t-6.5 73z" />
<glyph unicode="&#x201d;" horiz-adv-x="679" d="M27 1251q-4 10 4 26.5t22 33.5q21 25 41 39q37 27 58 26q6 2 11 1t9 1q10 4 21.5 5t21.5 -3q4 -2 5 -3t5 -3q59 -16 94 -78q18 -33 24.5 -84t5.5 -106t-10 -105.5t-24 -85.5q-20 -33 -52 -67.5t-73 -38.5h-6l-6 6q-4 18 -2 35.5t8 36.5l19 12q2 6 3 11t1 12 q-27 -33 -68 -48q-10 -4 -18 5q0 59 5 104t2 86t-23.5 82t-69.5 88h-2q-6 4 -6 12zM416 1278q0 12 8 33q10 16 21.5 32.5t27.5 32.5q23 25 49.5 42.5t48.5 13.5q27 -31 43 -60l2 -2q35 -70 38 -154.5t-11 -156.5q-8 -41 -19.5 -73t-15.5 -66v-62v-2l-2 -2 q-4 -12 -18.5 -34.5t-33.5 -42t-39.5 -33t-35.5 -7.5l-6 -6v10q-4 25 -3 46.5t5 43.5q2 57 3 116t-3 117t-17.5 112.5t-41.5 101.5z" />
<glyph unicode="&#x2026;" horiz-adv-x="1464" d="M31.5 54q-11.5 36 2 75t48.5 74t80 53q16 6 34.5 8t36.5 6l46 27q41 27 78.5 31t64.5 -29q6 -10 9 -17.5t7 -15.5q23 -31 10.5 -68.5t-47.5 -74.5q-33 -43 -77.5 -78t-79.5 -55q-25 -14 -56 -21q-29 -8 -52 -5t-40 24q-2 4 -3 5t-3 5q-47 20 -58.5 56zM563 98.5 q10 38.5 36 75.5t63.5 66.5t76.5 42.5q16 12 25 16q23 12 50.5 14t53.5 6l31 -8q18 0 33 -8q4 -4 8 -6q12 2 23.5 -1t17.5 -13q23 -47 -3 -99.5t-77 -93.5q-25 -37 -58.5 -68.5t-67.5 -51t-64.5 -25.5t-51.5 8q-20 6 -20 31q0 2 -2 2q-23 2 -41 11t-29 32q-14 31 -4 69.5z M1057.5 92.5q11.5 38.5 39 78.5t61.5 72.5t52 45.5q23 16 45.5 23t49.5 12l49 -21q33 0 57 -24q35 -39 19 -95q0 -4 6 -8l-17 -16q-20 -43 -61 -83t-89 -66.5t-94.5 -33t-78.5 20.5q-14 12 -19 31q-31 25 -19.5 63.5z" />
<glyph unicode="&#x202f;" horiz-adv-x="335" />
<glyph unicode="&#x205f;" horiz-adv-x="419" />
<glyph unicode="&#x20ac;" horiz-adv-x="1267" d="M29 683.5q8 18.5 24.5 36t33.5 33t26 21.5q14 8 28.5 14.5t28.5 12.5q57 27 126 36t146 9q4 2 17 2q45 82 113.5 153.5t140.5 106.5q37 18 87 35.5t103 28t108.5 11.5t100.5 -14q27 -4 47.5 -14t30.5 -27q-2 -2 -4 -2q10 -10 17 -20t16 -21l-134 -127q-6 10 -10 21.5 t-12 21.5h-2q0 2 -2 3l-2 -3q-4 4 -7 7.5t-8 7.5q-4 2 -7 4t-7 4q-20 8 -48 12t-54 4q-25 0 -46.5 -1t-27.5 -1q-25 -4 -47.5 -12t-44.5 -18q-31 -14 -55 -37q-25 -39 -35 -101q55 4 110.5 7.5t110.5 3.5q49 0 54 -18.5t-15 -45.5h8l-2 -2q18 -6 8 -25.5t-31.5 -42t-46 -41 t-35.5 -22.5l-2 -2h-12q-39 -6 -77 -9t-76 -5q2 -23 3 -43.5t5 -42.5q76 4 150.5 6t150.5 2l-4 -4q16 -2 27.5 -3t23.5 -12q-2 -2 0 -4l4 -4t2 -6t-4 -12q4 -12 -10.5 -32.5t-36 -41t-44 -36t-38.5 -15.5q-47 -2 -92 -2q-43 0 -88 -2q6 -16 12 -30.5t12 -25.5 q8 -14 18.5 -25t20.5 -22q53 -12 107.5 -15t107.5 1q23 2 51.5 9t58 17.5t56.5 20.5t41 16l6 3q2 0 6 2l2 2l5 2l-3 -2q33 8 29 -8.5t-24.5 -40t-44 -46t-29.5 -26.5q-76 -37 -146.5 -63.5t-156.5 -30.5q-94 -4 -185.5 5t-173.5 58q-18 10 -33.5 41t-25.5 72 q-10 18 -12 36.5t-4 41.5q-18 -2 -39 -2h-39q-18 -2 -39 -3h-41q-25 -6 -50.5 -12t-54.5 -6l-2 2q0 2 -2 4q-16 0 -22 2q-4 4 -8.5 7t-24.5 -13q-29 4 -37 27q4 41 39 73.5t68 51.5q35 10 72.5 11t74.5 -3q8 4 13.5 5t9.5 3q10 2 18 2q10 0 21 2q10 2 19 3t19 3q2 27 3 53 v56h-3q-20 0 -42.5 2t-47.5 4q-8 -2 -24 -2q-10 -2 -46 -8t-77 -12.5t-79 -8.5t-54 4q-12 12 -4 30.5z" />
<glyph unicode="&#x25fc;" horiz-adv-x="870" d="M0 0v870h870v-870h-870z" />
</font>
</defs>
</svg>
